<?xml version="1.0" encoding="utf-8" standalone="no"?>
<!DOCTYPE svg PUBLIC "-//W3C//DTD SVG 1.1//EN"
  "http://www.w3.org/Graphics/SVG/1.1/DTD/svg11.dtd">
<svg xmlns:xlink="http://www.w3.org/1999/xlink" width="349.293pt" height="351.925281pt" viewBox="0 0 349.293 351.925281" xmlns="http://www.w3.org/2000/svg" version="1.1">
 <metadata>
  <rdf:RDF xmlns:dc="http://purl.org/dc/elements/1.1/" xmlns:cc="http://creativecommons.org/ns#" xmlns:rdf="http://www.w3.org/1999/02/22-rdf-syntax-ns#">
   <cc:Work>
    <dc:type rdf:resource="http://purl.org/dc/dcmitype/StillImage"/>
    <dc:date>2023-01-31T16:52:03.472168</dc:date>
    <dc:format>image/svg+xml</dc:format>
    <dc:creator>
     <cc:Agent>
      <dc:title>Matplotlib v3.6.1, https://matplotlib.org/</dc:title>
     </cc:Agent>
    </dc:creator>
   </cc:Work>
  </rdf:RDF>
 </metadata>
 <defs>
  <style type="text/css">*{stroke-linejoin: round; stroke-linecap: butt}</style>
 </defs>
 <g id="figure_1">
  <g id="patch_1">
   <path d="M 0 351.925281 
L 349.293 351.925281 
L 349.293 0 
L 0 0 
z
" style="fill: #ffffff"/>
  </g>
  <g id="axes_1">
   <g id="patch_2">
    <path d="M 63.093 302.253562 
L 342.093 302.253562 
L 342.093 25.053562 
L 63.093 25.053562 
z
" style="fill: #ffffff"/>
   </g>
   <g id="matplotlib.axis_1">
    <g id="xtick_1">
     <g id="line2d_1">
      <defs>
       <path id="m9a7f71802b" d="M 0 0 
L 0 6 
" style="stroke: #262626; stroke-width: 1.25"/>
      </defs>
      <g>
       <use xlink:href="#m9a7f71802b" x="75.774818" y="302.253562" style="fill: #262626; stroke: #262626; stroke-width: 1.25"/>
      </g>
     </g>
     <g id="text_1">
      <text style="fill: #262626; font: 14.3px 'Arial', 'DejaVu Sans', 'Liberation Sans', 'Bitstream Vera Sans', sans-serif; text-anchor: middle" x="75.774818" y="322.619328" transform="rotate(-0 75.774818 322.619328)">0.0</text>
     </g>
    </g>
    <g id="xtick_2">
     <g id="line2d_2">
      <g>
       <use xlink:href="#m9a7f71802b" x="126.502091" y="302.253562" style="fill: #262626; stroke: #262626; stroke-width: 1.25"/>
      </g>
     </g>
     <g id="text_2">
      <text style="fill: #262626; font: 14.3px 'Arial', 'DejaVu Sans', 'Liberation Sans', 'Bitstream Vera Sans', sans-serif; text-anchor: middle" x="126.502091" y="322.619328" transform="rotate(-0 126.502091 322.619328)">0.2</text>
     </g>
    </g>
    <g id="xtick_3">
     <g id="line2d_3">
      <g>
       <use xlink:href="#m9a7f71802b" x="177.229364" y="302.253562" style="fill: #262626; stroke: #262626; stroke-width: 1.25"/>
      </g>
     </g>
     <g id="text_3">
      <text style="fill: #262626; font: 14.3px 'Arial', 'DejaVu Sans', 'Liberation Sans', 'Bitstream Vera Sans', sans-serif; text-anchor: middle" x="177.229364" y="322.619328" transform="rotate(-0 177.229364 322.619328)">0.4</text>
     </g>
    </g>
    <g id="xtick_4">
     <g id="line2d_4">
      <g>
       <use xlink:href="#m9a7f71802b" x="227.956636" y="302.253562" style="fill: #262626; stroke: #262626; stroke-width: 1.25"/>
      </g>
     </g>
     <g id="text_4">
      <text style="fill: #262626; font: 14.3px 'Arial', 'DejaVu Sans', 'Liberation Sans', 'Bitstream Vera Sans', sans-serif; text-anchor: middle" x="227.956636" y="322.619328" transform="rotate(-0 227.956636 322.619328)">0.6</text>
     </g>
    </g>
    <g id="xtick_5">
     <g id="line2d_5">
      <g>
       <use xlink:href="#m9a7f71802b" x="278.683909" y="302.253562" style="fill: #262626; stroke: #262626; stroke-width: 1.25"/>
      </g>
     </g>
     <g id="text_5">
      <text style="fill: #262626; font: 14.3px 'Arial', 'DejaVu Sans', 'Liberation Sans', 'Bitstream Vera Sans', sans-serif; text-anchor: middle" x="278.683909" y="322.619328" transform="rotate(-0 278.683909 322.619328)">0.8</text>
     </g>
    </g>
    <g id="xtick_6">
     <g id="line2d_6">
      <g>
       <use xlink:href="#m9a7f71802b" x="329.411182" y="302.253562" style="fill: #262626; stroke: #262626; stroke-width: 1.25"/>
      </g>
     </g>
     <g id="text_6">
      <text style="fill: #262626; font: 14.3px 'Arial', 'DejaVu Sans', 'Liberation Sans', 'Bitstream Vera Sans', sans-serif; text-anchor: middle" x="329.411182" y="322.619328" transform="rotate(-0 329.411182 322.619328)">1.0</text>
     </g>
    </g>
    <g id="text_7">
     <!-- Instability $I$ -->
     <g style="fill: #262626" transform="translate(159.537 341.449281)">
      <text>
       <tspan style="font: 15.6px 'DejaVu Sans'" x="0 4.598938 14.482086 22.606369 28.72052 38.27626 48.174637 52.50708 56.839523 61.171967 67.286118 76.51445" y="-0.15625">Instability </tspan>
       <tspan style="font: oblique 15.6px 'DejaVu Sans'" x="81.471252" y="-0.15625">I</tspan>
      </text>
     </g>
    </g>
   </g>
   <g id="matplotlib.axis_2">
    <g id="ytick_1">
     <g id="line2d_7">
      <defs>
       <path id="m4cdb8bdc87" d="M 0 0 
L -6 0 
" style="stroke: #262626; stroke-width: 1.25"/>
      </defs>
      <g>
       <use xlink:href="#m4cdb8bdc87" x="63.093" y="302.253562" style="fill: #262626; stroke: #262626; stroke-width: 1.25"/>
      </g>
     </g>
     <g id="text_8">
      <text style="fill: #262626; font: 14.3px 'Arial', 'DejaVu Sans', 'Liberation Sans', 'Bitstream Vera Sans', sans-serif; text-anchor: end" x="53.593" y="307.686445" transform="rotate(-0 53.593 307.686445)">0</text>
     </g>
    </g>
    <g id="ytick_2">
     <g id="line2d_8">
      <g>
       <use xlink:href="#m4cdb8bdc87" x="63.093" y="260.678759" style="fill: #262626; stroke: #262626; stroke-width: 1.25"/>
      </g>
     </g>
     <g id="text_9">
      <text style="fill: #262626; font: 14.3px 'Arial', 'DejaVu Sans', 'Liberation Sans', 'Bitstream Vera Sans', sans-serif; text-anchor: end" x="53.593" y="266.111642" transform="rotate(-0 53.593 266.111642)">20</text>
     </g>
    </g>
    <g id="ytick_3">
     <g id="line2d_9">
      <g>
       <use xlink:href="#m4cdb8bdc87" x="63.093" y="219.103956" style="fill: #262626; stroke: #262626; stroke-width: 1.25"/>
      </g>
     </g>
     <g id="text_10">
      <text style="fill: #262626; font: 14.3px 'Arial', 'DejaVu Sans', 'Liberation Sans', 'Bitstream Vera Sans', sans-serif; text-anchor: end" x="53.593" y="224.536839" transform="rotate(-0 53.593 224.536839)">40</text>
     </g>
    </g>
    <g id="ytick_4">
     <g id="line2d_10">
      <g>
       <use xlink:href="#m4cdb8bdc87" x="63.093" y="177.529153" style="fill: #262626; stroke: #262626; stroke-width: 1.25"/>
      </g>
     </g>
     <g id="text_11">
      <text style="fill: #262626; font: 14.3px 'Arial', 'DejaVu Sans', 'Liberation Sans', 'Bitstream Vera Sans', sans-serif; text-anchor: end" x="53.593" y="182.962036" transform="rotate(-0 53.593 182.962036)">60</text>
     </g>
    </g>
    <g id="ytick_5">
     <g id="line2d_11">
      <g>
       <use xlink:href="#m4cdb8bdc87" x="63.093" y="135.95435" style="fill: #262626; stroke: #262626; stroke-width: 1.25"/>
      </g>
     </g>
     <g id="text_12">
      <text style="fill: #262626; font: 14.3px 'Arial', 'DejaVu Sans', 'Liberation Sans', 'Bitstream Vera Sans', sans-serif; text-anchor: end" x="53.593" y="141.387233" transform="rotate(-0 53.593 141.387233)">80</text>
     </g>
    </g>
    <g id="ytick_6">
     <g id="line2d_12">
      <g>
       <use xlink:href="#m4cdb8bdc87" x="63.093" y="94.379547" style="fill: #262626; stroke: #262626; stroke-width: 1.25"/>
      </g>
     </g>
     <g id="text_13">
      <text style="fill: #262626; font: 14.3px 'Arial', 'DejaVu Sans', 'Liberation Sans', 'Bitstream Vera Sans', sans-serif; text-anchor: end" x="53.593" y="99.81243" transform="rotate(-0 53.593 99.81243)">100</text>
     </g>
    </g>
    <g id="ytick_7">
     <g id="line2d_13">
      <g>
       <use xlink:href="#m4cdb8bdc87" x="63.093" y="52.804744" style="fill: #262626; stroke: #262626; stroke-width: 1.25"/>
      </g>
     </g>
     <g id="text_14">
      <text style="fill: #262626; font: 14.3px 'Arial', 'DejaVu Sans', 'Liberation Sans', 'Bitstream Vera Sans', sans-serif; text-anchor: end" x="53.593" y="58.237626" transform="rotate(-0 53.593 58.237626)">120</text>
     </g>
    </g>
    <g id="text_15">
     <text style="fill: #262626; font: 15.6px 'Arial', 'DejaVu Sans', 'Liberation Sans', 'Bitstream Vera Sans', sans-serif; text-anchor: middle" x="19.053562" y="163.653563" transform="rotate(-90 19.053562 163.653563)">Count</text>
    </g>
   </g>
   <g id="patch_3">
    <path d="M 75.774818 302.253562 
L 75.774818 302.253562 
L 88.456637 302.253562 
L 88.456637 302.253562 
L 101.138455 302.253562 
L 101.138455 302.253562 
L 113.820274 302.253562 
L 113.820274 302.253562 
L 126.502092 302.253562 
L 126.502092 302.253562 
L 139.183909 302.253562 
L 139.183909 302.253562 
L 151.86573 302.253562 
L 151.86573 302.253562 
L 164.547544 302.253562 
L 164.547544 302.253562 
L 177.229365 302.253562 
L 177.229365 302.253562 
L 189.911179 302.253562 
L 189.911179 302.253562 
L 202.593 302.253562 
L 202.593 302.253562 
L 215.274821 302.253562 
L 215.274821 296.017342 
L 227.956642 296.017342 
L 227.956642 298.096082 
L 240.638448 298.096082 
L 240.638448 296.017342 
L 253.32027 296.017342 
L 253.32027 279.387421 
L 266.002091 279.387421 
L 266.002091 264.83624 
L 278.683912 264.83624 
L 278.683912 233.655137 
L 291.365733 233.655137 
L 291.365733 194.159074 
L 304.047539 194.159074 
L 304.047539 123.481909 
L 316.729361 123.481909 
L 316.729361 115.166948 
L 329.411182 115.166948 
L 329.411182 302.253562 
" clip-path="url(#p9e36ca3bdf)" style="fill: none; stroke: #0173b2; stroke-width: 3; stroke-linejoin: miter"/>
   </g>
   <g id="patch_4">
    <path d="M 75.774818 302.253562 
L 75.774818 302.253562 
L 88.456637 302.253562 
L 88.456637 302.253562 
L 101.138455 302.253562 
L 101.138455 302.253562 
L 113.820274 302.253562 
L 113.820274 302.253562 
L 126.502092 302.253562 
L 126.502092 302.253562 
L 139.183909 302.253562 
L 139.183909 302.253562 
L 151.86573 302.253562 
L 151.86573 302.253562 
L 164.547544 302.253562 
L 164.547544 302.253562 
L 177.229365 302.253562 
L 177.229365 302.253562 
L 189.911179 302.253562 
L 189.911179 302.253562 
L 202.593 302.253562 
L 202.593 302.253562 
L 215.274821 302.253562 
L 215.274821 302.253562 
L 227.956642 302.253562 
L 227.956642 302.253562 
L 240.638448 302.253562 
L 240.638448 302.253562 
L 253.32027 302.253562 
L 253.32027 281.466161 
L 266.002091 281.466161 
L 266.002091 252.363799 
L 278.683912 252.363799 
L 278.683912 252.363799 
L 291.365733 252.363799 
L 291.365733 206.631515 
L 304.047539 206.631515 
L 304.047539 121.403169 
L 316.729361 121.403169 
L 316.729361 79.828366 
L 329.411182 79.828366 
L 329.411182 302.253562 
" clip-path="url(#p9e36ca3bdf)" style="fill: none; stroke: #029e73; stroke-width: 3; stroke-linejoin: miter"/>
   </g>
   <g id="patch_5">
    <path d="M 75.774818 302.253562 
L 75.774818 302.253562 
L 88.456637 302.253562 
L 88.456637 302.253562 
L 101.138455 302.253562 
L 101.138455 302.253562 
L 113.820274 302.253562 
L 113.820274 302.253562 
L 126.502092 302.253562 
L 126.502092 302.253562 
L 139.183909 302.253562 
L 139.183909 302.253562 
L 151.86573 302.253562 
L 151.86573 302.253562 
L 164.547544 302.253562 
L 164.547544 302.253562 
L 177.229365 302.253562 
L 177.229365 302.253562 
L 189.911179 302.253562 
L 189.911179 302.253562 
L 202.593 302.253562 
L 202.593 302.253562 
L 215.274821 302.253562 
L 215.274821 302.253562 
L 227.956642 302.253562 
L 227.956642 302.253562 
L 240.638448 302.253562 
L 240.638448 302.253562 
L 253.32027 302.253562 
L 253.32027 271.07246 
L 266.002091 271.07246 
L 266.002091 275.22994 
L 278.683912 275.22994 
L 278.683912 260.678759 
L 291.365733 260.678759 
L 291.365733 219.103956 
L 304.047539 219.103956 
L 304.047539 129.718129 
L 316.729361 129.718129 
L 316.729361 38.253562 
L 329.411182 38.253562 
L 329.411182 302.253562 
" clip-path="url(#p9e36ca3bdf)" style="fill: none; stroke: #de8f05; stroke-width: 3; stroke-linejoin: miter"/>
   </g>
   <g id="patch_6">
    <path d="M 63.093 302.253562 
L 63.093 25.053562 
" style="fill: none; stroke: #262626; stroke-width: 1.25; stroke-linejoin: miter; stroke-linecap: square"/>
   </g>
   <g id="patch_7">
    <path d="M 342.093 302.253562 
L 342.093 25.053562 
" style="fill: none; stroke: #262626; stroke-width: 1.25; stroke-linejoin: miter; stroke-linecap: square"/>
   </g>
   <g id="patch_8">
    <path d="M 63.093 302.253562 
L 342.093 302.253562 
" style="fill: none; stroke: #262626; stroke-width: 1.25; stroke-linejoin: miter; stroke-linecap: square"/>
   </g>
   <g id="patch_9">
    <path d="M 63.093 25.053562 
L 342.093 25.053562 
" style="fill: none; stroke: #262626; stroke-width: 1.25; stroke-linejoin: miter; stroke-linecap: square"/>
   </g>
   <g id="text_16">
    <text style="fill: #262626; font: 15.6px 'Arial', 'DejaVu Sans', 'Liberation Sans', 'Bitstream Vera Sans', sans-serif; text-anchor: middle" x="202.593" y="19.053562" transform="rotate(-0 202.593 19.053562)">Southern California</text>
   </g>
   <g id="legend_1">
    <g id="patch_10">
     <path d="M 73.103 99.462719 
L 290.174766 99.462719 
Q 293.034766 99.462719 293.034766 96.602719 
L 293.034766 35.063562 
Q 293.034766 32.203562 290.174766 32.203562 
L 73.103 32.203562 
Q 70.243 32.203562 70.243 35.063562 
L 70.243 96.602719 
Q 70.243 99.462719 73.103 99.462719 
z
" style="fill: #ffffff; opacity: 0.8; stroke: #cccccc; stroke-linejoin: miter"/>
    </g>
    <g id="patch_11">
     <path d="M 75.963 48.789328 
L 104.563 48.789328 
L 104.563 38.779328 
L 75.963 38.779328 
L 75.963 48.789328 
z
" style="fill: none; stroke: #0173b2; stroke-width: 3; stroke-linejoin: miter"/>
    </g>
    <g id="text_17">
     <text style="fill: #262626; font: 14.3px 'Arial', 'DejaVu Sans', 'Liberation Sans', 'Bitstream Vera Sans', sans-serif; text-anchor: start" x="116.003" y="48.789328" transform="rotate(-0 116.003 48.789328)">Linear</text>
    </g>
    <g id="patch_12">
     <path d="M 75.963 69.779047 
L 104.563 69.779047 
L 104.563 59.769047 
L 75.963 59.769047 
L 75.963 69.779047 
z
" style="fill: none; stroke: #029e73; stroke-width: 3; stroke-linejoin: miter"/>
    </g>
    <g id="text_18">
     <text style="fill: #262626; font: 14.3px 'Arial', 'DejaVu Sans', 'Liberation Sans', 'Bitstream Vera Sans', sans-serif; text-anchor: start" x="116.003" y="69.779047" transform="rotate(-0 116.003 69.779047)">Iterative constant shear</text>
    </g>
    <g id="patch_13">
     <path d="M 75.963 90.768766 
L 104.563 90.768766 
L 104.563 80.758766 
L 75.963 80.758766 
L 75.963 90.768766 
z
" style="fill: none; stroke: #de8f05; stroke-width: 3; stroke-linejoin: miter"/>
    </g>
    <g id="text_19">
     <text style="fill: #262626; font: 14.3px 'Arial', 'DejaVu Sans', 'Liberation Sans', 'Bitstream Vera Sans', sans-serif; text-anchor: start" x="116.003" y="90.768766" transform="rotate(-0 116.003 90.768766)">Iterative variable shear</text>
    </g>
   </g>
  </g>
 </g>
 <defs>
  <clipPath id="p9e36ca3bdf">
   <rect x="63.093" y="25.053562" width="279" height="277.2"/>
  </clipPath>
 </defs>
</svg>
