<?xml version="1.0" encoding="utf-8" standalone="no"?>
<!DOCTYPE svg PUBLIC "-//W3C//DTD SVG 1.1//EN"
  "http://www.w3.org/Graphics/SVG/1.1/DTD/svg11.dtd">
<svg xmlns:xlink="http://www.w3.org/1999/xlink" width="823.815211pt" height="390.416018pt" viewBox="0 0 823.815211 390.416018" xmlns="http://www.w3.org/2000/svg" version="1.1">
 <metadata>
  <rdf:RDF xmlns:dc="http://purl.org/dc/elements/1.1/" xmlns:cc="http://creativecommons.org/ns#" xmlns:rdf="http://www.w3.org/1999/02/22-rdf-syntax-ns#">
   <cc:Work>
    <dc:type rdf:resource="http://purl.org/dc/dcmitype/StillImage"/>
    <dc:date>2023-01-31T16:59:50.720122</dc:date>
    <dc:format>image/svg+xml</dc:format>
    <dc:creator>
     <cc:Agent>
      <dc:title>Matplotlib v3.6.1, https://matplotlib.org/</dc:title>
     </cc:Agent>
    </dc:creator>
   </cc:Work>
  </rdf:RDF>
 </metadata>
 <defs>
  <style type="text/css">*{stroke-linejoin: round; stroke-linecap: butt}</style>
 </defs>
 <g id="figure_1">
  <g id="patch_1">
   <path d="M 0 390.416018 
L 823.815211 390.416018 
L 823.815211 0 
L 0 0 
z
" style="fill: #ffffff"/>
  </g>
  <g id="axes_1">
   <g id="matplotlib.axis_1">
    <g id="xtick_1">
     <g id="text_1">
      <text style="fill: #262626; font: 14.3px 'Arial', 'DejaVu Sans', 'Liberation Sans', 'Bitstream Vera Sans', sans-serif; text-anchor: middle" x="131.355263" y="75.620326" transform="rotate(-0 131.355263 75.620326)">0°</text>
     </g>
    </g>
    <g id="xtick_2">
     <g id="text_2">
      <text style="fill: #262626; font: 14.3px 'Arial', 'DejaVu Sans', 'Liberation Sans', 'Bitstream Vera Sans', sans-serif; text-anchor: middle" x="189.445946" y="99.682274" transform="rotate(-0 189.445946 99.682274)">45°</text>
     </g>
    </g>
    <g id="xtick_3">
     <g id="text_3">
      <text style="fill: #262626; font: 14.3px 'Arial', 'DejaVu Sans', 'Liberation Sans', 'Bitstream Vera Sans', sans-serif; text-anchor: middle" x="213.507895" y="157.772957" transform="rotate(-0 213.507895 157.772957)">90°</text>
     </g>
    </g>
    <g id="xtick_4">
     <g id="text_4">
      <text style="fill: #262626; font: 14.3px 'Arial', 'DejaVu Sans', 'Liberation Sans', 'Bitstream Vera Sans', sans-serif; text-anchor: middle" x="189.445946" y="215.86364" transform="rotate(-0 189.445946 215.86364)">135°</text>
     </g>
    </g>
    <g id="xtick_5">
     <g id="text_5">
      <text style="fill: #262626; font: 14.3px 'Arial', 'DejaVu Sans', 'Liberation Sans', 'Bitstream Vera Sans', sans-serif; text-anchor: middle" x="131.355263" y="239.925589" transform="rotate(-0 131.355263 239.925589)">180°</text>
     </g>
    </g>
    <g id="xtick_6">
     <g id="text_6">
      <text style="fill: #262626; font: 14.3px 'Arial', 'DejaVu Sans', 'Liberation Sans', 'Bitstream Vera Sans', sans-serif; text-anchor: middle" x="73.26458" y="215.86364" transform="rotate(-0 73.26458 215.86364)">225°</text>
     </g>
    </g>
    <g id="xtick_7">
     <g id="text_7">
      <text style="fill: #262626; font: 14.3px 'Arial', 'DejaVu Sans', 'Liberation Sans', 'Bitstream Vera Sans', sans-serif; text-anchor: middle" x="49.202632" y="157.772957" transform="rotate(-0 49.202632 157.772957)">270°</text>
     </g>
    </g>
    <g id="xtick_8">
     <g id="text_8">
      <text style="fill: #262626; font: 14.3px 'Arial', 'DejaVu Sans', 'Liberation Sans', 'Bitstream Vera Sans', sans-serif; text-anchor: middle" x="73.26458" y="99.682274" transform="rotate(-0 73.26458 99.682274)">315°</text>
     </g>
    </g>
   </g>
   <g id="matplotlib.axis_2"/>
  </g>
  <g id="axes_2">
   <g id="patch_2">
    <path d="M 131.355263 219.479683 
C 148.766545 219.479683 165.467049 212.562107 177.778684 200.250472 
C 190.090319 187.938837 197.007895 171.238332 197.007895 153.827051 
C 197.007895 136.41577 190.090319 119.715265 177.778684 107.40363 
C 165.467049 95.091995 148.766545 88.174419 131.355263 88.174419 
C 113.943982 88.174419 97.243477 95.091995 84.931842 107.40363 
C 72.620207 119.715265 65.702632 136.41577 65.702632 153.827051 
C 65.702632 171.238332 72.620207 187.938837 84.931842 200.250472 
C 97.243477 212.562107 113.943982 219.479683 131.355263 219.479683 
z
" style="fill: #ffffff"/>
   </g>
   <g id="matplotlib.axis_3">
    <g id="xtick_9"/>
    <g id="xtick_10"/>
    <g id="xtick_11"/>
    <g id="xtick_12"/>
    <g id="xtick_13"/>
    <g id="xtick_14"/>
    <g id="xtick_15"/>
    <g id="xtick_16"/>
    <g id="xtick_17"/>
    <g id="xtick_18"/>
    <g id="xtick_19"/>
    <g id="xtick_20"/>
   </g>
   <g id="matplotlib.axis_4">
    <g id="ytick_1"/>
    <g id="ytick_2"/>
    <g id="ytick_3"/>
    <g id="ytick_4"/>
    <g id="ytick_5"/>
    <g id="ytick_6"/>
    <g id="ytick_7"/>
    <g id="ytick_8"/>
    <g id="ytick_9"/>
    <g id="ytick_10"/>
    <g id="ytick_11"/>
   </g>
   <g id="PathCollection_1">
    <path d="M 110.837354 174.284254 
L 110.666928 173.556565 
L 110.539939 172.825109 
L 110.453668 172.090325 
L 110.407759 171.352522 
L 110.404073 170.794481 
L 110.397484 170.612218 
L 110.401027 169.87064 
L 110.442217 169.126914 
L 110.528002 168.381055 
L 110.668543 167.633027 
L 110.707867 167.470433 
L 110.811789 166.885013 
L 111.000374 166.135685 
L 111.221387 165.498379 
L 111.253507 165.384811 
L 111.506243 164.634593 
L 111.80516 163.980859 
L 111.844563 163.882913 
L 112.19271 163.132029 
L 112.427893 162.722955 
L 112.612628 162.380756 
L 113.077427 161.671473 
L 113.104432 161.629544 
L 113.637379 160.879286 
L 113.744055 160.744337 
L 114.250314 160.129669 
L 114.424093 159.934445 
L 114.959927 159.38092 
L 115.114353 159.226752 
L 115.788825 158.6333 
L 115.81256 158.612245 
L 116.51612 158.044161 
L 116.751821 157.887228 
L 117.224687 157.549229 
L 117.93763 157.149269 
L 117.95135 157.142668 
L 118.652882 156.757751 
L 119.37122 156.467128 
L 119.583364 156.399785 
L 120.091276 156.204782 
L 120.813074 156.003406 
L 121.536353 155.870775 
L 122.260796 155.798325 
L 122.986206 155.782973 
L 123.712454 155.826637 
L 124.439464 155.936512 
L 125.1672 156.126152 
L 125.819513 156.383545 
L 125.89563 156.410414 
L 126.624442 156.749844 
L 127.184061 157.11117 
L 127.35384 157.219923 
L 128.083528 157.810993 
L 128.113553 157.838955 
L 128.813265 158.557332 
L 128.821437 158.56668 
L 129.395074 159.294246 
L 129.542648 159.524711 
L 129.858771 160.021608 
L 130.214691 160.748718 
L 130.27098 160.890452 
L 130.525785 161.475467 
L 130.760453 162.201828 
L 130.925576 162.927732 
L 130.996466 163.37611 
L 131.050882 163.653105 
L 131.14355 164.377891 
L 131.188083 165.102042 
L 131.189887 165.825509 
L 131.151452 166.548246 
L 131.072576 167.27022 
L 131.002962 167.689278 
L 130.965809 167.991397 
L 130.845557 168.71174 
L 130.685357 169.431254 
L 130.47556 170.149961 
L 130.315691 170.591394 
L 130.235041 170.867861 
L 129.983066 171.584922 
L 129.653939 172.301402 
L 129.642675 172.323642 
L 129.338469 173.017049 
L 128.981149 173.650089 
L 128.939204 173.732402 
L 128.531314 174.447216 
L 128.329637 174.749359 
L 128.0665 175.161984 
L 127.6866 175.680922 
L 127.543757 175.877032 
L 127.051159 176.492315 
L 126.967926 176.592694 
L 126.422813 177.216531 
L 126.335323 177.309477 
L 125.800973 177.87051 
L 125.632805 178.028191 
L 125.184717 178.459817 
L 124.834008 178.750222 
L 124.572544 178.980969 
L 123.963118 179.435205 
L 123.897537 179.477937 
L 123.359348 179.872513 
L 122.753829 180.215697 
L 122.75355 180.215881 
L 122.153571 180.561855 
L 121.550057 180.826392 
L 121.097477 180.979406 
L 120.945078 181.042868 
L 120.340572 181.235109 
L 119.731089 181.3676 
L 119.116013 181.445763 
L 118.494186 181.470093 
L 117.863746 181.436202 
L 117.22187 181.334185 
L 116.710858 181.192877 
L 116.566271 181.158 
L 115.898623 180.9239 
L 115.215781 180.567482 
L 115.205548 180.5622 
L 114.492116 180.107742 
L 114.240678 179.909732 
L 113.743004 179.480656 
L 113.492113 179.23542 
L 112.945632 178.613584 
L 112.891824 178.549049 
L 112.376649 177.854661 
L 112.071585 177.339275 
L 111.957362 177.151696 
L 111.5862 176.443398 
L 111.2882 175.72844 
L 111.047778 175.008093 
L 110.98013 174.762221 
L 110.837354 174.284254 
z
" clip-path="url(#pbbb4f0e2e5)" style="fill: none; stroke: #0173b2; stroke-width: 0.75"/>
   </g>
   <g id="PathCollection_2">
    <path d="M 143.02124 112.776706 
L 142.705451 112.131914 
L 142.433577 111.485895 
L 142.198146 110.839262 
L 141.994718 110.192325 
L 141.821227 109.545149 
L 141.677597 108.897568 
L 141.565576 108.249177 
L 141.538064 108.025655 
L 141.471681 107.601164 
L 141.401399 106.952698 
L 141.371295 106.369948 
L 141.365339 106.302194 
L 141.334387 105.652702 
L 141.336855 105.242253 
L 141.330608 105.001181 
L 141.345089 104.348206 
L 141.345797 104.332811 
L 141.361647 103.69552 
L 141.370307 103.544378 
L 141.394059 103.040721 
L 141.407277 102.852113 
L 141.442613 102.383016 
L 141.455158 102.239224 
L 141.513759 101.720375 
L 141.516143 101.698882 
L 141.579792 101.203647 
L 141.608895 101.051165 
L 141.655836 100.764099 
L 141.752996 100.387249 
L 141.759058 100.367424 
L 141.841877 100.021539 
L 141.95638 99.714985 
L 141.979884 99.661784 
L 142.061154 99.411998 
L 142.179015 99.142957 
L 142.305773 98.919392 
L 142.311121 98.905944 
L 142.420924 98.652237 
L 142.543779 98.426249 
L 142.677089 98.22237 
L 142.748794 98.124303 
L 142.802162 98.01748 
L 142.919264 97.812034 
L 143.046538 97.625407 
L 143.183306 97.455301 
L 143.329107 97.299881 
L 143.413385 97.221282 
L 143.472139 97.146452 
L 143.61357 96.995961 
L 143.767509 96.861207 
L 143.933717 96.740764 
L 144.112028 96.633408 
L 144.302442 96.538179 
L 144.505066 96.454296 
L 144.720249 96.381249 
L 144.948599 96.318789 
L 145.191103 96.266994 
L 145.449209 96.226305 
L 145.724872 96.197536 
L 146.018372 96.181972 
L 146.020406 96.181734 
L 146.308694 96.158225 
L 146.617182 96.147206 
L 146.948921 96.150223 
L 147.307144 96.168911 
L 147.651263 96.199924 
L 147.69044 96.201639 
L 148.065359 96.224835 
L 148.471915 96.266049 
L 148.915136 96.328104 
L 148.996382 96.340568 
L 149.361516 96.388001 
L 149.847065 96.469749 
L 150.213506 96.544025 
L 150.377013 96.576414 
L 150.947206 96.704976 
L 151.331436 96.805776 
L 151.59197 96.878017 
L 152.328481 97.107143 
L 152.370044 97.120831 
L 153.200612 97.422687 
L 153.349483 97.479924 
L 154.276497 97.880515 
L 154.30915 97.896307 
L 155.163318 98.314894 
L 156.004434 98.786913 
L 156.01227 98.791725 
L 156.814778 99.285674 
L 157.588209 99.814629 
L 158.327744 100.370652 
L 159.034831 100.951599 
L 159.709306 101.556325 
L 160.306022 102.141403 
L 160.349922 102.184277 
L 160.965957 102.828531 
L 161.542907 103.496535 
L 161.951167 104.02598 
L 162.077294 104.188522 
L 162.574323 104.899813 
L 162.84561 105.352534 
L 163.015028 105.638607 
L 163.392343 106.405683 
L 163.396004 106.414342 
L 163.705059 107.198491 
L 163.74119 107.314171 
L 163.931699 108.023463 
L 163.947811 108.10247 
L 164.05872 108.814465 
L 164.065643 108.878862 
L 164.106143 109.479948 
L 164.105144 109.76055 
L 164.097041 110.101912 
L 164.036903 110.668724 
L 164.035618 110.68078 
L 163.959735 111.263195 
L 163.887545 111.588842 
L 163.842357 111.811252 
L 163.698715 112.343291 
L 163.63716 112.524206 
L 163.533802 112.86494 
L 163.332874 113.352414 
L 163.273388 113.47432 
L 163.118169 113.837437 
L 162.865613 114.280601 
L 162.750809 114.446965 
L 162.594288 114.7099 
L 162.296043 115.110104 
L 161.958917 115.457737 
L 161.952041 115.464018 
L 161.621045 115.817211 
L 161.249866 116.12933 
L 160.851009 116.401109 
L 160.526184 116.587379 
L 160.434384 116.648778 
L 160.012158 116.894711 
L 159.57061 117.111036 
L 159.113346 117.303173 
L 158.643211 117.475508 
L 158.162349 117.631373 
L 157.672367 117.773241 
L 157.174425 117.902827 
L 156.669327 118.021188 
L 156.157611 118.128862 
L 155.639634 118.226006 
L 155.115595 118.312405 
L 154.585539 118.387441 
L 154.04936 118.450059 
L 153.506741 118.498542 
L 152.957142 118.530412 
L 152.399738 118.54218 
L 151.83344 118.529276 
L 151.256874 118.485896 
L 150.668431 118.405029 
L 150.086032 118.283027 
L 150.066692 118.279645 
L 149.46357 118.143554 
L 148.844474 117.949507 
L 148.379039 117.763428 
L 148.211347 117.699697 
L 147.570167 117.409945 
L 147.164061 117.187232 
L 146.911582 117.045776 
L 146.234711 116.599166 
L 146.214095 116.584361 
L 145.536615 116.054569 
L 145.434214 115.966517 
L 144.800958 115.348632 
L 144.790617 115.337998 
L 144.237589 114.703648 
L 144.001051 114.379685 
L 143.770029 114.064176 
L 143.365269 113.421795 
L 143.044193 112.818223 
L 143.02124 112.776706 
z
" clip-path="url(#pbbb4f0e2e5)" style="fill: none; stroke-dasharray: 2.775,1.2; stroke-dashoffset: 0; stroke: #0173b2; stroke-width: 0.75"/>
   </g>
   <g id="PathCollection_3">
    <path d="M 76.92235 117.506721 
L 77.166436 117.921908 
L 77.290891 118.534298 
L 77.29238 118.882203 
L 77.261916 119.414076 
L 77.17325 119.970063 
L 76.989794 120.744861 
L 76.927851 120.972131 
L 76.604897 121.925457 
L 76.229402 122.848471 
L 75.80843 123.748329 
L 75.344779 124.629204 
L 74.837286 125.493005 
L 74.280692 126.339702 
L 73.771763 127.026049 
L 73.662773 127.166451 
L 72.954804 127.96413 
L 72.746088 128.171503 
L 72.087386 128.708202 
L 71.957799 128.802139 
L 71.310732 129.108323 
L 70.770307 129.161743 
" clip-path="url(#pbbb4f0e2e5)" style="fill: none; stroke-dasharray: 4.8,1.2,0.75,1.2; stroke-dashoffset: 0; stroke: #0173b2; stroke-width: 0.75"/>
    <path d="M 181.546388 195.840863 
L 181.258086 195.565193 
L 180.985405 195.265932 
L 180.730517 194.939402 
L 180.497227 194.579569 
L 180.291333 194.177335 
L 180.127877 193.739392 
L 180.119005 193.722299 
L 179.932328 193.275483 
L 179.789763 192.757433 
L 179.726558 192.358786 
L 179.680293 192.178693 
L 179.58247 191.565563 
L 179.558696 191.175959 
L 179.523215 190.875394 
L 179.50573 190.096334 
L 179.505786 190.08929 
L 179.496278 189.273163 
L 179.504364 189.052356 
L 179.531707 188.340543 
L 179.549355 188.054852 
L 179.612765 187.284025 
L 179.629334 187.086248 
L 179.737127 186.139739 
L 179.746387 186.074136 
L 179.849053 185.203941 
L 179.941654 184.669206 
L 179.993727 184.287179 
L 180.153886 183.381416 
L 180.258959 182.90658 
L 180.331569 182.485882 
L 180.519152 181.597036 
L 180.742429 180.721241 
L 180.850395 180.341833 
L 180.967865 179.847792 
L 181.205218 178.978804 
L 181.468215 178.116985 
L 181.753486 177.260498 
L 182.060216 176.408298 
L 182.390098 175.559977 
L 182.747604 174.715698 
L 183.140628 173.87621 
L 183.307637 173.55344 
L 183.549906 173.036776 
L 183.987348 172.199101 
L 184.49184 171.369391 
L 184.515765 171.332986 
L 185.007435 170.536392 
L 185.451137 169.92509 
L 185.603364 169.711203 
L 186.269473 168.890919 
L 186.269845 168.890477 
L 187.019313 168.074569 
L 187.0232 168.070581 
L 187.733667 167.398535 
L 187.898443 167.268683 
L 188.409101 166.855116 
L 189.012316 166.485699 
L 189.048434 166.461292 
L 189.675321 166.104825 
L 190.2734 165.877331 
L 190.712042 165.773422 
L 190.85317 165.727823 
L 191.422281 165.616455 
L 191.9735 165.583878 
L 192.509477 165.615602 
L 193.032155 165.700067 
L 193.543343 165.826046 
L 194.045211 165.980444 
L 194.540635 166.146935 
L 195.033173 166.306535 
L 195.526428 166.441045 
" clip-path="url(#pbbb4f0e2e5)" style="fill: none; stroke-dasharray: 4.8,1.2,0.75,1.2; stroke-dashoffset: 0; stroke: #0173b2; stroke-width: 0.75"/>
   </g>
   <g id="PathCollection_4">
    <path d="M 111.459575 174.249415 
L 111.149874 173.530343 
L 110.900888 172.806185 
L 110.701627 172.07782 
L 110.544667 171.345906 
L 110.425259 170.610937 
L 110.340765 169.873287 
L 110.29036 169.133239 
L 110.274915 168.391008 
L 110.297088 167.646751 
L 110.361611 166.900579 
L 110.475829 166.152564 
L 110.551833 165.796628 
L 110.612578 165.40389 
L 110.771411 164.654737 
L 110.997146 163.904115 
L 111.083197 163.66787 
L 111.237247 163.153716 
L 111.530825 162.40281 
L 111.686421 162.074725 
L 111.863 161.652028 
L 112.259124 160.901188 
L 112.327644 160.785735 
L 112.681 160.151231 
L 112.992069 159.691113 
L 113.184238 159.401596 
L 113.673094 158.765777 
L 113.762336 158.6528 
L 114.365394 157.962542 
L 114.419277 157.905181 
L 115.065818 157.253937 
L 115.171878 157.158981 
L 115.772377 156.626532 
L 116.053842 156.414423 
L 116.483723 156.079002 
L 117.125175 155.67179 
L 117.198859 155.621172 
L 117.916417 155.185588 
L 118.460018 154.931559 
L 118.636328 154.836623 
L 119.357788 154.510097 
L 120.080665 154.266019 
L 120.353998 154.194246 
L 120.80454 154.046899 
L 121.529267 153.873432 
L 122.254688 153.759859 
L 122.980684 153.700466 
L 123.70718 153.694377 
L 124.434132 153.745363 
L 125.16152 153.862279 
L 125.889347 154.060178 
L 126.230796 154.192215 
L 126.617616 154.32867 
L 127.346331 154.687756 
L 127.70707 154.921697 
L 128.075488 155.163963 
L 128.656318 155.650749 
L 128.805028 155.786407 
L 129.362368 156.379579 
L 129.534766 156.594205 
L 129.918033 157.10824 
L 130.264308 157.692848 
L 130.349483 157.836736 
L 130.717544 158.565018 
L 130.988544 159.293062 
L 130.992563 159.305958 
L 131.244376 160.0208 
L 131.435628 160.748193 
L 131.575375 161.47518 
L 131.673153 162.201704 
L 131.714876 162.68352 
L 131.7423 162.927714 
L 131.782604 163.653157 
L 131.780067 164.377976 
L 131.73297 165.10212 
L 131.711513 165.268325 
L 131.657365 165.825555 
L 131.547713 166.548243 
L 131.391005 167.270156 
L 131.17683 167.991294 
L 131.004355 168.445079 
L 130.92201 168.711675 
L 130.650113 169.4313 
L 130.312634 170.118493 
L 130.299341 170.150306 
L 129.961272 170.86859 
L 129.632077 171.427238 
L 129.548447 171.586458 
L 129.11983 172.30385 
L 128.961402 172.537334 
L 128.654118 173.020981 
L 128.299632 173.505991 
L 128.134615 173.738175 
L 127.645702 174.357034 
L 127.566864 174.455692 
L 126.998978 175.118237 
L 126.948735 175.173912 
L 126.35888 175.806583 
L 126.270211 175.893415 
L 125.724712 176.43054 
L 125.511344 176.615155 
L 125.095468 176.991211 
L 124.639159 177.34074 
L 124.469527 177.481477 
L 123.847662 177.930656 
L 123.611331 178.072742 
L 123.228816 178.335355 
L 122.610449 178.677382 
L 122.293202 178.817788 
L 121.993105 178.976324 
L 121.375937 179.233029 
L 120.755029 179.421055 
L 120.130208 179.551646 
L 119.515435 179.629039 
L 119.501054 179.631245 
L 118.866695 179.661322 
L 118.829797 179.659246 
L 118.225587 179.637976 
L 117.576015 179.55642 
L 116.914869 179.402917 
L 116.237751 179.156553 
L 116.078522 179.081668 
L 115.548016 178.845593 
L 114.870544 178.42891 
L 114.834601 178.406477 
L 114.098876 177.8526 
L 113.98916 177.756248 
L 113.327819 177.106793 
L 113.294018 177.070566 
L 112.709389 176.376026 
L 112.50896 176.088581 
L 112.219199 175.673602 
L 111.808884 174.9643 
L 111.604148 174.533356 
L 111.459575 174.249415 
z
" clip-path="url(#pbbb4f0e2e5)" style="fill: none; stroke: #029e73; stroke-width: 0.75"/>
   </g>
   <g id="PathCollection_5">
    <path d="M 142.382255 108.158111 
L 142.067919 107.533289 
L 141.788882 106.9075 
L 141.541496 106.28105 
L 141.324328 105.653948 
L 141.138016 105.025898 
L 140.985357 104.396248 
L 140.984645 104.392506 
L 140.858819 103.765608 
L 140.776874 103.13097 
L 140.770985 103.050377 
L 140.741561 102.491159 
L 140.746018 102.239637 
L 140.776374 101.841303 
L 140.800671 101.656185 
L 140.904093 101.209239 
L 140.915887 101.173249 
L 141.031282 100.836546 
L 141.180395 100.525759 
L 141.208186 100.473341 
L 141.327145 100.230542 
L 141.474006 99.9531 
L 141.583724 99.746046 
L 141.613389 99.680336 
L 141.728728 99.388283 
L 141.839645 99.106234 
L 141.869196 99.022741 
L 141.925927 98.806624 
L 142.004439 98.513063 
L 142.065299 98.305931 
L 142.079365 98.230286 
L 142.1343 97.938035 
L 142.201474 97.674248 
L 142.228143 97.582788 
L 142.255599 97.408449 
L 142.310067 97.155277 
L 142.380361 96.929597 
L 142.418233 96.832691 
L 142.445414 96.708002 
L 142.510215 96.495059 
L 142.590953 96.305236 
L 142.684559 96.133816 
L 142.773981 95.995726 
L 142.783718 95.97285 
L 142.864526 95.801011 
L 142.948677 95.637334 
L 143.032598 95.47831 
L 143.114398 95.322116 
L 143.194074 95.168567 
L 143.259888 95.043369 
L 143.268099 95.014858 
L 143.320142 94.849167 
L 143.381392 94.694572 
L 143.456361 94.553372 
L 143.549166 94.427352 
L 143.663828 94.318057 
L 143.80433 94.226868 
L 143.974959 94.155257 
L 144.18025 94.104764 
L 144.424791 94.076913 
L 144.712614 94.07288 
L 145.045839 94.092773 
L 145.053249 94.093447 
L 145.380956 94.110291 
L 145.749531 94.143595 
L 146.14438 94.188027 
L 146.334118 94.208473 
L 146.530852 94.223703 
L 146.902906 94.247496 
L 147.272842 94.266517 
L 147.63753 94.279171 
L 147.645793 94.279225 
L 147.978052 94.275424 
L 148.333768 94.276739 
L 148.724305 94.293254 
L 148.967096 94.314834 
L 149.169577 94.334951 
L 149.708491 94.421636 
L 150.087056 94.505332 
L 150.403612 94.585816 
L 151.097876 94.794564 
L 151.363767 94.886537 
L 152.050921 95.142214 
L 152.931119 95.519292 
L 152.963407 95.533551 
L 153.8464 95.958034 
L 154.701613 96.413298 
L 155.532401 96.895263 
L 156.341028 97.400841 
L 157.12881 97.927846 
L 157.896132 98.474947 
L 158.64272 99.041381 
L 159.211952 99.499116 
L 159.369401 99.625526 
L 160.081817 100.222248 
L 160.773436 100.835843 
L 161.443 101.466317 
L 161.88201 101.901733 
L 162.09385 102.110456 
L 162.731789 102.763757 
L 163.345927 103.43293 
L 163.833807 103.998359 
L 163.936704 104.116772 
L 164.514996 104.807913 
L 165.061796 105.517181 
L 165.322692 105.879435 
L 165.584257 106.239298 
L 166.079562 106.974968 
L 166.404618 107.510824 
L 166.538435 107.728058 
L 166.972917 108.491126 
L 167.214323 108.968255 
L 167.370812 109.26933 
L 167.741488 110.057021 
L 167.860022 110.335826 
L 168.088321 110.851951 
L 168.395674 111.658129 
L 168.396376 111.659905 
L 168.697069 112.466838 
L 168.852463 112.963391 
L 168.955676 113.286622 
L 169.175414 114.11668 
L 169.191322 114.186656 
L 169.357565 114.9554 
L 169.411447 115.30824 
L 169.471827 115.812014 
L 169.499989 116.288188 
L 169.498069 116.69052 
L 169.472609 117.13012 
L 169.394585 117.600134 
L 169.345057 117.84238 
L 169.133782 118.438985 
L 169.067014 118.561938 
L 168.859157 118.945398 
L 168.521124 119.353394 
L 168.14647 119.659588 
L 168.129565 119.674248 
L 167.707396 119.946796 
L 167.247931 120.154765 
L 166.75937 120.311162 
L 166.248164 120.426646 
L 165.719329 120.509766 
L 165.17663 120.567045 
L 164.622579 120.60276 
L 164.058515 120.618915 
L 163.924558 120.618818 
L 163.492213 120.631748 
L 162.919033 120.630773 
L 162.334893 120.606205 
L 161.737238 120.551251 
L 161.122966 120.45759 
L 160.890984 120.409713 
L 160.502135 120.347189 
L 159.870368 120.209075 
L 159.21865 120.020852 
L 159.04114 119.961895 
L 158.567875 119.83085 
L 157.909184 119.617387 
L 157.476626 119.461164 
L 157.247587 119.391733 
L 156.595782 119.184436 
L 155.937162 118.954515 
L 155.936061 118.954136 
L 155.29939 118.770402 
L 154.656225 118.566713 
L 154.323855 118.454878 
L 154.016712 118.365745 
L 153.378826 118.16203 
L 152.793128 117.940183 
L 152.728481 117.917836 
L 152.079376 117.667944 
L 151.498155 117.391175 
L 151.408754 117.349838 
L 150.72845 116.99302 
L 150.431943 116.81244 
L 150.025421 116.559307 
L 149.533538 116.214121 
L 149.29771 116.040168 
L 148.748143 115.604225 
L 148.545016 115.431735 
L 148.038833 114.987828 
L 147.767191 114.730764 
L 147.382501 114.367994 
L 146.968297 113.946085 
L 146.766371 113.746394 
L 146.180284 113.12432 
L 146.156299 113.09773 
L 145.595659 112.505192 
L 145.343227 112.217189 
L 145.038145 111.885995 
L 144.517038 111.267721 
L 144.515427 111.265889 
L 144.002555 110.647817 
L 143.650442 110.169459 
L 143.542311 110.026876 
L 143.111886 109.405742 
L 142.732112 108.78203 
L 142.620308 108.578468 
L 142.382255 108.158111 
z
" clip-path="url(#pbbb4f0e2e5)" style="fill: none; stroke-dasharray: 2.775,1.2; stroke-dashoffset: 0; stroke: #029e73; stroke-width: 0.75"/>
   </g>
   <g id="PathCollection_6">
    <path d="M 83.463763 109.196273 
L 83.685814 109.515605 
L 83.830833 109.864827 
L 83.849391 109.904796 
L 83.958609 110.362795 
L 83.976943 110.936162 
L 83.942381 111.233224 
L 83.888069 111.653057 
L 83.727704 112.300119 
L 83.646872 112.582765 
L 83.406032 113.270767 
L 83.167291 113.863004 
L 83.027189 114.191677 
L 82.611493 115.082047 
L 82.165603 115.949823 
L 82.15968 115.960665 
L 81.707801 116.807835 
L 81.233126 117.654958 
L 80.746016 118.494934 
L 80.249678 119.330428 
L 79.745957 120.163145 
L 79.235329 120.99398 
L 78.716878 121.823126 
L 78.188224 122.650151 
L 77.645371 123.47402 
L 77.513368 123.666522 
L 77.097306 124.299129 
L 76.531946 125.121085 
L 75.935404 125.935279 
L 75.7626 126.158442 
L 75.314774 126.7455 
L 74.646749 127.543975 
L 74.567292 127.633531 
L 73.922392 128.328769 
L 73.608053 128.639277 
L 73.097684 129.085392 
L 72.793676 129.335101 
L 72.090287 129.7858 
L 72.085564 129.788776 
L 71.446127 130.081887 
L 70.881085 130.193269 
L 70.376969 130.155177 
" clip-path="url(#pbbb4f0e2e5)" style="fill: none; stroke-dasharray: 4.8,1.2,0.75,1.2; stroke-dashoffset: 0; stroke: #029e73; stroke-width: 0.75"/>
    <path d="M 176.907475 200.855884 
L 176.723533 200.530594 
L 176.60769 200.132191 
L 176.57871 199.822758 
L 176.549469 199.667415 
L 176.527383 199.154637 
L 176.585239 198.543339 
L 176.588346 198.523621 
L 176.646746 197.910301 
L 176.738606 197.399161 
L 176.764094 197.194305 
L 176.899985 196.431916 
L 176.919736 196.335367 
L 177.031163 195.64744 
L 177.099257 195.300172 
L 177.177192 194.814451 
L 177.275729 194.287749 
L 177.332506 193.935652 
L 177.44908 193.294356 
L 177.497346 193.006267 
L 177.62182 192.318347 
L 177.67666 192.014043 
L 177.797494 191.358855 
L 177.879911 190.937815 
L 177.978796 190.414737 
L 178.119507 189.747591 
L 178.169996 189.485686 
L 178.365304 188.567279 
L 178.398293 188.422477 
L 178.549758 187.652288 
L 178.717754 186.938405 
L 178.754187 186.751757 
L 178.942756 185.851098 
L 179.09283 185.238274 
L 179.147353 184.961143 
L 179.339506 184.071303 
L 179.561504 183.196622 
L 179.561879 183.194755 
L 179.751023 182.310989 
L 179.967593 181.438064 
L 180.204298 180.5726 
L 180.243004 180.439264 
L 180.422645 179.703547 
L 180.655334 178.839391 
L 180.904879 177.980008 
L 181.168797 177.124084 
L 181.446103 176.270784 
L 181.737306 175.419661 
L 182.044532 174.57061 
L 182.37181 173.723849 
L 182.725592 172.879939 
L 183.115576 172.039844 
L 183.228171 171.818739 
L 183.516167 171.198222 
L 183.955771 170.359349 
L 184.348898 169.709584 
L 184.454189 169.525339 
L 184.98866 168.691388 
L 185.241148 168.345238 
L 185.597331 167.86206 
L 186.031303 167.33891 
L 186.299795 167.038393 
L 186.761306 166.556297 
L 187.131652 166.223096 
L 187.449211 165.940434 
L 188.102927 165.471245 
L 188.182579 165.425084 
L 188.738538 165.071568 
L 189.347447 164.799677 
L 189.758057 164.679267 
L 189.938116 164.612583 
L 190.516205 164.479108 
L 191.076307 164.434021 
L 191.620326 164.466016 
L 192.149061 164.568938 
L 192.662589 164.739784 
L 193.160789 164.975668 
L 193.564707 165.219093 
L 193.645752 165.260307 
L 194.128347 165.529955 
L 194.604529 165.807449 
L 195.08061 166.058932 
L 195.564243 166.246328 
" clip-path="url(#pbbb4f0e2e5)" style="fill: none; stroke-dasharray: 4.8,1.2,0.75,1.2; stroke-dashoffset: 0; stroke: #029e73; stroke-width: 0.75"/>
   </g>
   <g id="PathCollection_7">
    <path d="M 111.245969 166.127954 
L 111.168714 165.387295 
L 111.140463 164.644514 
L 111.143826 164.510581 
L 111.14489 163.900344 
L 111.185141 163.154934 
L 111.269333 162.408353 
L 111.404199 161.660764 
L 111.599427 160.91233 
L 111.622719 160.838118 
L 111.791944 160.164395 
L 112.042964 159.416144 
L 112.25428 158.914907 
L 112.34368 158.668033 
L 112.665358 157.920619 
L 112.925008 157.433534 
L 113.051862 157.173689 
L 113.483231 156.427701 
L 113.616828 156.225466 
L 113.967367 155.682837 
L 114.321386 155.217335 
L 114.538794 154.939252 
L 115.033973 154.376387 
L 115.204393 154.197304 
L 115.751563 153.661796 
L 115.989477 153.457345 
L 116.47234 153.051735 
L 116.946186 152.719832 
L 117.195062 152.54086 
L 117.919011 152.103579 
L 118.157673 151.98541 
L 118.643811 151.719471 
L 119.36891 151.407947 
L 119.826787 151.255178 
L 120.094224 151.149353 
L 120.819843 150.919631 
L 121.545318 150.751914 
L 122.270741 150.63299 
L 122.996198 150.553671 
L 123.309953 150.533838 
L 123.721842 150.498498 
L 124.4476 150.476646 
L 125.173468 150.493131 
L 125.789547 150.54033 
L 125.899508 150.547165 
L 126.625848 150.625643 
L 127.352416 150.749756 
L 128.079237 150.93606 
L 128.806364 151.210017 
L 128.940235 151.274247 
L 129.53398 151.550933 
L 130.216221 152.003987 
L 130.262073 152.035342 
L 130.990742 152.658853 
L 131.063037 152.733245 
L 131.698486 153.462441 
L 131.719864 153.490015 
L 132.220733 154.191675 
L 132.448956 154.578542 
L 132.648261 154.920958 
L 133.011702 155.650268 
L 133.176624 156.048911 
L 133.323656 156.379565 
L 133.600648 157.108808 
L 133.81644 157.837914 
L 133.898764 158.185431 
L 134.00576 158.566847 
L 134.163844 159.295539 
L 134.271544 160.023881 
L 134.332741 160.751792 
L 134.349674 161.479193 
L 134.322863 162.206006 
L 134.250886 162.932149 
L 134.12998 163.657542 
L 133.953398 164.382106 
L 133.854516 164.691279 
L 133.747753 165.105883 
L 133.508761 165.828829 
L 133.194856 166.550809 
L 133.125313 166.687964 
L 132.869987 167.272022 
L 132.467096 167.992331 
L 132.41 168.083265 
L 132.049867 168.711943 
L 131.704689 169.207023 
L 131.556577 169.430862 
L 131.007763 170.141359 
L 131.001707 170.149307 
L 130.408563 170.86748 
L 130.31819 170.967927 
L 129.739652 171.585731 
L 129.63515 171.692068 
L 128.985427 172.304571 
L 128.957864 172.330323 
L 128.286152 172.918823 
L 128.149164 173.024617 
L 127.61938 173.453424 
L 127.189859 173.747068 
L 126.956408 173.920782 
L 126.297256 174.34621 
L 126.064279 174.473863 
L 125.641785 174.739619 
L 124.988215 175.076308 
L 124.674996 175.208994 
L 124.337067 175.381327 
L 123.687494 175.649769 
L 123.036805 175.853492 
L 122.535858 175.969009 
L 122.385406 176.01273 
L 121.733534 176.139754 
L 121.077744 176.203192 
L 120.416852 176.202462 
L 119.749233 176.132237 
L 119.429057 176.064027 
L 119.074931 176.00295 
L 118.393036 175.81388 
L 117.698124 175.524634 
L 117.496669 175.417992 
L 116.993128 175.168411 
L 116.343736 174.742625 
L 116.27157 174.695854 
L 115.535504 174.128047 
L 115.452083 174.054963 
L 114.779984 173.425196 
L 114.714834 173.35874 
L 114.083194 172.655831 
L 114.001236 172.552838 
L 113.525827 171.947561 
L 113.191411 171.432792 
L 113.057381 171.233404 
L 112.635411 170.51528 
L 112.331891 169.864592 
L 112.294814 169.791959 
L 111.971271 169.066196 
L 111.716137 168.336202 
L 111.516848 167.60275 
L 111.364629 166.866434 
L 111.305159 166.476747 
L 111.245969 166.127954 
z
" clip-path="url(#pbbb4f0e2e5)" style="fill: none; stroke: #de8f05; stroke-width: 0.75"/>
   </g>
   <g id="PathCollection_8">
    <path d="M 136.063011 100.538639 
L 135.812662 99.952688 
L 135.603446 99.366696 
L 135.431761 98.780924 
L 135.295011 98.195456 
L 135.209904 97.709899 
L 135.191767 97.610169 
L 135.119504 97.024917 
L 135.096383 96.686363 
L 135.08332 96.438603 
L 135.081917 96.058704 
L 135.090361 95.849458 
L 135.107906 95.604216 
L 135.160202 95.258848 
L 135.161602 95.253153 
L 135.227484 94.980215 
L 135.310359 94.75863 
L 135.374081 94.634773 
L 135.402147 94.573055 
L 135.497578 94.409076 
L 135.597111 94.264492 
L 135.696911 94.130659 
L 135.793816 94.001433 
L 135.819354 93.965114 
L 135.87986 93.864727 
L 135.955647 93.722381 
L 136.02231 93.576683 
L 136.079245 93.427362 
L 136.118605 93.296248 
L 136.123546 93.271398 
L 136.140983 93.092963 
L 136.146737 92.912018 
L 136.142403 92.730805 
L 136.137197 92.670926 
L 136.1111 92.532016 
L 136.06534 92.330482 
L 136.018465 92.139656 
L 136.001275 92.074666 
L 135.952404 91.941964 
L 135.882433 91.752079 
L 135.823795 91.582487 
L 135.795112 91.489806 
L 135.76625 91.422858 
L 135.707882 91.270883 
L 135.670359 91.142589 
L 135.65416 91.036145 
L 135.659561 90.949772 
L 135.686351 90.881551 
L 135.729456 90.834203 
L 135.733072 90.828933 
L 135.797192 90.788941 
L 135.882878 90.763189 
L 135.901222 90.7605 
L 135.980589 90.74459 
L 136.085581 90.729678 
L 136.193065 90.715291 
L 136.296742 90.697704 
L 136.390855 90.673863 
L 136.47127 90.641925 
L 136.536315 90.601577 
L 136.587098 90.554022 
L 136.627373 90.501717 
L 136.662917 90.447873 
L 136.700339 90.395771 
L 136.746594 90.348492 
L 136.807837 90.308418 
L 136.888836 90.277055 
L 136.992731 90.25505 
L 137.121415 90.242456 
L 137.275569 90.238824 
L 137.454624 90.243253 
L 137.656796 90.254443 
L 137.878856 90.270655 
L 138.073929 90.285795 
L 138.107678 90.28654 
L 138.306863 90.288518 
L 138.501173 90.28628 
L 138.680317 90.276317 
L 138.834206 90.255505 
L 138.956406 90.22229 
L 139.046778 90.177433 
L 139.113438 90.124374 
L 139.173039 90.068921 
L 139.249044 90.018327 
L 139.369468 89.980383 
L 139.566908 89.96342 
L 139.574566 89.96364 
L 139.858299 89.970784 
L 140.303184 90.017944 
L 140.641717 90.068397 
L 140.948681 90.117414 
L 141.65689 90.248592 
L 141.861209 90.289449 
L 142.65651 90.457935 
L 143.131268 90.566485 
L 143.647762 90.686571 
L 144.632923 90.931197 
L 144.786763 90.971232 
L 145.617265 91.183526 
L 146.595955 91.446493 
L 146.598461 91.447129 
L 147.587652 91.704391 
L 148.179887 91.864284 
L 148.582865 91.958155 
L 149.402343 92.160856 
L 149.592233 92.194851 
L 150.379575 92.367422 
L 150.623659 92.399775 
L 151.362907 92.576225 
L 151.641039 92.632093 
L 152.583614 92.997517 
L 153.068831 93.273529 
L 153.455721 93.479952 
L 154.204847 93.97802 
L 154.28213 94.025413 
L 155.08235 94.597331 
L 155.122256 94.629611 
L 155.867569 95.178733 
L 156.059666 95.334193 
L 156.638789 95.768789 
L 157.097779 96.140996 
L 157.395282 96.368672 
L 158.138912 96.976467 
L 158.250463 97.072429 
L 158.874731 97.587352 
L 159.488569 98.128175 
L 159.589624 98.214759 
L 160.297305 98.845077 
L 160.791676 99.311575 
L 160.984497 99.49064 
L 161.66276 100.140835 
L 162.161913 100.641666 
L 162.32364 100.802831 
L 162.979716 101.466358 
L 163.619194 102.140821 
L 163.68284 102.208051 
L 164.257053 102.814994 
L 164.87935 103.499255 
L 165.38539 104.083898 
L 165.481766 104.196105 
L 166.065759 104.90392 
L 166.608017 105.636665 
L 166.705127 105.780643 
L 167.105068 106.394257 
L 167.449054 107.02848 
L 167.529888 107.189759 
L 167.845254 107.979872 
L 167.861792 108.029935 
L 168.037429 108.750147 
L 168.062184 108.928277 
L 168.099196 109.401976 
L 168.062259 109.907608 
L 168.057551 109.954914 
L 167.957566 110.455085 
L 167.787942 110.883811 
L 167.71722 111.013334 
L 167.58301 111.279822 
L 167.340315 111.637605 
L 167.059107 111.953665 
L 166.746491 112.235171 
L 166.534551 112.395412 
L 166.413987 112.496162 
L 166.066287 112.742175 
L 165.694656 112.959893 
L 165.300584 113.150075 
L 164.884449 113.31196 
L 164.445921 113.443763 
L 163.98443 113.54331 
L 163.499718 113.608877 
L 162.99254 113.640335 
L 162.699077 113.641462 
L 162.473716 113.653546 
L 161.952861 113.663234 
L 161.423523 113.658806 
L 160.889428 113.64584 
L 160.353799 113.629335 
L 159.818457 113.612184 
L 159.796039 113.611675 
L 159.30179 113.625592 
L 158.784919 113.638253 
L 158.26519 113.645482 
L 157.73963 113.641743 
L 157.204553 113.619881 
L 156.655962 113.571759 
L 156.637703 113.569474 
L 156.112673 113.531084 
L 155.553751 113.458735 
L 154.976311 113.347769 
L 154.560172 113.245069 
L 154.388843 113.212903 
L 153.806515 113.082732 
L 153.208412 112.915803 
L 152.908448 112.822418 
L 152.612186 112.74594 
L 152.018943 112.575091 
L 151.413396 112.371412 
L 151.399208 112.366674 
L 150.826276 112.197726 
L 150.230666 111.997842 
L 149.939556 111.897138 
L 149.642126 111.803986 
L 149.060974 111.616949 
L 148.492194 111.420525 
L 148.477921 111.416033 
L 147.913469 111.247136 
L 147.345652 111.060699 
L 147.010703 110.943272 
L 146.779936 110.868463 
L 146.216013 110.669087 
L 145.667766 110.440718 
L 145.641126 110.430087 
L 145.067575 110.179821 
L 144.539064 109.906626 
L 144.479549 109.876022 
L 143.888757 109.545763 
L 143.575882 109.351106 
L 143.288034 109.167218 
L 142.732408 108.781996 
L 142.679973 108.743636 
L 142.066743 108.277281 
L 141.974495 108.204567 
L 141.444395 107.752765 
L 141.293136 107.620641 
L 140.80929 107.154112 
L 140.683621 107.031368 
L 140.154836 106.454939 
L 140.139353 106.437945 
L 139.643489 105.842461 
L 139.471158 105.616622 
L 139.187495 105.246004 
L 138.773659 104.676789 
L 138.754536 104.650389 
L 138.324807 104.057602 
L 138.103186 103.755996 
L 137.896884 103.46777 
L 137.473376 102.880629 
L 137.465456 102.869795 
L 137.067089 102.295021 
L 136.840294 101.94924 
L 136.690994 101.709874 
L 136.35545 101.124433 
L 136.145117 100.705737 
L 136.063011 100.538639 
z
" clip-path="url(#pbbb4f0e2e5)" style="fill: none; stroke-dasharray: 2.775,1.2; stroke-dashoffset: 0; stroke: #de8f05; stroke-width: 0.75"/>
   </g>
   <g id="PathCollection_9">
    <path d="M 78.001231 115.932255 
L 78.233211 116.339209 
L 78.346716 116.929349 
L 78.345273 117.154389 
L 78.319002 117.750858 
L 78.236042 118.264442 
L 78.099089 118.908893 
L 78.00091 119.280335 
L 77.702163 120.249614 
L 77.549645 120.687547 
L 77.369723 121.193826 
L 77.015554 122.122116 
L 76.648331 123.040641 
L 76.274538 123.953673 
L 76.16213 124.223197 
L 75.901925 124.86539 
L 75.530917 125.776437 
L 75.161535 126.687237 
L 74.793626 127.598113 
L 74.425771 128.508923 
L 74.055508 129.419231 
L 73.679494 130.328431 
L 73.293508 131.235799 
L 72.892273 132.140485 
L 72.583145 132.797989 
L 72.471059 133.042024 
L 72.026855 133.940609 
L 71.542709 134.83287 
L 71.256544 135.310366 
L 71.002536 135.716335 
L 70.381469 136.586945 
L 70.353357 136.622694 
L 69.611477 137.424622 
L 69.605305 137.429702 
L 68.960128 137.916868 
L 68.374643 138.169503 
L 68.350134 138.172411 
L 67.839279 138.235019 
" clip-path="url(#pbbb4f0e2e5)" style="fill: none; stroke-dasharray: 4.8,1.2,0.75,1.2; stroke-dashoffset: 0; stroke: #de8f05; stroke-width: 0.75"/>
    <path d="M 181.778387 195.560702 
L 181.464441 195.313308 
L 181.148407 195.064674 
L 180.84053 194.801863 
L 180.553883 194.507741 
L 180.303244 194.161991 
L 180.104888 193.740831 
L 180.099496 193.721339 
L 179.934582 193.272464 
L 179.836308 192.693631 
L 179.826195 192.415122 
L 179.78725 192.028125 
L 179.80236 191.302337 
L 179.800523 191.249336 
L 179.833264 190.410821 
L 179.847521 190.254004 
L 179.888134 189.5023 
L 179.911999 189.236132 
L 179.953746 188.534672 
L 179.977488 188.236222 
L 180.018953 187.520269 
L 180.036739 187.248949 
L 180.078511 186.463169 
L 180.088226 186.272248 
L 180.132572 185.358166 
L 180.134562 185.305917 
L 180.167448 184.346005 
L 180.173059 184.215333 
L 180.193753 183.39423 
L 180.212366 183.004258 
L 180.224867 182.453281 
L 180.267279 181.677492 
L 180.270786 181.524816 
L 180.306534 180.600487 
L 180.33378 180.223972 
L 180.35146 179.685039 
L 180.41565 178.779942 
L 180.436777 178.553959 
L 180.468649 177.876795 
L 180.545893 176.983405 
L 180.593207 176.564361 
L 180.622417 176.093255 
L 180.701885 175.20675 
L 180.808446 174.32806 
L 180.859593 173.964698 
L 180.906759 173.449728 
L 181.008631 172.573765 
L 181.130243 171.702458 
L 181.267675 170.834476 
L 181.418599 169.968895 
L 181.582165 169.105102 
L 181.759009 168.242725 
L 181.951396 167.381584 
L 182.163505 166.521661 
L 182.401904 165.663074 
L 182.676318 164.80607 
L 183.000807 163.951016 
L 183.153142 163.605264 
L 183.357603 163.095215 
L 183.768411 162.239498 
L 183.97457 161.873026 
L 184.238795 161.382937 
L 184.700344 160.664009 
L 184.789762 160.525377 
L 185.38011 159.720081 
L 185.42304 159.66492 
L 186.032083 158.939654 
L 186.16405 158.80065 
L 186.664082 158.284668 
L 187.078323 157.93238 
L 187.279536 157.754688 
L 187.883383 157.307737 
L 188.32672 157.060869 
L 188.476093 156.966437 
L 189.061492 156.676485 
L 189.638296 156.485424 
L 190.207922 156.376344 
L 190.771102 156.338807 
L 191.328111 156.367372 
L 191.878864 156.460726 
L 192.422968 156.620547 
L 192.959702 156.85101 
L 193.488046 157.156694 
L 193.656381 157.271895 
L 194.010329 157.476427 
L 194.525785 157.818916 
L 195.033425 158.193148 
L 195.267836 158.357453 
L 195.538633 158.51661 
L 196.04443 158.759047 
L 196.552118 158.915112 
" clip-path="url(#pbbb4f0e2e5)" style="fill: none; stroke-dasharray: 4.8,1.2,0.75,1.2; stroke-dashoffset: 0; stroke: #de8f05; stroke-width: 0.75"/>
   </g>
   <g id="line2d_1">
    <defs>
     <path id="m08ad0baaeb" d="M 0 7.5 
C 1.989023 7.5 3.896849 6.709753 5.303301 5.303301 
C 6.709753 3.896849 7.5 1.989023 7.5 0 
C 7.5 -1.989023 6.709753 -3.896849 5.303301 -5.303301 
C 3.896849 -6.709753 1.989023 -7.5 0 -7.5 
C -1.989023 -7.5 -3.896849 -6.709753 -5.303301 -5.303301 
C -6.709753 -3.896849 -7.5 -1.989023 -7.5 0 
C -7.5 1.989023 -6.709753 3.896849 -5.303301 5.303301 
C -3.896849 6.709753 -1.989023 7.5 0 7.5 
z
" style="stroke: #0173b2; stroke-width: 2"/>
    </defs>
    <g clip-path="url(#pbbb4f0e2e5)">
     <use xlink:href="#m08ad0baaeb" x="120.908007" y="168.569366" style="fill-opacity: 0; stroke: #0173b2; stroke-width: 2"/>
    </g>
   </g>
   <g id="line2d_2">
    <defs>
     <path id="m4c7ff2c56e" d="M -7.5 7.5 
L 7.5 7.5 
L 7.5 -7.5 
L -7.5 -7.5 
z
" style="stroke: #0173b2; stroke-width: 2; stroke-linejoin: miter"/>
    </defs>
    <g clip-path="url(#pbbb4f0e2e5)">
     <use xlink:href="#m4c7ff2c56e" x="151.53965" y="105.967213" style="fill-opacity: 0; stroke: #0173b2; stroke-width: 2; stroke-linejoin: miter"/>
    </g>
   </g>
   <g id="line2d_3">
    <defs>
     <path id="m1286397ce0" d="M -0 7.5 
L 7.5 -7.5 
L -7.5 -7.5 
z
" style="stroke: #0173b2; stroke-width: 2; stroke-linejoin: miter"/>
    </defs>
    <g clip-path="url(#pbbb4f0e2e5)">
     <use xlink:href="#m1286397ce0" x="188.70716" y="180.130117" style="fill-opacity: 0; stroke: #0173b2; stroke-width: 2; stroke-linejoin: miter"/>
    </g>
   </g>
   <g id="line2d_4">
    <defs>
     <path id="m44cf117dc9" d="M 0 7.5 
C 1.989023 7.5 3.896849 6.709753 5.303301 5.303301 
C 6.709753 3.896849 7.5 1.989023 7.5 0 
C 7.5 -1.989023 6.709753 -3.896849 5.303301 -5.303301 
C 3.896849 -6.709753 1.989023 -7.5 0 -7.5 
C -1.989023 -7.5 -3.896849 -6.709753 -5.303301 -5.303301 
C -6.709753 -3.896849 -7.5 -1.989023 -7.5 0 
C -7.5 1.989023 -6.709753 3.896849 -5.303301 5.303301 
C -3.896849 6.709753 -1.989023 7.5 0 7.5 
z
" style="stroke: #029e73; stroke-width: 2"/>
    </defs>
    <g clip-path="url(#pbbb4f0e2e5)">
     <use xlink:href="#m44cf117dc9" x="121.114943" y="165.878822" style="fill-opacity: 0; stroke: #029e73; stroke-width: 2"/>
    </g>
   </g>
   <g id="line2d_5">
    <defs>
     <path id="m3f0aadab71" d="M -7.5 7.5 
L 7.5 7.5 
L 7.5 -7.5 
L -7.5 -7.5 
z
" style="stroke: #029e73; stroke-width: 2; stroke-linejoin: miter"/>
    </defs>
    <g clip-path="url(#pbbb4f0e2e5)">
     <use xlink:href="#m3f0aadab71" x="155.85525" y="105.893633" style="fill-opacity: 0; stroke: #029e73; stroke-width: 2; stroke-linejoin: miter"/>
    </g>
   </g>
   <g id="line2d_6">
    <defs>
     <path id="m328f203f3b" d="M -0 7.5 
L 7.5 -7.5 
L -7.5 -7.5 
z
" style="stroke: #029e73; stroke-width: 2; stroke-linejoin: miter"/>
    </defs>
    <g clip-path="url(#pbbb4f0e2e5)">
     <use xlink:href="#m328f203f3b" x="186.897236" y="184.014835" style="fill-opacity: 0; stroke: #029e73; stroke-width: 2; stroke-linejoin: miter"/>
    </g>
   </g>
   <g id="line2d_7">
    <defs>
     <path id="m52060abb3a" d="M 0 7.5 
C 1.989023 7.5 3.896849 6.709753 5.303301 5.303301 
C 6.709753 3.896849 7.5 1.989023 7.5 0 
C 7.5 -1.989023 6.709753 -3.896849 5.303301 -5.303301 
C 3.896849 -6.709753 1.989023 -7.5 0 -7.5 
C -1.989023 -7.5 -3.896849 -6.709753 -5.303301 -5.303301 
C -6.709753 -3.896849 -7.5 -1.989023 -7.5 0 
C -7.5 1.989023 -6.709753 3.896849 -5.303301 5.303301 
C -3.896849 6.709753 -1.989023 7.5 0 7.5 
z
" style="stroke: #de8f05; stroke-width: 2"/>
    </defs>
    <g clip-path="url(#pbbb4f0e2e5)">
     <use xlink:href="#m52060abb3a" x="120.427526" y="164.923029" style="fill-opacity: 0; stroke: #de8f05; stroke-width: 2"/>
    </g>
   </g>
   <g id="line2d_8">
    <defs>
     <path id="m6228d3935e" d="M -7.5 7.5 
L 7.5 7.5 
L 7.5 -7.5 
L -7.5 -7.5 
z
" style="stroke: #de8f05; stroke-width: 2; stroke-linejoin: miter"/>
    </defs>
    <g clip-path="url(#pbbb4f0e2e5)">
     <use xlink:href="#m6228d3935e" x="154.993356" y="104.896559" style="fill-opacity: 0; stroke: #de8f05; stroke-width: 2; stroke-linejoin: miter"/>
    </g>
   </g>
   <g id="line2d_9">
    <defs>
     <path id="m3b016ce404" d="M -0 7.5 
L 7.5 -7.5 
L -7.5 -7.5 
z
" style="stroke: #de8f05; stroke-width: 2; stroke-linejoin: miter"/>
    </defs>
    <g clip-path="url(#pbbb4f0e2e5)">
     <use xlink:href="#m3b016ce404" x="186.460855" y="182.777685" style="fill-opacity: 0; stroke: #de8f05; stroke-width: 2; stroke-linejoin: miter"/>
    </g>
   </g>
   <g id="patch_3">
    <path d="M 131.355263 219.479683 
C 148.766545 219.479683 165.467049 212.562107 177.778684 200.250472 
C 190.090319 187.938837 197.007895 171.238332 197.007895 153.827051 
C 197.007895 136.41577 190.090319 119.715265 177.778684 107.40363 
C 165.467049 95.091995 148.766545 88.174419 131.355263 88.174419 
C 113.943982 88.174419 97.243477 95.091995 84.931842 107.40363 
C 72.620207 119.715265 65.702632 136.41577 65.702632 153.827051 
C 65.702632 171.238332 72.620207 187.938837 84.931842 200.250472 
C 97.243477 212.562107 113.943982 219.479683 131.355263 219.479683 
L 131.355263 219.479683 
z
" style="fill: none; stroke: #262626; stroke-width: 1.25; stroke-linejoin: miter; stroke-linecap: square"/>
   </g>
   <g id="text_9">
    <text style="fill: #262626; font: 20px 'Arial', 'DejaVu Sans', 'Liberation Sans', 'Bitstream Vera Sans', sans-serif; text-anchor: start" x="32.876316" y="77.110242" transform="rotate(-0 32.876316 77.110242)">(a)</text>
   </g>
   <g id="legend_1">
    <g id="patch_4">
     <path d="M 10.06 383.216018 
L 542.878 383.216018 
Q 545.738 383.216018 545.738 380.356018 
L 545.738 268.881262 
Q 545.738 266.021262 542.878 266.021262 
L 10.06 266.021262 
Q 7.2 266.021262 7.2 268.881262 
L 7.2 380.356018 
Q 7.2 383.216018 10.06 383.216018 
z
" style="fill: #ffffff; opacity: 0.8; stroke: #cccccc; stroke-linejoin: miter"/>
    </g>
    <g id="line2d_10">
     <g>
      <use xlink:href="#m08ad0baaeb" x="27.22" y="287.411604" style="fill-opacity: 0; stroke: #0173b2; stroke-width: 2"/>
     </g>
    </g>
    <g id="text_10">
     <text style="fill: #262626; font: 14.3px 'Arial', 'DejaVu Sans', 'Liberation Sans', 'Bitstream Vera Sans', sans-serif" transform="translate(52.96 282.607027)">Linear:</text>
     <!-- $\sigma_{1}$: 215.3°|67.6°, $\sigma_{2}$: 22.9°|22.0°, $\sigma_{3}$: 114.6°|4.4°,  R=0.44, $\beta$=39.2° -->
     <g style="fill: #262626" transform="translate(52.96 298.79418)">
      <text>
       <tspan style="font: oblique 14.3px 'DejaVu Sans'" x="0 126.145087 243.194073 427.622607" y="-0.046875">σσσβ</tspan>
       <tspan style="font: 10.01px 'DejaVu Sans'" x="9.061203 135.20629 252.255276" y="2.296875">123</tspan>
       <tspan style="font: 14.3px 'DejaVu Sans'" x="15.819098 20.635916 25.180472 34.276572 43.372672 52.468771 57.013327 66.109427 73.257864 78.074683 87.170782 96.266882 100.811438 109.907538 117.055975 121.600531 141.964185 146.781003 151.325558 160.421658 169.517758 174.062314 183.158414 190.306851 195.123669 204.219769 213.315869 217.860425 226.956525 234.104962 238.649518 259.013171 263.82999 268.374545 277.470645 286.566745 295.662845 300.207401 309.3035 316.451938 321.268756 330.364856 334.909412 344.005511 351.153949 355.698505 360.24306 364.787616 374.721423 386.700641 395.796741 400.341296 409.437396 418.533496 423.078052 436.746631 448.725848 457.821948 466.918048 470.712604 479.808704" y="-0.046875">: 215.3°|67.6°, : 22.9°|22.0°, : 114.6°|4.4°,  R=0.44, =39.2°</tspan>
      </text>
     </g>
    </g>
    <g id="line2d_11">
     <g>
      <use xlink:href="#m44cf117dc9" x="27.22" y="325.046522" style="fill-opacity: 0; stroke: #029e73; stroke-width: 2"/>
     </g>
    </g>
    <g id="text_11">
     <text style="fill: #262626; font: 14.3px 'Arial', 'DejaVu Sans', 'Liberation Sans', 'Bitstream Vera Sans', sans-serif" transform="translate(52.96 320.241946)">Iterative constant shear:</text>
     <!-- $\sigma_{1}$: 220.4°|70.4°, $\sigma_{2}$: 27.1°|19.1°, $\sigma_{3}$: 118.5°|4.2°,  R=0.63, $\beta$=36.3° -->
     <g style="fill: #262626" transform="translate(52.96 336.429099)">
      <text>
       <tspan style="font: oblique 14.3px 'DejaVu Sans'" x="0 126.145087 243.194073 426.872607" y="-0.046875">σσσβ</tspan>
       <tspan style="font: 10.01px 'DejaVu Sans'" x="9.061203 135.20629 252.255276" y="2.296875">123</tspan>
       <tspan style="font: 14.3px 'DejaVu Sans'" x="15.819098 20.635916 25.180472 34.276572 43.372672 52.468771 57.013327 66.109427 73.257864 78.074683 87.170782 96.266882 100.811438 109.907538 117.055975 121.600531 141.964185 146.781003 151.325558 160.421658 169.517758 174.062314 183.158414 190.306851 195.123669 204.219769 213.315869 217.860425 226.956525 234.104962 238.649518 259.013171 263.82999 268.374545 277.470645 286.566745 295.662845 300.207401 309.3035 316.451938 321.268756 330.364856 334.159412 343.255511 350.403949 354.948505 359.49306 364.037616 373.971423 385.950641 395.046741 399.591296 408.687396 417.783496 422.328052 435.996631 447.975848 457.071948 466.168048 470.712604 479.808704" y="-0.046875">: 220.4°|70.4°, : 27.1°|19.1°, : 118.5°|4.2°,  R=0.63, =36.3°</tspan>
      </text>
     </g>
    </g>
    <g id="line2d_12">
     <g>
      <use xlink:href="#m52060abb3a" x="27.22" y="362.681441" style="fill-opacity: 0; stroke: #de8f05; stroke-width: 2"/>
     </g>
    </g>
    <g id="text_12">
     <text style="fill: #262626; font: 14.3px 'Arial', 'DejaVu Sans', 'Liberation Sans', 'Bitstream Vera Sans', sans-serif" transform="translate(52.96 357.876865)">Iterative variable shear:</text>
     <!-- $\sigma_{1}$: 224.6°|70.7°, $\sigma_{2}$: 25.8°|18.4°, $\sigma_{3}$: 117.7°|5.8°,  R=0.75, $\beta$=34.9° -->
     <g style="fill: #262626" transform="translate(52.96 374.064018)">
      <text>
       <tspan style="font: oblique 14.3px 'DejaVu Sans'" x="0 125.020087 241.694073 423.497607" y="-0.046875">σσσβ</tspan>
       <tspan style="font: 10.01px 'DejaVu Sans'" x="9.061203 134.08129 250.755276" y="2.296875">123</tspan>
       <tspan style="font: 14.3px 'DejaVu Sans'" x="15.819098 20.635916 25.180472 34.276572 43.372672 52.468771 57.013327 66.109427 73.257864 78.074683 87.170782 96.266882 99.686438 108.782538 115.930975 120.475531 140.839185 145.656003 150.200558 159.296658 168.392758 172.562314 181.658414 188.806851 193.623669 202.719769 211.815869 216.360425 225.456525 232.604962 237.149518 257.513171 262.32999 266.874545 275.970645 285.066745 294.162845 297.582401 306.6785 313.826938 318.643756 327.739856 331.909412 341.005511 348.153949 352.698505 357.24306 361.787616 371.721423 383.700641 392.796741 396.216296 405.312396 414.408496 418.953052 432.621631 444.600848 453.696948 462.793048 467.337604 476.433704" y="-0.046875">: 224.6°|70.7°, : 25.8°|18.4°, : 117.7°|5.8°,  R=0.75, =34.9°</tspan>
      </text>
     </g>
    </g>
   </g>
  </g>
  <g id="axes_3">
   <g id="patch_5">
    <path d="M 337.537081 219.479683 
L 509.355263 219.479683 
L 509.355263 88.174419 
L 337.537081 88.174419 
z
" style="fill: #ffffff"/>
   </g>
   <g id="matplotlib.axis_5">
    <g id="xtick_21">
     <g id="line2d_13">
      <defs>
       <path id="m4f6805b9da" d="M 0 0 
L 0 6 
" style="stroke: #262626; stroke-width: 1.25"/>
      </defs>
      <g>
       <use xlink:href="#m4f6805b9da" x="345.346999" y="219.479683" style="fill: #262626; stroke: #262626; stroke-width: 1.25"/>
      </g>
     </g>
     <g id="text_13">
      <text style="fill: #262626; font: 14.3px 'Arial', 'DejaVu Sans', 'Liberation Sans', 'Bitstream Vera Sans', sans-serif; text-anchor: middle" x="345.346999" y="239.845448" transform="rotate(-0 345.346999 239.845448)">0.0</text>
     </g>
    </g>
    <g id="xtick_22">
     <g id="line2d_14">
      <g>
       <use xlink:href="#m4f6805b9da" x="423.446172" y="219.479683" style="fill: #262626; stroke: #262626; stroke-width: 1.25"/>
      </g>
     </g>
     <g id="text_14">
      <text style="fill: #262626; font: 14.3px 'Arial', 'DejaVu Sans', 'Liberation Sans', 'Bitstream Vera Sans', sans-serif; text-anchor: middle" x="423.446172" y="239.845448" transform="rotate(-0 423.446172 239.845448)">0.5</text>
     </g>
    </g>
    <g id="xtick_23">
     <g id="line2d_15">
      <g>
       <use xlink:href="#m4f6805b9da" x="501.545346" y="219.479683" style="fill: #262626; stroke: #262626; stroke-width: 1.25"/>
      </g>
     </g>
     <g id="text_15">
      <text style="fill: #262626; font: 14.3px 'Arial', 'DejaVu Sans', 'Liberation Sans', 'Bitstream Vera Sans', sans-serif; text-anchor: middle" x="501.545346" y="239.845448" transform="rotate(-0 501.545346 239.845448)">1.0</text>
     </g>
    </g>
    <g id="text_16">
     <text style="fill: #262626; font: 15.6px 'Arial', 'DejaVu Sans', 'Liberation Sans', 'Bitstream Vera Sans', sans-serif; text-anchor: middle" x="423.446172" y="258.672964" transform="rotate(-0 423.446172 258.672964)">Shape Ratio</text>
    </g>
   </g>
   <g id="matplotlib.axis_6">
    <g id="ytick_12">
     <g id="line2d_16">
      <defs>
       <path id="m1ece07291e" d="M 0 0 
L -6 0 
" style="stroke: #262626; stroke-width: 1.25"/>
      </defs>
      <g>
       <use xlink:href="#m1ece07291e" x="337.537081" y="219.479683" style="fill: #262626; stroke: #262626; stroke-width: 1.25"/>
      </g>
     </g>
     <g id="text_17">
      <text style="fill: #262626; font: 14.3px 'Arial', 'DejaVu Sans', 'Liberation Sans', 'Bitstream Vera Sans', sans-serif; text-anchor: end" x="328.037081" y="224.912565" transform="rotate(-0 328.037081 224.912565)">0</text>
     </g>
    </g>
    <g id="ytick_13">
     <g id="line2d_17">
      <g>
       <use xlink:href="#m1ece07291e" x="337.537081" y="171.474834" style="fill: #262626; stroke: #262626; stroke-width: 1.25"/>
      </g>
     </g>
     <g id="text_18">
      <text style="fill: #262626; font: 14.3px 'Arial', 'DejaVu Sans', 'Liberation Sans', 'Bitstream Vera Sans', sans-serif; text-anchor: end" x="328.037081" y="176.907716" transform="rotate(-0 328.037081 176.907716)">200</text>
     </g>
    </g>
    <g id="ytick_14">
     <g id="line2d_18">
      <g>
       <use xlink:href="#m1ece07291e" x="337.537081" y="123.469985" style="fill: #262626; stroke: #262626; stroke-width: 1.25"/>
      </g>
     </g>
     <g id="text_19">
      <text style="fill: #262626; font: 14.3px 'Arial', 'DejaVu Sans', 'Liberation Sans', 'Bitstream Vera Sans', sans-serif; text-anchor: end" x="328.037081" y="128.902867" transform="rotate(-0 328.037081 128.902867)">400</text>
     </g>
    </g>
    <g id="text_20">
     <text style="fill: #262626; font: 15.6px 'Arial', 'DejaVu Sans', 'Liberation Sans', 'Bitstream Vera Sans', sans-serif; text-anchor: middle" x="293.497644" y="153.827051" transform="rotate(-90 293.497644 153.827051)">Count</text>
    </g>
   </g>
   <g id="patch_6">
    <path d="M 345.346999 219.479683 
L 345.346999 219.479683 
L 353.156916 219.479683 
L 353.156916 219.479683 
L 360.966834 219.479683 
L 360.966834 219.479683 
L 368.776752 219.479683 
L 368.776752 219.239658 
L 376.586669 219.239658 
L 376.586669 216.359367 
L 384.396585 216.359367 
L 384.396585 209.398664 
L 392.206505 209.398664 
L 392.206505 182.515949 
L 400.016419 182.515949 
L 400.016419 119.869621 
L 407.826338 119.869621 
L 407.826338 94.427051 
L 415.636253 94.427051 
L 415.636253 104.508069 
L 423.446172 104.508069 
L 423.446172 152.992967 
L 431.256091 152.992967 
L 431.256091 201.717888 
L 439.066011 201.717888 
L 439.066011 214.439173 
L 446.875921 214.439173 
L 446.875921 218.75961 
L 454.68584 218.75961 
L 454.68584 219.479683 
L 462.495759 219.479683 
L 462.495759 219.479683 
L 470.305678 219.479683 
L 470.305678 219.479683 
L 478.115597 219.479683 
L 478.115597 219.479683 
L 485.925507 219.479683 
L 485.925507 219.479683 
L 493.735427 219.479683 
L 493.735427 219.479683 
L 501.545346 219.479683 
L 501.545346 219.479683 
" clip-path="url(#pac074e30cf)" style="fill: none; stroke: #0173b2; stroke-width: 2.5; stroke-linejoin: miter"/>
   </g>
   <g id="patch_7">
    <path d="M 345.346999 219.479683 
L 345.346999 219.479683 
L 353.156916 219.479683 
L 353.156916 219.479683 
L 360.966834 219.479683 
L 360.966834 219.479683 
L 368.776752 219.479683 
L 368.776752 219.479683 
L 376.586669 219.479683 
L 376.586669 219.479683 
L 384.396585 219.479683 
L 384.396585 218.519586 
L 392.206505 218.519586 
L 392.206505 219.479683 
L 400.016419 219.479683 
L 400.016419 215.639295 
L 407.826338 215.639295 
L 407.826338 207.958519 
L 415.636253 207.958519 
L 415.636253 188.756579 
L 423.446172 188.756579 
L 423.446172 148.912555 
L 431.256091 148.912555 
L 431.256091 125.870227 
L 439.066011 125.870227 
L 439.066011 98.747487 
L 446.875921 98.747487 
L 446.875921 141.471803 
L 454.68584 141.471803 
L 454.68584 165.714252 
L 462.495759 165.714252 
L 462.495759 206.278349 
L 470.305678 206.278349 
L 470.305678 216.359367 
L 478.115597 216.359367 
L 478.115597 219.479683 
L 485.925507 219.479683 
L 485.925507 219.479683 
L 493.735427 219.479683 
L 493.735427 219.479683 
L 501.545346 219.479683 
L 501.545346 219.479683 
" clip-path="url(#pac074e30cf)" style="fill: none; stroke: #029e73; stroke-width: 2.5; stroke-linejoin: miter"/>
   </g>
   <g id="patch_8">
    <path d="M 345.346999 219.479683 
L 345.346999 219.479683 
L 353.156916 219.479683 
L 353.156916 219.479683 
L 360.966834 219.479683 
L 360.966834 219.479683 
L 368.776752 219.479683 
L 368.776752 219.479683 
L 376.586669 219.479683 
L 376.586669 219.479683 
L 384.396585 219.479683 
L 384.396585 219.479683 
L 392.206505 219.479683 
L 392.206505 219.479683 
L 400.016419 219.479683 
L 400.016419 218.519586 
L 407.826338 218.519586 
L 407.826338 214.679198 
L 415.636253 214.679198 
L 415.636253 207.47847 
L 423.446172 207.47847 
L 423.446172 179.395634 
L 431.256091 179.395634 
L 431.256091 151.312797 
L 439.066011 151.312797 
L 439.066011 137.871439 
L 446.875921 137.871439 
L 446.875921 125.150154 
L 454.68584 125.150154 
L 454.68584 127.790421 
L 462.495759 127.790421 
L 462.495759 164.274106 
L 470.305678 164.274106 
L 470.305678 194.757185 
L 478.115597 194.757185 
L 478.115597 216.839416 
L 485.925507 216.839416 
L 485.925507 215.639295 
L 493.735427 215.639295 
L 493.735427 219.479683 
L 501.545346 219.479683 
L 501.545346 219.479683 
" clip-path="url(#pac074e30cf)" style="fill: none; stroke: #de8f05; stroke-width: 2.5; stroke-linejoin: miter"/>
   </g>
   <g id="patch_9">
    <path d="M 337.537081 219.479683 
L 337.537081 88.174419 
" style="fill: none; stroke: #262626; stroke-width: 1.25; stroke-linejoin: miter; stroke-linecap: square"/>
   </g>
   <g id="patch_10">
    <path d="M 509.355263 219.479683 
L 509.355263 88.174419 
" style="fill: none; stroke: #262626; stroke-width: 1.25; stroke-linejoin: miter; stroke-linecap: square"/>
   </g>
   <g id="patch_11">
    <path d="M 337.537081 219.479683 
L 509.355263 219.479683 
" style="fill: none; stroke: #262626; stroke-width: 1.25; stroke-linejoin: miter; stroke-linecap: square"/>
   </g>
   <g id="patch_12">
    <path d="M 337.537081 88.174419 
L 509.355263 88.174419 
" style="fill: none; stroke: #262626; stroke-width: 1.25; stroke-linejoin: miter; stroke-linecap: square"/>
   </g>
   <g id="text_21">
    <text style="fill: #262626; font: 20px 'Arial', 'DejaVu Sans', 'Liberation Sans', 'Bitstream Vera Sans', sans-serif; text-anchor: start" x="294.582536" y="77.110242" transform="rotate(-0 294.582536 77.110242)">(b)</text>
   </g>
  </g>
  <g id="axes_4">
   <g id="patch_13">
    <path d="M 629.62799 219.479683 
L 801.446172 219.479683 
L 801.446172 88.174419 
L 629.62799 88.174419 
z
" style="fill: #ffffff"/>
   </g>
   <g id="matplotlib.axis_7">
    <g id="xtick_24">
     <g id="line2d_19">
      <g>
       <use xlink:href="#m4f6805b9da" x="637.437908" y="219.479683" style="fill: #262626; stroke: #262626; stroke-width: 1.25"/>
      </g>
     </g>
     <g id="text_22">
      <text style="fill: #262626; font: 14.3px 'Arial', 'DejaVu Sans', 'Liberation Sans', 'Bitstream Vera Sans', sans-serif; text-anchor: middle" x="637.437908" y="239.845448" transform="rotate(-0 637.437908 239.845448)">0.0</text>
     </g>
    </g>
    <g id="xtick_25">
     <g id="line2d_20">
      <g>
       <use xlink:href="#m4f6805b9da" x="715.537081" y="219.479683" style="fill: #262626; stroke: #262626; stroke-width: 1.25"/>
      </g>
     </g>
     <g id="text_23">
      <text style="fill: #262626; font: 14.3px 'Arial', 'DejaVu Sans', 'Liberation Sans', 'Bitstream Vera Sans', sans-serif; text-anchor: middle" x="715.537081" y="239.845448" transform="rotate(-0 715.537081 239.845448)">0.5</text>
     </g>
    </g>
    <g id="xtick_26">
     <g id="line2d_21">
      <g>
       <use xlink:href="#m4f6805b9da" x="793.636255" y="219.479683" style="fill: #262626; stroke: #262626; stroke-width: 1.25"/>
      </g>
     </g>
     <g id="text_24">
      <text style="fill: #262626; font: 14.3px 'Arial', 'DejaVu Sans', 'Liberation Sans', 'Bitstream Vera Sans', sans-serif; text-anchor: middle" x="793.636255" y="239.845448" transform="rotate(-0 793.636255 239.845448)">1.0</text>
     </g>
    </g>
    <g id="text_25">
     <!-- Shear stress $\vert \tau \vert$ -->
     <g style="fill: #262626" transform="translate(654.619081 258.831401)">
      <text>
       <tspan style="font: 15.6px 'DejaVu Sans'" x="0 9.898376 19.781525 29.375336 38.931076 45.342178 50.298981 58.423264 64.537415 70.948517 80.542328 88.666611 96.790894 101.747696 116.389679" y="-0.078125">Shear stress ||</tspan>
       <tspan style="font: oblique 15.6px 'DejaVu Sans'" x="107.00145" y="-0.078125">τ</tspan>
      </text>
     </g>
    </g>
   </g>
   <g id="matplotlib.axis_8">
    <g id="ytick_15">
     <g id="line2d_22">
      <g>
       <use xlink:href="#m1ece07291e" x="629.62799" y="219.479683" style="fill: #262626; stroke: #262626; stroke-width: 1.25"/>
      </g>
     </g>
     <g id="text_26">
      <text style="fill: #262626; font: 14.3px 'Arial', 'DejaVu Sans', 'Liberation Sans', 'Bitstream Vera Sans', sans-serif; text-anchor: end" x="620.12799" y="224.912565" transform="rotate(-0 620.12799 224.912565)">0</text>
     </g>
    </g>
    <g id="ytick_16">
     <g id="line2d_23">
      <g>
       <use xlink:href="#m1ece07291e" x="629.62799" y="171.382517" style="fill: #262626; stroke: #262626; stroke-width: 1.25"/>
      </g>
     </g>
     <g id="text_27">
      <text style="fill: #262626; font: 14.3px 'Arial', 'DejaVu Sans', 'Liberation Sans', 'Bitstream Vera Sans', sans-serif; text-anchor: end" x="620.12799" y="176.815399" transform="rotate(-0 620.12799 176.815399)">10</text>
     </g>
    </g>
    <g id="ytick_17">
     <g id="line2d_24">
      <g>
       <use xlink:href="#m1ece07291e" x="629.62799" y="123.285351" style="fill: #262626; stroke: #262626; stroke-width: 1.25"/>
      </g>
     </g>
     <g id="text_28">
      <text style="fill: #262626; font: 14.3px 'Arial', 'DejaVu Sans', 'Liberation Sans', 'Bitstream Vera Sans', sans-serif; text-anchor: end" x="620.12799" y="128.718233" transform="rotate(-0 620.12799 128.718233)">20</text>
     </g>
    </g>
    <g id="text_29">
     <text style="fill: #262626; font: 15.6px 'Arial', 'DejaVu Sans', 'Liberation Sans', 'Bitstream Vera Sans', sans-serif; text-anchor: middle" x="594.686928" y="153.827051" transform="rotate(-90 594.686928 153.827051)">Count</text>
    </g>
   </g>
   <g id="patch_14">
    <path d="M 637.437908 219.479683 
L 645.247825 219.479683 
L 645.247825 219.479683 
L 637.437908 219.479683 
z
" clip-path="url(#p55801eccd3)" style="fill: #0173b2; opacity: 0.5; stroke: #ffffff; stroke-linejoin: miter"/>
   </g>
   <g id="patch_15">
    <path d="M 645.247825 219.479683 
L 653.057743 219.479683 
L 653.057743 219.479683 
L 645.247825 219.479683 
z
" clip-path="url(#p55801eccd3)" style="fill: #0173b2; opacity: 0.5; stroke: #ffffff; stroke-linejoin: miter"/>
   </g>
   <g id="patch_16">
    <path d="M 653.057743 219.479683 
L 660.867661 219.479683 
L 660.867661 214.669966 
L 653.057743 214.669966 
z
" clip-path="url(#p55801eccd3)" style="fill: #0173b2; opacity: 0.5; stroke: #ffffff; stroke-linejoin: miter"/>
   </g>
   <g id="patch_17">
    <path d="M 660.867661 219.479683 
L 668.677578 219.479683 
L 668.677578 209.860249 
L 660.867661 209.860249 
z
" clip-path="url(#p55801eccd3)" style="fill: #0173b2; opacity: 0.5; stroke: #ffffff; stroke-linejoin: miter"/>
   </g>
   <g id="patch_18">
    <path d="M 668.677578 219.479683 
L 676.487495 219.479683 
L 676.487495 200.240816 
L 668.677578 200.240816 
z
" clip-path="url(#p55801eccd3)" style="fill: #0173b2; opacity: 0.5; stroke: #ffffff; stroke-linejoin: miter"/>
   </g>
   <g id="patch_19">
    <path d="M 676.487495 219.479683 
L 684.297414 219.479683 
L 684.297414 205.050533 
L 676.487495 205.050533 
z
" clip-path="url(#p55801eccd3)" style="fill: #0173b2; opacity: 0.5; stroke: #ffffff; stroke-linejoin: miter"/>
   </g>
   <g id="patch_20">
    <path d="M 684.297414 219.479683 
L 692.107328 219.479683 
L 692.107328 176.192233 
L 684.297414 176.192233 
z
" clip-path="url(#p55801eccd3)" style="fill: #0173b2; opacity: 0.5; stroke: #ffffff; stroke-linejoin: miter"/>
   </g>
   <g id="patch_21">
    <path d="M 692.107328 219.479683 
L 699.917248 219.479683 
L 699.917248 181.00195 
L 692.107328 181.00195 
z
" clip-path="url(#p55801eccd3)" style="fill: #0173b2; opacity: 0.5; stroke: #ffffff; stroke-linejoin: miter"/>
   </g>
   <g id="patch_22">
    <path d="M 699.917248 219.479683 
L 707.727162 219.479683 
L 707.727162 156.953367 
L 699.917248 156.953367 
z
" clip-path="url(#p55801eccd3)" style="fill: #0173b2; opacity: 0.5; stroke: #ffffff; stroke-linejoin: miter"/>
   </g>
   <g id="patch_23">
    <path d="M 707.727162 219.479683 
L 715.537081 219.479683 
L 715.537081 166.5728 
L 707.727162 166.5728 
z
" clip-path="url(#p55801eccd3)" style="fill: #0173b2; opacity: 0.5; stroke: #ffffff; stroke-linejoin: miter"/>
   </g>
   <g id="patch_24">
    <path d="M 715.537081 219.479683 
L 723.347001 219.479683 
L 723.347001 176.192233 
L 715.537081 176.192233 
z
" clip-path="url(#p55801eccd3)" style="fill: #0173b2; opacity: 0.5; stroke: #ffffff; stroke-linejoin: miter"/>
   </g>
   <g id="patch_25">
    <path d="M 723.347001 219.479683 
L 731.15692 219.479683 
L 731.15692 171.382517 
L 723.347001 171.382517 
z
" clip-path="url(#p55801eccd3)" style="fill: #0173b2; opacity: 0.5; stroke: #ffffff; stroke-linejoin: miter"/>
   </g>
   <g id="patch_26">
    <path d="M 731.15692 219.479683 
L 738.96683 219.479683 
L 738.96683 99.236768 
L 731.15692 99.236768 
z
" clip-path="url(#p55801eccd3)" style="fill: #0173b2; opacity: 0.5; stroke: #ffffff; stroke-linejoin: miter"/>
   </g>
   <g id="patch_27">
    <path d="M 738.96683 219.479683 
L 746.776749 219.479683 
L 746.776749 132.904784 
L 738.96683 132.904784 
z
" clip-path="url(#p55801eccd3)" style="fill: #0173b2; opacity: 0.5; stroke: #ffffff; stroke-linejoin: miter"/>
   </g>
   <g id="patch_28">
    <path d="M 746.776749 219.479683 
L 754.586668 219.479683 
L 754.586668 205.050533 
L 746.776749 205.050533 
z
" clip-path="url(#p55801eccd3)" style="fill: #0173b2; opacity: 0.5; stroke: #ffffff; stroke-linejoin: miter"/>
   </g>
   <g id="patch_29">
    <path d="M 754.586668 219.479683 
L 762.396587 219.479683 
L 762.396587 219.479683 
L 754.586668 219.479683 
z
" clip-path="url(#p55801eccd3)" style="fill: #0173b2; opacity: 0.5; stroke: #ffffff; stroke-linejoin: miter"/>
   </g>
   <g id="patch_30">
    <path d="M 762.396587 219.479683 
L 770.206507 219.479683 
L 770.206507 219.479683 
L 762.396587 219.479683 
z
" clip-path="url(#p55801eccd3)" style="fill: #0173b2; opacity: 0.5; stroke: #ffffff; stroke-linejoin: miter"/>
   </g>
   <g id="patch_31">
    <path d="M 770.206507 219.479683 
L 778.016416 219.479683 
L 778.016416 219.479683 
L 770.206507 219.479683 
z
" clip-path="url(#p55801eccd3)" style="fill: #0173b2; opacity: 0.5; stroke: #ffffff; stroke-linejoin: miter"/>
   </g>
   <g id="patch_32">
    <path d="M 778.016416 219.479683 
L 785.826336 219.479683 
L 785.826336 219.479683 
L 778.016416 219.479683 
z
" clip-path="url(#p55801eccd3)" style="fill: #0173b2; opacity: 0.5; stroke: #ffffff; stroke-linejoin: miter"/>
   </g>
   <g id="patch_33">
    <path d="M 785.826336 219.479683 
L 793.636255 219.479683 
L 793.636255 219.479683 
L 785.826336 219.479683 
z
" clip-path="url(#p55801eccd3)" style="fill: #0173b2; opacity: 0.5; stroke: #ffffff; stroke-linejoin: miter"/>
   </g>
   <g id="patch_34">
    <path d="M 637.437908 219.479683 
L 645.247825 219.479683 
L 645.247825 219.479683 
L 637.437908 219.479683 
z
" clip-path="url(#p55801eccd3)" style="fill: #029e73; opacity: 0.5; stroke: #ffffff; stroke-linejoin: miter"/>
   </g>
   <g id="patch_35">
    <path d="M 645.247825 219.479683 
L 653.057743 219.479683 
L 653.057743 214.669966 
L 645.247825 214.669966 
z
" clip-path="url(#p55801eccd3)" style="fill: #029e73; opacity: 0.5; stroke: #ffffff; stroke-linejoin: miter"/>
   </g>
   <g id="patch_36">
    <path d="M 653.057743 219.479683 
L 660.867661 219.479683 
L 660.867661 209.860249 
L 653.057743 209.860249 
z
" clip-path="url(#p55801eccd3)" style="fill: #029e73; opacity: 0.5; stroke: #ffffff; stroke-linejoin: miter"/>
   </g>
   <g id="patch_37">
    <path d="M 660.867661 219.479683 
L 668.677578 219.479683 
L 668.677578 200.240816 
L 660.867661 200.240816 
z
" clip-path="url(#p55801eccd3)" style="fill: #029e73; opacity: 0.5; stroke: #ffffff; stroke-linejoin: miter"/>
   </g>
   <g id="patch_38">
    <path d="M 668.677578 219.479683 
L 676.487495 219.479683 
L 676.487495 181.00195 
L 668.677578 181.00195 
z
" clip-path="url(#p55801eccd3)" style="fill: #029e73; opacity: 0.5; stroke: #ffffff; stroke-linejoin: miter"/>
   </g>
   <g id="patch_39">
    <path d="M 676.487495 219.479683 
L 684.297414 219.479683 
L 684.297414 190.621383 
L 676.487495 190.621383 
z
" clip-path="url(#p55801eccd3)" style="fill: #029e73; opacity: 0.5; stroke: #ffffff; stroke-linejoin: miter"/>
   </g>
   <g id="patch_40">
    <path d="M 684.297414 219.479683 
L 692.107328 219.479683 
L 692.107328 195.4311 
L 684.297414 195.4311 
z
" clip-path="url(#p55801eccd3)" style="fill: #029e73; opacity: 0.5; stroke: #ffffff; stroke-linejoin: miter"/>
   </g>
   <g id="patch_41">
    <path d="M 692.107328 219.479683 
L 699.917248 219.479683 
L 699.917248 185.811666 
L 692.107328 185.811666 
z
" clip-path="url(#p55801eccd3)" style="fill: #029e73; opacity: 0.5; stroke: #ffffff; stroke-linejoin: miter"/>
   </g>
   <g id="patch_42">
    <path d="M 699.917248 219.479683 
L 707.727162 219.479683 
L 707.727162 176.192233 
L 699.917248 176.192233 
z
" clip-path="url(#p55801eccd3)" style="fill: #029e73; opacity: 0.5; stroke: #ffffff; stroke-linejoin: miter"/>
   </g>
   <g id="patch_43">
    <path d="M 707.727162 219.479683 
L 715.537081 219.479683 
L 715.537081 185.811666 
L 707.727162 185.811666 
z
" clip-path="url(#p55801eccd3)" style="fill: #029e73; opacity: 0.5; stroke: #ffffff; stroke-linejoin: miter"/>
   </g>
   <g id="patch_44">
    <path d="M 715.537081 219.479683 
L 723.347001 219.479683 
L 723.347001 161.763083 
L 715.537081 161.763083 
z
" clip-path="url(#p55801eccd3)" style="fill: #029e73; opacity: 0.5; stroke: #ffffff; stroke-linejoin: miter"/>
   </g>
   <g id="patch_45">
    <path d="M 723.347001 219.479683 
L 731.15692 219.479683 
L 731.15692 132.904784 
L 723.347001 132.904784 
z
" clip-path="url(#p55801eccd3)" style="fill: #029e73; opacity: 0.5; stroke: #ffffff; stroke-linejoin: miter"/>
   </g>
   <g id="patch_46">
    <path d="M 731.15692 219.479683 
L 738.96683 219.479683 
L 738.96683 108.856201 
L 731.15692 108.856201 
z
" clip-path="url(#p55801eccd3)" style="fill: #029e73; opacity: 0.5; stroke: #ffffff; stroke-linejoin: miter"/>
   </g>
   <g id="patch_47">
    <path d="M 738.96683 219.479683 
L 746.776749 219.479683 
L 746.776749 152.14365 
L 738.96683 152.14365 
z
" clip-path="url(#p55801eccd3)" style="fill: #029e73; opacity: 0.5; stroke: #ffffff; stroke-linejoin: miter"/>
   </g>
   <g id="patch_48">
    <path d="M 746.776749 219.479683 
L 754.586668 219.479683 
L 754.586668 219.479683 
L 746.776749 219.479683 
z
" clip-path="url(#p55801eccd3)" style="fill: #029e73; opacity: 0.5; stroke: #ffffff; stroke-linejoin: miter"/>
   </g>
   <g id="patch_49">
    <path d="M 754.586668 219.479683 
L 762.396587 219.479683 
L 762.396587 219.479683 
L 754.586668 219.479683 
z
" clip-path="url(#p55801eccd3)" style="fill: #029e73; opacity: 0.5; stroke: #ffffff; stroke-linejoin: miter"/>
   </g>
   <g id="patch_50">
    <path d="M 762.396587 219.479683 
L 770.206507 219.479683 
L 770.206507 219.479683 
L 762.396587 219.479683 
z
" clip-path="url(#p55801eccd3)" style="fill: #029e73; opacity: 0.5; stroke: #ffffff; stroke-linejoin: miter"/>
   </g>
   <g id="patch_51">
    <path d="M 770.206507 219.479683 
L 778.016416 219.479683 
L 778.016416 219.479683 
L 770.206507 219.479683 
z
" clip-path="url(#p55801eccd3)" style="fill: #029e73; opacity: 0.5; stroke: #ffffff; stroke-linejoin: miter"/>
   </g>
   <g id="patch_52">
    <path d="M 778.016416 219.479683 
L 785.826336 219.479683 
L 785.826336 219.479683 
L 778.016416 219.479683 
z
" clip-path="url(#p55801eccd3)" style="fill: #029e73; opacity: 0.5; stroke: #ffffff; stroke-linejoin: miter"/>
   </g>
   <g id="patch_53">
    <path d="M 785.826336 219.479683 
L 793.636255 219.479683 
L 793.636255 219.479683 
L 785.826336 219.479683 
z
" clip-path="url(#p55801eccd3)" style="fill: #029e73; opacity: 0.5; stroke: #ffffff; stroke-linejoin: miter"/>
   </g>
   <g id="patch_54">
    <path d="M 637.437908 219.479683 
L 645.247825 219.479683 
L 645.247825 219.479683 
L 637.437908 219.479683 
z
" clip-path="url(#p55801eccd3)" style="fill: #de8f05; opacity: 0.5; stroke: #ffffff; stroke-linejoin: miter"/>
   </g>
   <g id="patch_55">
    <path d="M 645.247825 219.479683 
L 653.057743 219.479683 
L 653.057743 209.860249 
L 645.247825 209.860249 
z
" clip-path="url(#p55801eccd3)" style="fill: #de8f05; opacity: 0.5; stroke: #ffffff; stroke-linejoin: miter"/>
   </g>
   <g id="patch_56">
    <path d="M 653.057743 219.479683 
L 660.867661 219.479683 
L 660.867661 190.621383 
L 653.057743 190.621383 
z
" clip-path="url(#p55801eccd3)" style="fill: #de8f05; opacity: 0.5; stroke: #ffffff; stroke-linejoin: miter"/>
   </g>
   <g id="patch_57">
    <path d="M 660.867661 219.479683 
L 668.677578 219.479683 
L 668.677578 185.811666 
L 660.867661 185.811666 
z
" clip-path="url(#p55801eccd3)" style="fill: #de8f05; opacity: 0.5; stroke: #ffffff; stroke-linejoin: miter"/>
   </g>
   <g id="patch_58">
    <path d="M 668.677578 219.479683 
L 676.487495 219.479683 
L 676.487495 185.811666 
L 668.677578 185.811666 
z
" clip-path="url(#p55801eccd3)" style="fill: #de8f05; opacity: 0.5; stroke: #ffffff; stroke-linejoin: miter"/>
   </g>
   <g id="patch_59">
    <path d="M 676.487495 219.479683 
L 684.297414 219.479683 
L 684.297414 195.4311 
L 676.487495 195.4311 
z
" clip-path="url(#p55801eccd3)" style="fill: #de8f05; opacity: 0.5; stroke: #ffffff; stroke-linejoin: miter"/>
   </g>
   <g id="patch_60">
    <path d="M 684.297414 219.479683 
L 692.107328 219.479683 
L 692.107328 205.050533 
L 684.297414 205.050533 
z
" clip-path="url(#p55801eccd3)" style="fill: #de8f05; opacity: 0.5; stroke: #ffffff; stroke-linejoin: miter"/>
   </g>
   <g id="patch_61">
    <path d="M 692.107328 219.479683 
L 699.917248 219.479683 
L 699.917248 181.00195 
L 692.107328 181.00195 
z
" clip-path="url(#p55801eccd3)" style="fill: #de8f05; opacity: 0.5; stroke: #ffffff; stroke-linejoin: miter"/>
   </g>
   <g id="patch_62">
    <path d="M 699.917248 219.479683 
L 707.727162 219.479683 
L 707.727162 185.811666 
L 699.917248 185.811666 
z
" clip-path="url(#p55801eccd3)" style="fill: #de8f05; opacity: 0.5; stroke: #ffffff; stroke-linejoin: miter"/>
   </g>
   <g id="patch_63">
    <path d="M 707.727162 219.479683 
L 715.537081 219.479683 
L 715.537081 181.00195 
L 707.727162 181.00195 
z
" clip-path="url(#p55801eccd3)" style="fill: #de8f05; opacity: 0.5; stroke: #ffffff; stroke-linejoin: miter"/>
   </g>
   <g id="patch_64">
    <path d="M 715.537081 219.479683 
L 723.347001 219.479683 
L 723.347001 137.7145 
L 715.537081 137.7145 
z
" clip-path="url(#p55801eccd3)" style="fill: #de8f05; opacity: 0.5; stroke: #ffffff; stroke-linejoin: miter"/>
   </g>
   <g id="patch_65">
    <path d="M 723.347001 219.479683 
L 731.15692 219.479683 
L 731.15692 166.5728 
L 723.347001 166.5728 
z
" clip-path="url(#p55801eccd3)" style="fill: #de8f05; opacity: 0.5; stroke: #ffffff; stroke-linejoin: miter"/>
   </g>
   <g id="patch_66">
    <path d="M 731.15692 219.479683 
L 738.96683 219.479683 
L 738.96683 94.427051 
L 731.15692 94.427051 
z
" clip-path="url(#p55801eccd3)" style="fill: #de8f05; opacity: 0.5; stroke: #ffffff; stroke-linejoin: miter"/>
   </g>
   <g id="patch_67">
    <path d="M 738.96683 219.479683 
L 746.776749 219.479683 
L 746.776749 176.192233 
L 738.96683 176.192233 
z
" clip-path="url(#p55801eccd3)" style="fill: #de8f05; opacity: 0.5; stroke: #ffffff; stroke-linejoin: miter"/>
   </g>
   <g id="patch_68">
    <path d="M 746.776749 219.479683 
L 754.586668 219.479683 
L 754.586668 219.479683 
L 746.776749 219.479683 
z
" clip-path="url(#p55801eccd3)" style="fill: #de8f05; opacity: 0.5; stroke: #ffffff; stroke-linejoin: miter"/>
   </g>
   <g id="patch_69">
    <path d="M 754.586668 219.479683 
L 762.396587 219.479683 
L 762.396587 219.479683 
L 754.586668 219.479683 
z
" clip-path="url(#p55801eccd3)" style="fill: #de8f05; opacity: 0.5; stroke: #ffffff; stroke-linejoin: miter"/>
   </g>
   <g id="patch_70">
    <path d="M 762.396587 219.479683 
L 770.206507 219.479683 
L 770.206507 219.479683 
L 762.396587 219.479683 
z
" clip-path="url(#p55801eccd3)" style="fill: #de8f05; opacity: 0.5; stroke: #ffffff; stroke-linejoin: miter"/>
   </g>
   <g id="patch_71">
    <path d="M 770.206507 219.479683 
L 778.016416 219.479683 
L 778.016416 219.479683 
L 770.206507 219.479683 
z
" clip-path="url(#p55801eccd3)" style="fill: #de8f05; opacity: 0.5; stroke: #ffffff; stroke-linejoin: miter"/>
   </g>
   <g id="patch_72">
    <path d="M 778.016416 219.479683 
L 785.826336 219.479683 
L 785.826336 219.479683 
L 778.016416 219.479683 
z
" clip-path="url(#p55801eccd3)" style="fill: #de8f05; opacity: 0.5; stroke: #ffffff; stroke-linejoin: miter"/>
   </g>
   <g id="patch_73">
    <path d="M 785.826336 219.479683 
L 793.636255 219.479683 
L 793.636255 219.479683 
L 785.826336 219.479683 
z
" clip-path="url(#p55801eccd3)" style="fill: #de8f05; opacity: 0.5; stroke: #ffffff; stroke-linejoin: miter"/>
   </g>
   <g id="patch_74">
    <path d="M 629.62799 219.479683 
L 629.62799 88.174419 
" style="fill: none; stroke: #262626; stroke-width: 1.25; stroke-linejoin: miter; stroke-linecap: square"/>
   </g>
   <g id="patch_75">
    <path d="M 801.446172 219.479683 
L 801.446172 88.174419 
" style="fill: none; stroke: #262626; stroke-width: 1.25; stroke-linejoin: miter; stroke-linecap: square"/>
   </g>
   <g id="patch_76">
    <path d="M 629.62799 219.479683 
L 801.446172 219.479683 
" style="fill: none; stroke: #262626; stroke-width: 1.25; stroke-linejoin: miter; stroke-linecap: square"/>
   </g>
   <g id="patch_77">
    <path d="M 629.62799 88.174419 
L 801.446172 88.174419 
" style="fill: none; stroke: #262626; stroke-width: 1.25; stroke-linejoin: miter; stroke-linecap: square"/>
   </g>
   <g id="text_30">
    <text style="fill: #262626; font: 20px 'Arial', 'DejaVu Sans', 'Liberation Sans', 'Bitstream Vera Sans', sans-serif; text-anchor: start" x="586.673445" y="77.110242" transform="rotate(-0 586.673445 77.110242)">(c)</text>
   </g>
   <g id="legend_2">
    <g id="patch_78">
     <path d="M 596.683445 74.459156 
L 813.755211 74.459156 
Q 816.615211 74.459156 816.615211 71.599156 
L 816.615211 10.06 
Q 816.615211 7.2 813.755211 7.2 
L 596.683445 7.2 
Q 593.823445 7.2 593.823445 10.06 
L 593.823445 71.599156 
Q 593.823445 74.459156 596.683445 74.459156 
z
" style="fill: #ffffff; opacity: 0.8; stroke: #cccccc; stroke-linejoin: miter"/>
    </g>
    <g id="patch_79">
     <path d="M 599.543445 23.785766 
L 628.143445 23.785766 
L 628.143445 13.775766 
L 599.543445 13.775766 
z
" style="fill: #0173b2; opacity: 0.5; stroke: #ffffff; stroke-linejoin: miter"/>
    </g>
    <g id="text_31">
     <text style="fill: #262626; font: 14.3px 'Arial', 'DejaVu Sans', 'Liberation Sans', 'Bitstream Vera Sans', sans-serif; text-anchor: start" x="639.583445" y="23.785766" transform="rotate(-0 639.583445 23.785766)">Linear</text>
    </g>
    <g id="patch_80">
     <path d="M 599.543445 44.775484 
L 628.143445 44.775484 
L 628.143445 34.765484 
L 599.543445 34.765484 
z
" style="fill: #029e73; opacity: 0.5; stroke: #ffffff; stroke-linejoin: miter"/>
    </g>
    <g id="text_32">
     <text style="fill: #262626; font: 14.3px 'Arial', 'DejaVu Sans', 'Liberation Sans', 'Bitstream Vera Sans', sans-serif; text-anchor: start" x="639.583445" y="44.775484" transform="rotate(-0 639.583445 44.775484)">Iterative constant shear</text>
    </g>
    <g id="patch_81">
     <path d="M 599.543445 65.765203 
L 628.143445 65.765203 
L 628.143445 55.755203 
L 599.543445 55.755203 
z
" style="fill: #de8f05; opacity: 0.5; stroke: #ffffff; stroke-linejoin: miter"/>
    </g>
    <g id="text_33">
     <text style="fill: #262626; font: 14.3px 'Arial', 'DejaVu Sans', 'Liberation Sans', 'Bitstream Vera Sans', sans-serif; text-anchor: start" x="639.583445" y="65.765203" transform="rotate(-0 639.583445 65.765203)">Iterative variable shear</text>
    </g>
   </g>
  </g>
  <g id="text_34">
   <text style="fill: #262626; font: 18.72px 'Arial', 'DejaVu Sans', 'Liberation Sans', 'Bitstream Vera Sans', sans-serif; text-anchor: middle" x="423.446172" y="37.598694" transform="rotate(-0 423.446172 37.598694)">Geysers data set</text>
  </g>
 </g>
 <defs>
  <clipPath id="pbbb4f0e2e5">
   <path d="M 131.355263 219.479683 
C 148.766545 219.479683 165.467049 212.562107 177.778684 200.250472 
C 190.090319 187.938837 197.007895 171.238332 197.007895 153.827051 
C 197.007895 136.41577 190.090319 119.715265 177.778684 107.40363 
C 165.467049 95.091995 148.766545 88.174419 131.355263 88.174419 
C 113.943982 88.174419 97.243477 95.091995 84.931842 107.40363 
C 72.620207 119.715265 65.702632 136.41577 65.702632 153.827051 
C 65.702632 171.238332 72.620207 187.938837 84.931842 200.250472 
C 97.243477 212.562107 113.943982 219.479683 131.355263 219.479683 
z
"/>
  </clipPath>
  <clipPath id="pac074e30cf">
   <rect x="337.537081" y="88.174419" width="171.818182" height="131.305263"/>
  </clipPath>
  <clipPath id="p55801eccd3">
   <rect x="629.62799" y="88.174419" width="171.818182" height="131.305263"/>
  </clipPath>
 </defs>
</svg>
