<?xml version="1.0" encoding="utf-8" standalone="no"?>
<!DOCTYPE svg PUBLIC "-//W3C//DTD SVG 1.1//EN"
  "http://www.w3.org/Graphics/SVG/1.1/DTD/svg11.dtd">
<svg xmlns:xlink="http://www.w3.org/1999/xlink" width="823.815211pt" height="390.416018pt" viewBox="0 0 823.815211 390.416018" xmlns="http://www.w3.org/2000/svg" version="1.1">
 <metadata>
  <rdf:RDF xmlns:dc="http://purl.org/dc/elements/1.1/" xmlns:cc="http://creativecommons.org/ns#" xmlns:rdf="http://www.w3.org/1999/02/22-rdf-syntax-ns#">
   <cc:Work>
    <dc:type rdf:resource="http://purl.org/dc/dcmitype/StillImage"/>
    <dc:date>2023-01-31T16:50:58.249359</dc:date>
    <dc:format>image/svg+xml</dc:format>
    <dc:creator>
     <cc:Agent>
      <dc:title>Matplotlib v3.6.1, https://matplotlib.org/</dc:title>
     </cc:Agent>
    </dc:creator>
   </cc:Work>
  </rdf:RDF>
 </metadata>
 <defs>
  <style type="text/css">*{stroke-linejoin: round; stroke-linecap: butt}</style>
 </defs>
 <g id="figure_1">
  <g id="patch_1">
   <path d="M 0 390.416018 
L 823.815211 390.416018 
L 823.815211 0 
L 0 0 
z
" style="fill: #ffffff"/>
  </g>
  <g id="axes_1">
   <g id="matplotlib.axis_1">
    <g id="xtick_1">
     <g id="text_1">
      <text style="fill: #262626; font: 14.3px 'Arial', 'DejaVu Sans', 'Liberation Sans', 'Bitstream Vera Sans', sans-serif; text-anchor: middle" x="131.355263" y="75.620326" transform="rotate(-0 131.355263 75.620326)">0°</text>
     </g>
    </g>
    <g id="xtick_2">
     <g id="text_2">
      <text style="fill: #262626; font: 14.3px 'Arial', 'DejaVu Sans', 'Liberation Sans', 'Bitstream Vera Sans', sans-serif; text-anchor: middle" x="189.445946" y="99.682274" transform="rotate(-0 189.445946 99.682274)">45°</text>
     </g>
    </g>
    <g id="xtick_3">
     <g id="text_3">
      <text style="fill: #262626; font: 14.3px 'Arial', 'DejaVu Sans', 'Liberation Sans', 'Bitstream Vera Sans', sans-serif; text-anchor: middle" x="213.507895" y="157.772957" transform="rotate(-0 213.507895 157.772957)">90°</text>
     </g>
    </g>
    <g id="xtick_4">
     <g id="text_4">
      <text style="fill: #262626; font: 14.3px 'Arial', 'DejaVu Sans', 'Liberation Sans', 'Bitstream Vera Sans', sans-serif; text-anchor: middle" x="189.445946" y="215.86364" transform="rotate(-0 189.445946 215.86364)">135°</text>
     </g>
    </g>
    <g id="xtick_5">
     <g id="text_5">
      <text style="fill: #262626; font: 14.3px 'Arial', 'DejaVu Sans', 'Liberation Sans', 'Bitstream Vera Sans', sans-serif; text-anchor: middle" x="131.355263" y="239.925589" transform="rotate(-0 131.355263 239.925589)">180°</text>
     </g>
    </g>
    <g id="xtick_6">
     <g id="text_6">
      <text style="fill: #262626; font: 14.3px 'Arial', 'DejaVu Sans', 'Liberation Sans', 'Bitstream Vera Sans', sans-serif; text-anchor: middle" x="73.26458" y="215.86364" transform="rotate(-0 73.26458 215.86364)">225°</text>
     </g>
    </g>
    <g id="xtick_7">
     <g id="text_7">
      <text style="fill: #262626; font: 14.3px 'Arial', 'DejaVu Sans', 'Liberation Sans', 'Bitstream Vera Sans', sans-serif; text-anchor: middle" x="49.202632" y="157.772957" transform="rotate(-0 49.202632 157.772957)">270°</text>
     </g>
    </g>
    <g id="xtick_8">
     <g id="text_8">
      <text style="fill: #262626; font: 14.3px 'Arial', 'DejaVu Sans', 'Liberation Sans', 'Bitstream Vera Sans', sans-serif; text-anchor: middle" x="73.26458" y="99.682274" transform="rotate(-0 73.26458 99.682274)">315°</text>
     </g>
    </g>
   </g>
   <g id="matplotlib.axis_2"/>
  </g>
  <g id="axes_2">
   <g id="patch_2">
    <path d="M 131.355263 219.479683 
C 148.766545 219.479683 165.467049 212.562107 177.778684 200.250472 
C 190.090319 187.938837 197.007895 171.238332 197.007895 153.827051 
C 197.007895 136.41577 190.090319 119.715265 177.778684 107.40363 
C 165.467049 95.091995 148.766545 88.174419 131.355263 88.174419 
C 113.943982 88.174419 97.243477 95.091995 84.931842 107.40363 
C 72.620207 119.715265 65.702632 136.41577 65.702632 153.827051 
C 65.702632 171.238332 72.620207 187.938837 84.931842 200.250472 
C 97.243477 212.562107 113.943982 219.479683 131.355263 219.479683 
z
" style="fill: #ffffff"/>
   </g>
   <g id="matplotlib.axis_3">
    <g id="xtick_9"/>
    <g id="xtick_10"/>
    <g id="xtick_11"/>
    <g id="xtick_12"/>
    <g id="xtick_13"/>
    <g id="xtick_14"/>
    <g id="xtick_15"/>
    <g id="xtick_16"/>
    <g id="xtick_17"/>
    <g id="xtick_18"/>
    <g id="xtick_19"/>
    <g id="xtick_20"/>
   </g>
   <g id="matplotlib.axis_4">
    <g id="ytick_1"/>
    <g id="ytick_2"/>
    <g id="ytick_3"/>
    <g id="ytick_4"/>
    <g id="ytick_5"/>
    <g id="ytick_6"/>
    <g id="ytick_7"/>
    <g id="ytick_8"/>
    <g id="ytick_9"/>
    <g id="ytick_10"/>
    <g id="ytick_11"/>
   </g>
   <g id="PathCollection_1">
    <path d="M 119.411091 212.628446 
L 118.741845 212.14001 
L 118.108879 211.630867 
L 117.900277 211.446363 
L 117.51174 211.102059 
L 116.954093 210.553008 
L 116.450407 209.979041 
L 116.409756 209.927018 
L 115.988549 209.386599 
L 115.748521 209.018374 
L 115.589187 208.769294 
L 115.32835 208.277381 
L 115.253626 208.128883 
L 115.047968 207.631132 
L 114.987477 207.465764 
L 114.862924 207.048023 
L 114.802257 206.778795 
L 114.754049 206.516763 
L 114.718121 206.064998 
L 114.716352 206.039356 
L 114.706813 205.570902 
L 114.736188 205.328202 
L 114.752585 205.147427 
L 114.83264 204.747137 
L 114.89555 204.562276 
L 114.945464 204.37099 
L 115.08497 204.013435 
L 115.230562 203.765296 
L 115.262746 203.693525 
L 115.443291 203.362262 
L 115.665683 203.079156 
L 115.811521 202.930464 
L 115.904003 202.80785 
L 116.151588 202.538613 
L 116.429331 202.307467 
L 116.731341 202.107945 
L 116.878119 202.025932 
L 117.039874 201.910876 
L 117.359308 201.724744 
L 117.698483 201.567901 
L 118.054358 201.437214 
L 118.424692 201.330663 
L 118.807881 201.247235 
L 119.202855 201.186887 
L 119.609007 201.150583 
L 120.026166 201.140403 
L 120.454596 201.159757 
L 120.895042 201.21372 
L 121.348809 201.309539 
L 121.453607 201.339103 
L 121.802452 201.414946 
L 122.265704 201.55883 
L 122.745818 201.767261 
L 122.870783 201.831673 
L 123.22708 201.99974 
L 123.723565 202.304452 
L 123.829052 202.378409 
L 124.225117 202.656984 
L 124.568942 202.946567 
L 124.7429 203.102593 
L 125.164711 203.526273 
L 125.276458 203.652378 
L 125.661331 204.112157 
L 125.835572 204.357407 
L 126.077852 204.701833 
L 126.420558 205.294279 
L 126.450258 205.354294 
L 126.725083 205.886444 
L 126.974877 206.479437 
L 127.182324 207.072232 
L 127.357462 207.664065 
L 127.506164 208.254531 
L 127.631195 208.843495 
L 127.732714 209.431076 
L 127.808345 210.017685 
L 127.821669 210.165152 
L 127.876374 210.601985 
L 127.921684 211.185613 
L 127.92192 211.190028 
L 127.967914 211.766656 
L 127.976461 211.939879 
L 128.002848 212.346661 
L 128.01247 212.542717 
L 128.032017 212.925558 
L 128.038545 213.04754 
L 128.057415 213.478225 
L 128.058369 213.503618 
L 128.083287 213.875357 
L 128.08841 214.08072 
L 128.09889 214.212251 
L 128.115252 214.517467 
L 128.115527 214.65885 
L 128.127639 214.787782 
L 128.141933 215.037179 
L 128.136377 215.236413 
L 128.136111 215.240517 
L 128.154372 215.45291 
L 128.15499 215.629467 
L 128.140743 215.774322 
L 128.129278 215.833605 
L 128.13209 215.916227 
L 128.124656 216.050267 
L 128.103183 216.160132 
L 128.068997 216.249915 
L 128.022851 216.322539 
L 127.965007 216.380039 
L 127.895269 216.423749 
L 127.812996 216.454421 
L 127.717085 216.472304 
L 127.605936 216.477178 
L 127.477397 216.468375 
L 127.328688 216.444766 
L 127.156305 216.404734 
L 126.955911 216.346119 
L 126.722178 216.266135 
L 126.673848 216.248374 
L 126.489127 216.192125 
L 126.228336 216.102597 
L 125.923257 215.986382 
L 125.739179 215.912252 
L 125.592589 215.858389 
L 125.236244 215.719134 
L 124.854352 215.557645 
L 124.815087 215.541625 
L 124.366374 215.353057 
L 123.998824 215.188568 
L 123.831027 215.112866 
L 123.203488 214.817959 
L 123.172202 214.803001 
L 122.440154 214.438116 
L 122.369097 214.402085 
L 121.590221 213.984865 
L 121.422592 213.888509 
L 120.834772 213.551435 
L 120.108806 213.099028 
L 119.586857 212.746842 
L 119.411091 212.628446 
z
" clip-path="url(#p5cb0e094a6)" style="fill: none; stroke: #0173b2; stroke-width: 0.75"/>
   </g>
   <g id="PathCollection_2">
    <path d="M 142.543447 148.320675 
L 142.324191 147.589226 
L 142.176031 146.857881 
L 142.085423 146.12663 
L 142.045139 145.39544 
L 142.053075 144.664237 
L 142.111901 143.932884 
L 142.229485 143.20115 
L 142.383656 142.59547 
L 142.408211 142.468826 
L 142.604442 141.736429 
L 142.895609 141.00251 
L 142.999908 140.791084 
L 143.232976 140.267594 
L 143.629991 139.607136 
L 143.675217 139.530153 
L 144.193699 138.790199 
L 144.264643 138.701276 
L 144.836567 138.045844 
L 144.902181 137.976324 
L 145.541519 137.377264 
L 145.647596 137.294626 
L 146.181501 136.865582 
L 146.737806 136.530863 
L 146.826767 136.471583 
L 147.470474 136.110077 
L 148.120739 135.848679 
L 148.501747 135.734776 
L 148.773033 135.634173 
L 149.427012 135.457573 
L 150.086481 135.343864 
L 150.751304 135.284955 
L 151.421881 135.278289 
L 152.09922 135.326438 
L 152.785088 135.437528 
L 153.108162 135.519493 
L 153.476789 135.589498 
L 154.174894 135.784338 
L 154.88806 136.077875 
L 155.047027 136.157886 
L 155.607294 136.40915 
L 156.30549 136.836048 
L 156.344802 136.859096 
L 157.091438 137.369413 
L 157.295045 137.532828 
L 157.856923 138.00955 
L 158.105795 138.243274 
L 158.644596 138.813413 
L 158.782458 138.96463 
L 159.361343 139.694522 
L 159.45981 139.841775 
L 159.873172 140.430934 
L 160.275439 141.175593 
L 160.318731 141.271027 
L 160.651648 141.923877 
L 160.944681 142.678123 
L 161.165163 143.437235 
L 161.308001 144.105892 
L 161.331408 144.199893 
L 161.460454 144.965011 
L 161.524974 145.733125 
L 161.524367 146.503645 
L 161.516975 146.595166 
L 161.485232 147.275259 
L 161.388777 148.048023 
L 161.214927 148.821777 
L 160.993011 149.4653 
L 160.954559 149.595938 
L 160.656224 150.369065 
L 160.353377 150.929219 
L 160.243256 151.141602 
L 159.735748 151.912409 
L 159.683768 151.981165 
L 159.119791 152.680784 
L 158.999596 152.812198 
L 158.33468 153.446001 
L 158.306719 153.471382 
L 157.608451 154.034716 
L 157.335029 154.20683 
L 156.906507 154.492393 
L 156.202233 154.849624 
L 155.914033 154.96126 
L 155.496131 155.151385 
L 154.788772 155.389546 
L 154.080742 155.5488 
L 153.372078 155.646595 
L 152.662758 155.693355 
L 151.952751 155.694236 
L 151.242036 155.649968 
L 150.530603 155.556984 
L 149.818435 155.406854 
L 149.105484 155.184906 
L 148.536589 154.94008 
L 148.391482 154.887741 
L 147.675885 154.563355 
L 147.081883 154.197005 
L 146.958796 154.126792 
L 146.23962 153.632531 
L 146.025838 153.457805 
L 145.51795 153.0333 
L 145.192677 152.720893 
L 144.792983 152.299282 
L 144.514892 151.985519 
L 144.063374 151.383799 
L 143.963636 151.251214 
L 143.48919 150.517802 
L 143.32646 150.195749 
L 143.096915 149.785028 
L 142.778746 149.05273 
L 142.572895 148.397939 
L 142.543447 148.320675 
z
" clip-path="url(#p5cb0e094a6)" style="fill: none; stroke-dasharray: 2.775,1.2; stroke-dashoffset: 0; stroke: #0173b2; stroke-width: 0.75"/>
   </g>
   <g id="PathCollection_3">
    <path d="M 73.429703 142.083552 
L 73.463911 141.133817 
L 73.572207 140.192969 
L 73.744136 139.261536 
L 73.975299 138.34064 
L 74.266502 137.432168 
L 74.623928 136.539078 
L 74.878237 136.014759 
L 75.037506 135.661003 
L 75.496174 134.796867 
L 76.031478 133.992246 
L 76.05211 133.959701 
L 76.644116 133.13702 
L 76.997451 132.728814 
L 77.3338 132.344359 
L 77.869389 131.814352 
L 78.119597 131.582718 
L 78.681759 131.107925 
L 79.021425 130.857946 
L 79.447914 130.553245 
L 80.0961 130.184613 
L 80.166617 130.142622 
L 80.870936 129.781143 
L 81.443867 129.586614 
L 81.528393 129.551704 
L 82.181626 129.339674 
L 82.798324 129.228803 
L 83.388742 129.191908 
L 83.667805 129.200136 
L 83.968501 129.18841 
L 84.533244 129.230324 
L 85.077356 129.333746 
L 85.602195 129.497003 
L 86.105677 129.723725 
L 86.107181 129.724288 
L 86.610979 129.966246 
L 87.096629 130.272666 
L 87.558303 130.665257 
L 87.776234 130.901721 
L 88.008037 131.114351 
L 88.442684 131.635158 
L 88.611619 131.890909 
L 88.859934 132.242897 
L 89.171892 132.817924 
L 89.252818 132.972247 
L 89.577329 133.710732 
L 89.623357 133.833691 
L 89.884177 134.582105 
L 89.961473 134.889523 
L 90.108069 135.437088 
L 90.23776 136.276735 
L 90.239781 136.29953 
L 90.352317 137.111808 
L 90.383298 137.935885 
L 90.35686 138.680031 
L 90.357981 138.753253 
L 90.31549 139.568493 
L 90.217769 140.37876 
L 90.069423 141.185359 
L 89.86857 141.988968 
L 89.699106 142.51197 
L 89.621783 142.790856 
L 89.348719 143.592992 
L 89.002378 144.392973 
L 88.750331 144.864689 
L 88.593402 145.192457 
L 88.122614 145.992418 
L 87.963911 146.2226 
L 87.580033 146.793337 
L 87.231151 147.234031 
L 86.933078 147.594967 
L 86.528547 148.03958 
L 86.162473 148.398225 
L 85.846034 148.700117 
L 85.207013 149.203121 
L 85.17963 149.225693 
L 84.521428 149.712123 
L 83.968731 150.009983 
L 83.875458 150.068491 
L 83.23471 150.406846 
L 82.602742 150.642195 
L 81.977586 150.801035 
L 81.918781 150.811132 
L 81.356229 150.947458 
L 80.740793 151.026878 
L 80.131054 151.041618 
L 79.526997 150.993127 
L 78.929023 150.8769 
L 78.446762 150.720156 
L 78.337565 150.692752 
L 77.751083 150.484989 
L 77.173357 150.186971 
L 76.607701 149.764562 
L 76.604039 149.761341 
L 76.04945 149.323935 
L 75.587348 148.805384 
L 75.50978 148.720872 
L 74.987532 148.021447 
L 74.878925 147.845973 
L 74.492666 147.157537 
L 74.360729 146.883792 
L 74.039894 146.060219 
L 73.989307 145.920938 
L 73.716684 144.957253 
L 73.656505 144.619837 
L 73.534404 143.994819 
L 73.444983 143.036775 
L 73.440853 142.398196 
L 73.429703 142.083552 
z
" clip-path="url(#p5cb0e094a6)" style="fill: none; stroke-dasharray: 4.8,1.2,0.75,1.2; stroke-dashoffset: 0; stroke: #0173b2; stroke-width: 0.75"/>
   </g>
   <g id="PathCollection_4">
    <path d="M 119.325787 211.893229 
L 118.699475 211.385547 
L 118.110275 210.85871 
L 118.107684 210.856178 
L 117.553819 210.315175 
L 117.041377 209.751514 
L 116.594988 209.176324 
L 116.585616 209.164325 
L 116.169644 208.56113 
L 115.979072 208.223269 
L 115.818437 207.934682 
L 115.602243 207.452569 
L 115.531234 207.287306 
L 115.357766 206.778151 
L 115.309513 206.620623 
L 115.200747 206.163879 
L 115.159052 205.93508 
L 115.112673 205.597117 
L 115.093356 205.229328 
L 115.088186 205.078664 
L 115.112883 204.596392 
L 115.126328 204.502718 
L 115.171678 204.134522 
L 115.293241 203.750375 
L 115.295601 203.741033 
L 115.427078 203.337966 
L 115.621572 203.010785 
L 115.656494 202.963963 
L 115.823662 202.678998 
L 116.065943 202.396539 
L 116.345007 202.162924 
L 116.417432 202.113109 
L 116.629299 201.927176 
L 116.936317 201.721256 
L 117.267653 201.551285 
L 117.618455 201.411399 
L 117.985289 201.297648 
L 118.365779 201.207644 
L 118.758365 201.14036 
L 119.162153 201.096055 
L 119.57683 201.076312 
L 120.002641 201.084222 
L 120.440416 201.124711 
L 120.891671 201.205097 
L 121.358785 201.335953 
L 121.389444 201.346662 
L 121.821986 201.468564 
L 122.301977 201.662064 
L 122.662871 201.853458 
L 122.797258 201.919014 
L 123.297839 202.21636 
L 123.557086 202.404731 
L 123.814905 202.594558 
L 124.251564 202.975494 
L 124.349746 203.067727 
L 124.820176 203.556238 
L 124.904875 203.656139 
L 125.300007 204.142439 
L 125.496121 204.429385 
L 125.704111 204.732302 
L 126.045444 205.324315 
L 126.173464 205.58713 
L 126.342636 205.9167 
L 126.600169 206.508973 
L 126.817298 207.101148 
L 127.003576 207.692447 
L 127.164466 208.28247 
L 127.302355 208.871104 
L 127.417002 209.458511 
L 127.48367 209.892799 
L 127.512213 210.044551 
L 127.601606 210.628136 
L 127.648884 211.062583 
L 127.669521 211.211044 
L 127.729087 211.792319 
L 127.734588 211.860564 
L 127.781987 212.372147 
L 127.790622 212.485144 
L 127.824145 212.951546 
L 127.827264 212.992733 
L 127.858364 213.432256 
L 127.862479 213.53038 
L 127.884842 213.816712 
L 127.890951 214.110508 
L 127.892633 214.130049 
L 127.915833 214.439801 
L 127.912797 214.680552 
L 127.912196 214.693182 
L 127.930416 214.932058 
L 127.928422 215.135286 
L 127.911418 215.283866 
L 127.912755 215.304618 
L 127.915107 215.485214 
L 127.89906 215.63041 
L 127.867135 215.747377 
L 127.821016 215.841231 
L 127.761708 215.915597 
L 127.755186 215.920819 
L 127.702204 215.986283 
L 127.624418 216.035181 
L 127.526264 216.062399 
L 127.406075 216.068413 
L 127.267692 216.053492 
L 127.261931 216.053377 
L 127.111927 216.035521 
L 126.938762 215.999898 
L 126.737735 215.943907 
L 126.502761 215.863967 
L 126.225963 215.755228 
L 126.196684 215.743077 
L 125.950237 215.654135 
L 125.629122 215.52345 
L 125.306484 215.379511 
L 125.253066 215.35724 
L 124.857659 215.184508 
L 124.464109 214.997473 
L 124.382167 214.959105 
L 123.849268 214.699631 
L 123.652957 214.600158 
L 123.212865 214.371681 
L 122.868568 214.187808 
L 122.426348 213.939869 
L 122.109226 213.760304 
L 121.384791 213.32111 
L 121.377 213.316399 
L 120.662433 212.859867 
L 119.979775 212.38494 
L 119.39846 211.947722 
L 119.325787 211.893229 
z
" clip-path="url(#p5cb0e094a6)" style="fill: none; stroke: #029e73; stroke-width: 0.75"/>
   </g>
   <g id="PathCollection_5">
    <path d="M 139.598962 146.148197 
L 139.339868 145.420788 
L 139.162749 144.693482 
L 139.055619 143.966297 
L 139.013656 143.239198 
L 139.038419 142.512085 
L 139.138083 141.784758 
L 139.328768 141.056859 
L 139.47724 140.680352 
L 139.601396 140.328253 
L 139.971477 139.598417 
L 140.123445 139.366777 
L 140.452191 138.866687 
L 140.776509 138.472807 
L 141.077808 138.131775 
L 141.431496 137.781936 
L 141.884856 137.391828 
L 142.087523 137.226413 
L 142.743866 136.764178 
L 142.948833 136.643237 
L 143.399671 136.364485 
L 144.057019 136.039878 
L 144.473615 135.87674 
L 144.715147 135.768094 
L 145.372386 135.522911 
L 146.032419 135.336456 
L 146.694871 135.196472 
L 147.359474 135.094241 
L 148.026084 135.023821 
L 148.042978 135.02276 
L 148.693956 134.975478 
L 149.365483 134.965757 
L 149.367999 134.965865 
L 150.038827 134.976897 
L 150.715336 135.01709 
L 151.395985 135.091067 
L 152.082193 135.20645 
L 152.776004 135.374848 
L 153.210866 135.514007 
L 153.475329 135.5796 
L 154.177497 135.801731 
L 154.89364 136.114865 
L 154.986078 136.161312 
L 155.611778 136.438714 
L 156.287243 136.83709 
L 156.346454 136.87002 
L 157.08711 137.34056 
L 157.341297 137.53019 
L 157.843001 137.915134 
L 158.216276 138.237049 
L 158.616002 138.61373 
L 158.958052 138.954951 
L 159.410025 139.4775 
L 159.587071 139.682444 
L 160.126762 140.417849 
L 160.232881 140.592253 
L 160.604578 141.159335 
L 160.982727 141.908322 
L 161.108227 142.222329 
L 161.308999 142.661956 
L 161.572589 143.420289 
L 161.759148 144.183354 
L 161.878986 144.950095 
L 161.935843 145.719764 
L 161.927583 146.491821 
L 161.845838 147.26585 
L 161.674519 148.041499 
L 161.619556 148.21308 
L 161.456325 148.817053 
L 161.135766 149.592982 
L 161.007846 149.833005 
L 160.73661 150.368011 
L 160.353694 150.940815 
L 160.21655 151.141869 
L 159.680442 151.795755 
L 159.574886 151.913524 
L 158.996238 152.496021 
L 158.7795 152.682153 
L 158.304799 153.078545 
L 157.749277 153.446753 
L 157.608291 153.544333 
L 156.908304 153.957425 
L 156.334819 154.205617 
L 156.205731 154.269891 
L 155.501012 154.560089 
L 154.794867 154.765695 
L 154.08757 154.90733 
L 153.737439 154.954099 
L 153.379057 155.01852 
L 152.66951 155.09085 
L 151.959132 155.110418 
L 151.247924 155.079763 
L 150.535868 154.997406 
L 150.254246 154.944248 
L 149.822749 154.884152 
L 149.108526 154.740676 
L 148.393272 154.539506 
L 147.676863 154.263478 
L 147.532785 154.197323 
L 146.958976 153.976926 
L 146.2396 153.613267 
L 145.98078 153.457834 
L 145.518544 153.206585 
L 144.816028 152.721567 
L 144.795478 152.70799 
L 144.070486 152.178567 
L 143.842619 151.987397 
L 143.343059 151.55688 
L 143.022263 151.254691 
L 142.612877 150.83845 
L 142.313461 150.523105 
L 141.879486 150.006313 
L 141.697159 149.792401 
L 141.164686 149.062389 
L 141.142117 149.026853 
L 140.662052 148.333218 
L 140.3995 147.848022 
L 140.250082 147.604426 
L 139.882205 146.876204 
L 139.646496 146.253204 
L 139.598962 146.148197 
z
" clip-path="url(#p5cb0e094a6)" style="fill: none; stroke-dasharray: 2.775,1.2; stroke-dashoffset: 0; stroke: #029e73; stroke-width: 0.75"/>
   </g>
   <g id="PathCollection_6">
    <path d="M 70.981237 140.738629 
L 71.187941 139.783904 
L 71.206025 139.723152 
L 71.4588 138.842068 
L 71.794593 137.915345 
L 72.204156 137.007653 
L 72.592566 136.307188 
L 72.688732 136.121395 
L 73.213758 135.250304 
L 73.594005 134.726658 
L 73.817848 134.404707 
L 74.496074 133.584953 
L 74.498168 133.582647 
L 75.224379 132.78602 
L 75.350984 132.662496 
L 76.040036 132.018212 
L 76.159903 131.914669 
L 76.932281 131.300234 
L 76.953085 131.284902 
L 77.687131 130.755899 
L 77.966088 130.587054 
L 78.412863 130.307238 
L 79.103316 129.964806 
L 79.152387 129.943667 
L 79.795104 129.628527 
L 80.446396 129.405781 
L 80.579373 129.370352 
L 81.09835 129.187918 
L 81.7257 129.039302 
L 82.327365 128.961969 
L 82.597125 128.948021 
L 82.923919 128.902965 
L 83.510454 128.874951 
L 84.078356 128.900584 
L 84.630649 128.972931 
L 85.168952 129.088958 
L 85.693632 129.249187 
L 86.203839 129.457826 
L 86.697413 129.723377 
L 86.938555 129.888117 
L 87.183171 130.024117 
L 87.663053 130.356742 
L 88.118995 130.777848 
L 88.308288 130.99426 
L 88.56528 131.250899 
L 88.992971 131.809712 
L 89.094449 131.967659 
L 89.40801 132.444086 
L 89.641028 132.886939 
L 89.797231 133.210021 
L 90.035091 133.773487 
L 90.157936 134.138036 
L 90.322108 134.638279 
L 90.47188 135.332596 
L 90.508951 135.485356 
L 90.645344 136.322893 
L 90.682931 137.115643 
L 90.686043 137.14739 
L 90.70721 137.968414 
L 90.658574 138.781707 
L 90.554018 139.589757 
L 90.399681 140.394025 
L 90.19511 141.195276 
L 89.933173 141.993754 
L 89.688484 142.584991 
L 89.615321 142.790407 
L 89.27215 143.588032 
L 88.830909 144.38263 
L 88.80232 144.428022 
L 88.365181 145.179709 
L 88.021924 145.659495 
L 87.80181 145.975912 
L 87.288 146.608793 
L 87.150586 146.773133 
L 86.581044 147.392294 
L 86.399851 147.572237 
L 85.892708 148.059545 
L 85.511771 148.37339 
L 85.219551 148.621747 
L 84.558556 149.094239 
L 84.424013 149.176764 
L 83.904814 149.535483 
L 83.261482 149.879506 
L 83.026244 149.982558 
L 82.623655 150.19973 
L 81.992356 150.46975 
L 81.368123 150.66729 
L 80.863921 150.784984 
L 80.749201 150.822092 
L 80.133824 150.972594 
L 79.524005 151.067877 
L 78.919332 151.114816 
L 78.319646 151.116747 
L 77.724994 151.073977 
L 77.135629 150.983967 
L 76.552038 150.841228 
L 76.000336 150.646711 
L 75.974907 150.639596 
L 75.401909 150.436859 
L 74.836695 150.166116 
L 74.281298 149.808327 
L 74.082291 149.654521 
L 73.73403 149.411349 
L 73.198784 148.932419 
L 72.950509 148.6609 
L 72.678083 148.36357 
L 72.178164 147.663804 
L 72.178021 147.663584 
L 71.70258 146.840468 
L 71.615096 146.662624 
L 71.270526 145.775483 
L 71.230545 145.662409 
L 70.972908 144.663657 
L 70.920488 144.286958 
L 70.829514 143.669404 
L 70.789205 142.682307 
L 70.846964 141.705407 
L 70.958845 140.904762 
L 70.981237 140.738629 
z
" clip-path="url(#p5cb0e094a6)" style="fill: none; stroke-dasharray: 4.8,1.2,0.75,1.2; stroke-dashoffset: 0; stroke: #029e73; stroke-width: 0.75"/>
   </g>
   <g id="PathCollection_7">
    <path d="M 118.621647 211.416634 
L 117.945866 210.923485 
L 117.313669 210.408082 
L 116.725668 209.870892 
L 116.185559 209.311438 
L 115.70079 208.728159 
L 115.504012 208.45023 
L 115.271108 208.122686 
L 114.905488 207.493589 
L 114.895239 207.472461 
L 114.590802 206.847215 
L 114.528166 206.683227 
L 114.335453 206.182447 
L 114.272234 205.967788 
L 114.135566 205.502286 
L 114.090774 205.295829 
L 113.98901 204.808959 
L 113.966365 204.653708 
L 113.897702 204.10342 
L 113.892829 204.039138 
L 113.861596 203.445494 
L 113.860285 203.387496 
L 113.866932 202.868565 
L 113.883912 202.660812 
L 113.916681 202.323357 
L 113.99582 201.918781 
L 114.014265 201.820201 
L 114.139101 201.331777 
L 114.202382 201.162711 
L 114.298576 200.872957 
L 114.500993 200.462389 
L 114.546586 200.387016 
L 114.717879 200.054524 
L 114.977143 199.702604 
L 115.08314 199.586597 
L 115.252662 199.36232 
L 115.554269 199.055121 
L 115.889345 198.800429 
L 115.981634 198.74169 
L 116.231165 198.546028 
L 116.593708 198.323529 
L 116.978856 198.140958 
L 117.382144 197.991938 
L 117.800226 197.871767 
L 118.230604 197.77711 
L 118.671415 197.705742 
L 119.121279 197.656396 
L 119.579203 197.628679 
L 120.044509 197.623038 
L 120.516779 197.640795 
L 120.995834 197.684228 
L 121.481704 197.756714 
L 121.974628 197.862928 
L 122.359507 197.971912 
L 122.471645 197.996502 
L 122.964078 198.127631 
L 123.463305 198.30254 
L 123.915035 198.503092 
L 123.96827 198.523716 
L 124.466123 198.740811 
L 124.971554 199.02393 
L 125.052214 199.073757 
L 125.471725 199.32049 
L 125.941586 199.663548 
L 125.976874 199.689449 
L 126.477839 200.094047 
L 126.660588 200.26382 
L 126.981002 200.583928 
L 127.238544 200.870676 
L 127.486583 201.184165 
L 127.706628 201.481099 
L 127.997812 201.952133 
L 128.083086 202.093311 
L 128.393489 202.705646 
L 128.526531 203.038814 
L 128.641957 203.317552 
L 128.844351 203.928175 
L 128.997931 204.537437 
L 129.114117 205.144835 
L 129.200082 205.750074 
L 129.259902 206.353007 
L 129.295202 206.953604 
L 129.305438 207.551954 
L 129.287873 208.148301 
L 129.266795 208.42877 
L 129.251452 208.742473 
L 129.192994 209.334856 
L 129.171801 209.486458 
L 129.117417 209.925551 
L 129.065021 210.237794 
L 129.019527 210.515288 
L 128.958183 210.832733 
L 128.90248 211.104542 
L 128.854469 211.328395 
L 128.764843 211.694287 
L 128.75278 211.746659 
L 128.65973 212.127226 
L 128.612844 212.285208 
L 128.56951 212.460966 
L 128.481931 212.757061 
L 128.438191 212.879653 
L 128.399049 213.027991 
L 128.31972 213.275567 
L 128.232507 213.47859 
L 128.231162 213.481408 
L 128.162717 213.697094 
L 128.085135 213.878963 
L 128.000392 214.031078 
L 127.952957 214.100944 
L 127.919902 214.177862 
L 127.843447 214.319622 
L 127.759383 214.438504 
L 127.668211 214.538292 
L 127.570281 214.621925 
L 127.465767 214.691631 
L 127.354672 214.749073 
L 127.23682 214.795445 
L 127.111811 214.831494 
L 126.978979 214.857555 
L 126.837309 214.873515 
L 126.68541 214.878858 
L 126.521443 214.872642 
L 126.343062 214.853492 
L 126.147388 214.819633 
L 125.931007 214.768915 
L 125.689962 214.698836 
L 125.513519 214.639933 
L 125.43224 214.618449 
L 125.170988 214.540766 
L 124.879488 214.441307 
L 124.553107 214.317283 
L 124.495322 214.294802 
L 124.227179 214.201153 
L 123.870527 214.065576 
L 123.543468 213.932569 
L 123.478166 213.907254 
L 123.075702 213.748673 
L 122.628327 213.558039 
L 122.621202 213.554999 
L 122.142697 213.350395 
L 121.744963 213.170132 
L 121.598376 213.100951 
L 120.98091 212.801441 
L 120.9032 212.763026 
L 120.239824 212.410976 
L 120.101223 212.335901 
L 119.342005 211.886699 
L 119.257913 211.831932 
L 118.621647 211.416634 
z
" clip-path="url(#p5cb0e094a6)" style="fill: none; stroke: #de8f05; stroke-width: 0.75"/>
   </g>
   <g id="PathCollection_8">
    <path d="M 144.473748 144.632393 
L 144.36238 143.900886 
L 144.303207 143.169292 
L 144.29449 142.437505 
L 144.338654 141.705331 
L 144.42222 141.107603 
L 144.435184 140.972611 
L 144.553932 140.239821 
L 144.74125 139.505784 
L 144.971446 138.88154 
L 145.006716 138.769925 
L 145.304316 138.033078 
L 145.557485 137.563916 
L 145.697916 137.293113 
L 146.155911 136.592833 
L 146.185321 136.549373 
L 146.760487 135.818766 
L 146.776367 135.800651 
L 147.368419 135.173916 
L 147.515334 135.044066 
L 147.979821 134.634479 
L 148.507093 134.273059 
L 148.597828 134.206648 
L 149.215197 133.818941 
L 149.841079 133.530068 
L 150.00093 133.470904 
L 150.466474 133.266146 
L 151.096432 133.056675 
L 151.73231 132.903725 
L 152.373395 132.797033 
L 153.019404 132.73051 
L 153.670481 132.701473 
L 154.327233 132.710311 
L 154.990804 132.760537 
L 155.663016 132.859235 
L 156.346569 133.017988 
L 156.512671 133.068415 
L 157.033105 133.191716 
L 157.730774 133.421504 
L 158.324097 133.685869 
L 158.444821 133.732744 
L 159.164019 134.068517 
L 159.628581 134.344037 
L 159.902061 134.498607 
L 160.657747 135.019216 
L 160.667533 135.026526 
L 161.426465 135.610744 
L 161.559371 135.724508 
L 162.219294 136.337375 
L 162.320656 136.436618 
L 162.982487 137.160172 
L 163.039664 137.231492 
L 163.578551 137.892297 
L 163.897292 138.374327 
L 164.079803 138.634687 
L 164.524744 139.384089 
L 164.823874 140.02488 
L 164.884742 140.141917 
L 165.217758 140.903867 
L 165.47408 141.672577 
L 165.666727 142.446566 
L 165.803084 143.224782 
L 165.886057 144.00647 
L 165.914514 144.791076 
L 165.883119 145.578184 
L 165.781513 146.367466 
L 165.622308 147.051971 
L 165.602354 147.158336 
L 165.391988 147.948645 
L 165.06536 148.740035 
L 165.057057 148.757015 
L 164.698783 149.529733 
L 164.436152 149.961407 
L 164.216432 150.318527 
L 163.788348 150.895811 
L 163.621299 151.105182 
L 163.124884 151.660878 
L 162.891917 151.888792 
L 162.451049 152.30091 
L 161.972382 152.668423 
L 161.769774 152.826847 
L 161.083341 153.278616 
L 160.768386 153.442644 
L 160.392924 153.65978 
L 159.699427 153.977107 
L 159.0036 154.208262 
L 159.000888 154.208983 
L 158.305628 154.437767 
L 157.606065 154.598252 
L 156.90514 154.702474 
L 156.202968 154.758285 
L 155.499605 154.76943 
L 154.795081 154.736045 
L 154.089401 154.654691 
L 153.382534 154.517907 
L 152.674381 154.313207 
L 152.381369 154.201384 
L 151.964642 154.068976 
L 151.25318 153.768726 
L 150.693007 153.454268 
L 150.539651 153.376159 
L 149.823756 152.93502 
L 149.524694 152.711679 
L 149.104925 152.40263 
L 148.60828 151.971787 
L 148.382448 151.767689 
L 147.847787 151.233807 
L 147.65551 151.022809 
L 147.195521 150.497315 
L 146.922728 150.136529 
L 146.635363 149.761963 
L 146.181342 149.041069 
L 146.172128 149.027357 
L 145.730121 148.29389 
L 145.425985 147.6255 
L 145.392296 147.560618 
L 145.066315 146.828301 
L 144.82216 146.096047 
L 144.640474 145.363899 
L 144.630474 145.310404 
L 144.473748 144.632393 
z
" clip-path="url(#p5cb0e094a6)" style="fill: none; stroke-dasharray: 2.775,1.2; stroke-dashoffset: 0; stroke: #de8f05; stroke-width: 0.75"/>
   </g>
   <g id="PathCollection_9">
    <path d="M 74.842405 140.389968 
L 74.885211 139.4519 
L 74.997874 138.522902 
L 75.170726 137.603306 
L 75.398647 136.693873 
L 75.680307 135.795889 
L 76.018005 134.911324 
L 76.418105 134.043093 
L 76.786634 133.374597 
L 76.88049 133.192727 
L 77.375194 132.354398 
L 77.962134 131.543672 
L 77.965469 131.539496 
L 78.576758 130.745795 
L 78.972204 130.31354 
L 79.278906 129.976724 
L 79.883782 129.398777 
L 80.060985 129.235548 
L 80.733342 128.67588 
L 80.931306 128.52511 
L 81.536654 128.089109 
L 81.918656 127.853359 
L 82.297594 127.619572 
L 83.015763 127.261942 
L 83.079739 127.234974 
L 83.724029 126.934568 
L 84.385781 126.721895 
L 84.507992 126.692241 
L 85.043336 126.523125 
L 85.672147 126.395179 
L 86.273357 126.335238 
L 86.647809 126.327755 
L 86.86234 126.307605 
L 87.443565 126.30207 
L 88.005254 126.347176 
L 88.550247 126.437379 
L 89.079894 126.570895 
L 89.59421 126.749475 
L 90.091894 126.978631 
L 90.365288 127.140265 
L 90.579168 127.245114 
L 91.061013 127.538091 
L 91.521067 127.903859 
L 91.860475 128.256213 
L 91.960105 128.346075 
L 92.394383 128.824697 
L 92.662408 129.215758 
L 92.801673 129.409942 
L 93.1864 130.100365 
L 93.194123 130.11595 
L 93.550089 130.905029 
L 93.58159 130.984793 
L 93.856942 131.83131 
L 93.874583 131.905135 
L 94.063227 132.664063 
L 94.137671 133.222848 
L 94.181504 133.482651 
L 94.256595 134.294026 
L 94.256109 135.095684 
L 94.238861 135.372561 
L 94.229405 135.893964 
L 94.161495 136.687913 
L 94.046347 137.477648 
L 93.888807 138.264293 
L 93.689015 139.048454 
L 93.442442 139.830346 
L 93.26518 140.292899 
L 93.159508 140.611338 
L 92.853375 141.392817 
L 92.478462 142.172066 
L 92.275119 142.530673 
L 92.060636 142.951534 
L 91.580493 143.730623 
L 91.442542 143.926986 
L 91.050279 144.510783 
L 90.668995 144.993585 
L 90.432945 145.290775 
L 89.93009 145.85624 
L 89.726604 146.071625 
L 89.213859 146.582632 
L 88.907544 146.853491 
L 88.514927 147.199043 
L 87.919409 147.635665 
L 87.83131 147.703773 
L 87.155945 148.167419 
L 86.680416 148.417502 
L 86.492427 148.531068 
L 85.835047 148.862983 
L 85.187514 149.100269 
L 84.854877 149.191378 
L 84.545514 149.301609 
L 83.908884 149.466751 
L 83.279061 149.568731 
L 82.655366 149.616825 
L 82.037517 149.615866 
L 81.425548 149.566908 
L 80.81981 149.467388 
L 80.221026 149.310858 
L 79.630432 149.086218 
L 79.425837 148.985275 
L 79.046246 148.828844 
L 78.470795 148.514203 
L 77.909469 148.088313 
L 77.83247 148.019349 
L 77.357948 147.623241 
L 76.86715 147.060588 
L 76.827481 147.015125 
L 76.31623 146.317487 
L 76.186629 146.102215 
L 75.837071 145.450874 
L 75.695612 145.144447 
L 75.404961 144.359019 
L 75.346648 144.188285 
L 75.097349 143.233283 
L 75.048408 142.939718 
L 74.93127 142.280376 
L 74.855852 141.333095 
L 74.85475 140.859956 
L 74.842405 140.389968 
z
" clip-path="url(#p5cb0e094a6)" style="fill: none; stroke-dasharray: 4.8,1.2,0.75,1.2; stroke-dashoffset: 0; stroke: #de8f05; stroke-width: 0.75"/>
   </g>
   <g id="line2d_1">
    <defs>
     <path id="m2ed8e1cf0a" d="M 0 7.5 
C 1.989023 7.5 3.896849 6.709753 5.303301 5.303301 
C 6.709753 3.896849 7.5 1.989023 7.5 0 
C 7.5 -1.989023 6.709753 -3.896849 5.303301 -5.303301 
C 3.896849 -6.709753 1.989023 -7.5 0 -7.5 
C -1.989023 -7.5 -3.896849 -6.709753 -5.303301 -5.303301 
C -6.709753 -3.896849 -7.5 -1.989023 -7.5 0 
C -7.5 1.989023 -6.709753 3.896849 -5.303301 5.303301 
C -3.896849 6.709753 -1.989023 7.5 0 7.5 
z
" style="stroke: #0173b2; stroke-width: 2"/>
    </defs>
    <g clip-path="url(#p5cb0e094a6)">
     <use xlink:href="#m2ed8e1cf0a" x="122.479206" y="209.495834" style="fill-opacity: 0; stroke: #0173b2; stroke-width: 2"/>
    </g>
   </g>
   <g id="line2d_2">
    <defs>
     <path id="m926d56b5ba" d="M -7.5 7.5 
L 7.5 7.5 
L 7.5 -7.5 
L -7.5 -7.5 
z
" style="stroke: #0173b2; stroke-width: 2; stroke-linejoin: miter"/>
    </defs>
    <g clip-path="url(#p5cb0e094a6)">
     <use xlink:href="#m926d56b5ba" x="152.072023" y="145.468757" style="fill-opacity: 0; stroke: #0173b2; stroke-width: 2; stroke-linejoin: miter"/>
    </g>
   </g>
   <g id="line2d_3">
    <defs>
     <path id="mde6f7dcd47" d="M -0 7.5 
L 7.5 -7.5 
L -7.5 -7.5 
z
" style="stroke: #0173b2; stroke-width: 2; stroke-linejoin: miter"/>
    </defs>
    <g clip-path="url(#p5cb0e094a6)">
     <use xlink:href="#mde6f7dcd47" x="81.814099" y="139.990205" style="fill-opacity: 0; stroke: #0173b2; stroke-width: 2; stroke-linejoin: miter"/>
    </g>
   </g>
   <g id="line2d_4">
    <defs>
     <path id="mf8a246f0c1" d="M 0 7.5 
C 1.989023 7.5 3.896849 6.709753 5.303301 5.303301 
C 6.709753 3.896849 7.5 1.989023 7.5 0 
C 7.5 -1.989023 6.709753 -3.896849 5.303301 -5.303301 
C 3.896849 -6.709753 1.989023 -7.5 0 -7.5 
C -1.989023 -7.5 -3.896849 -6.709753 -5.303301 -5.303301 
C -6.709753 -3.896849 -7.5 -1.989023 -7.5 0 
C -7.5 1.989023 -6.709753 3.896849 -5.303301 5.303301 
C -3.896849 6.709753 -1.989023 7.5 0 7.5 
z
" style="stroke: #029e73; stroke-width: 2"/>
    </defs>
    <g clip-path="url(#p5cb0e094a6)">
     <use xlink:href="#mf8a246f0c1" x="122.466539" y="208.807768" style="fill-opacity: 0; stroke: #029e73; stroke-width: 2"/>
    </g>
   </g>
   <g id="line2d_5">
    <defs>
     <path id="m02f6f297b2" d="M -7.5 7.5 
L 7.5 7.5 
L 7.5 -7.5 
L -7.5 -7.5 
z
" style="stroke: #029e73; stroke-width: 2; stroke-linejoin: miter"/>
    </defs>
    <g clip-path="url(#p5cb0e094a6)">
     <use xlink:href="#m02f6f297b2" x="150.699836" y="144.354545" style="fill-opacity: 0; stroke: #029e73; stroke-width: 2; stroke-linejoin: miter"/>
    </g>
   </g>
   <g id="line2d_6">
    <defs>
     <path id="me2053cfda5" d="M -0 7.5 
L 7.5 -7.5 
L -7.5 -7.5 
z
" style="stroke: #029e73; stroke-width: 2; stroke-linejoin: miter"/>
    </defs>
    <g clip-path="url(#p5cb0e094a6)">
     <use xlink:href="#me2053cfda5" x="80.500064" y="139.700792" style="fill-opacity: 0; stroke: #029e73; stroke-width: 2; stroke-linejoin: miter"/>
    </g>
   </g>
   <g id="line2d_7">
    <defs>
     <path id="m26ee32578c" d="M 0 7.5 
C 1.989023 7.5 3.896849 6.709753 5.303301 5.303301 
C 6.709753 3.896849 7.5 1.989023 7.5 0 
C 7.5 -1.989023 6.709753 -3.896849 5.303301 -5.303301 
C 3.896849 -6.709753 1.989023 -7.5 0 -7.5 
C -1.989023 -7.5 -3.896849 -6.709753 -5.303301 -5.303301 
C -6.709753 -3.896849 -7.5 -1.989023 -7.5 0 
C -7.5 1.989023 -6.709753 3.896849 -5.303301 5.303301 
C -3.896849 6.709753 -1.989023 7.5 0 7.5 
z
" style="stroke: #de8f05; stroke-width: 2"/>
    </defs>
    <g clip-path="url(#p5cb0e094a6)">
     <use xlink:href="#m26ee32578c" x="123.964429" y="205.984537" style="fill-opacity: 0; stroke: #de8f05; stroke-width: 2"/>
    </g>
   </g>
   <g id="line2d_8">
    <defs>
     <path id="m8dcbd403c6" d="M -7.5 7.5 
L 7.5 7.5 
L 7.5 -7.5 
L -7.5 -7.5 
z
" style="stroke: #de8f05; stroke-width: 2; stroke-linejoin: miter"/>
    </defs>
    <g clip-path="url(#p5cb0e094a6)">
     <use xlink:href="#m8dcbd403c6" x="152.021602" y="140.795642" style="fill-opacity: 0; stroke: #de8f05; stroke-width: 2; stroke-linejoin: miter"/>
    </g>
   </g>
   <g id="line2d_9">
    <defs>
     <path id="m1089f63bd7" d="M -0 7.5 
L 7.5 -7.5 
L -7.5 -7.5 
z
" style="stroke: #de8f05; stroke-width: 2; stroke-linejoin: miter"/>
    </defs>
    <g clip-path="url(#p5cb0e094a6)">
     <use xlink:href="#m1089f63bd7" x="81.087698" y="138.866906" style="fill-opacity: 0; stroke: #de8f05; stroke-width: 2; stroke-linejoin: miter"/>
    </g>
   </g>
   <g id="patch_3">
    <path d="M 131.355263 219.479683 
C 148.766545 219.479683 165.467049 212.562107 177.778684 200.250472 
C 190.090319 187.938837 197.007895 171.238332 197.007895 153.827051 
C 197.007895 136.41577 190.090319 119.715265 177.778684 107.40363 
C 165.467049 95.091995 148.766545 88.174419 131.355263 88.174419 
C 113.943982 88.174419 97.243477 95.091995 84.931842 107.40363 
C 72.620207 119.715265 65.702632 136.41577 65.702632 153.827051 
C 65.702632 171.238332 72.620207 187.938837 84.931842 200.250472 
C 97.243477 212.562107 113.943982 219.479683 131.355263 219.479683 
L 131.355263 219.479683 
z
" style="fill: none; stroke: #262626; stroke-width: 1.25; stroke-linejoin: miter; stroke-linecap: square"/>
   </g>
   <g id="text_9">
    <text style="fill: #262626; font: 20px 'Arial', 'DejaVu Sans', 'Liberation Sans', 'Bitstream Vera Sans', sans-serif; text-anchor: start" x="32.876316" y="77.110242" transform="rotate(-0 32.876316 77.110242)">(a)</text>
   </g>
   <g id="legend_1">
    <g id="patch_4">
     <path d="M 10.06 383.216018 
L 549.456 383.216018 
Q 552.316 383.216018 552.316 380.356018 
L 552.316 268.881262 
Q 552.316 266.021262 549.456 266.021262 
L 10.06 266.021262 
Q 7.2 266.021262 7.2 268.881262 
L 7.2 380.356018 
Q 7.2 383.216018 10.06 383.216018 
z
" style="fill: #ffffff; opacity: 0.8; stroke: #cccccc; stroke-linejoin: miter"/>
    </g>
    <g id="line2d_10">
     <g>
      <use xlink:href="#m2ed8e1cf0a" x="27.22" y="287.411604" style="fill-opacity: 0; stroke: #0173b2; stroke-width: 2"/>
     </g>
    </g>
    <g id="text_10">
     <text style="fill: #262626; font: 14.3px 'Arial', 'DejaVu Sans', 'Liberation Sans', 'Bitstream Vera Sans', sans-serif" transform="translate(52.96 282.607027)">Linear:</text>
     <!-- $\sigma_{1}$: 189.1°|15.2°, $\sigma_{2}$: 68.0°|62.2°, $\sigma_{3}$: 285.6°|22.7°,  R=0.51, $\beta $=29.7° -->
     <g style="fill: #262626" transform="translate(52.96 298.79418)">
      <text>
       <tspan style="font: oblique 14.3px 'DejaVu Sans'" x="0 125.395087 241.694073 434.093707" y="-0.046875">σσσβ</tspan>
       <tspan style="font: 10.01px 'DejaVu Sans'" x="9.061203 134.45629 250.755276" y="2.296875">123</tspan>
       <tspan style="font: 14.3px 'DejaVu Sans'" x="15.819098 20.635916 25.180472 34.276572 43.372672 52.468771 57.013327 66.109427 73.257864 78.074683 87.170782 96.266882 100.061438 109.157538 116.305975 120.850531 141.214185 146.031003 150.575558 159.671658 168.767758 173.312314 182.408414 189.556851 194.373669 203.469769 212.565869 216.360425 225.456525 232.604962 237.149518 257.513171 262.32999 266.874545 275.970645 285.066745 294.162845 298.707401 307.8035 314.951938 319.768756 328.864856 337.960956 341.380511 350.476611 357.625049 362.169604 366.71416 371.258716 381.192523 393.171741 402.267841 406.812396 415.908496 425.004596 429.549152 443.217731 455.196948 464.043048 473.139148 476.558704 485.654803" y="-0.046875">: 189.1°|15.2°, : 68.0°|62.2°, : 285.6°|22.7°,  R=0.51, =29.7°</tspan>
      </text>
     </g>
    </g>
    <g id="line2d_11">
     <g>
      <use xlink:href="#mf8a246f0c1" x="27.22" y="325.046522" style="fill-opacity: 0; stroke: #029e73; stroke-width: 2"/>
     </g>
    </g>
    <g id="text_11">
     <text style="fill: #262626; font: 14.3px 'Arial', 'DejaVu Sans', 'Liberation Sans', 'Bitstream Vera Sans', sans-serif" transform="translate(52.96 320.241946)">Iterative constant shear:</text>
     <!-- $\sigma_{1}$: 189.2°|16.3°, $\sigma_{2}$: 63.9°|63.2°, $\sigma_{3}$: 285.5°|20.7°,  R=0.77, $\beta $=24.9° -->
     <g style="fill: #262626" transform="translate(52.96 336.429099)">
      <text>
       <tspan style="font: oblique 14.3px 'DejaVu Sans'" x="0 125.395087 241.694073 432.718707" y="-0.046875">σσσβ</tspan>
       <tspan style="font: 10.01px 'DejaVu Sans'" x="9.061203 134.45629 250.755276" y="2.296875">123</tspan>
       <tspan style="font: 14.3px 'DejaVu Sans'" x="15.819098 20.635916 25.180472 34.276572 43.372672 52.468771 56.263327 65.359427 72.507864 77.324683 86.420782 95.516882 100.061438 109.157538 116.305975 120.850531 141.214185 146.031003 150.575558 159.671658 168.767758 173.312314 182.408414 189.556851 194.373669 203.469769 212.565869 216.360425 225.456525 232.604962 237.149518 257.513171 262.32999 266.874545 275.970645 285.066745 294.162845 298.707401 307.8035 314.951938 319.768756 328.864856 337.960956 341.380511 350.476611 357.625049 362.169604 366.71416 371.258716 381.192523 393.171741 402.267841 405.687396 414.533496 423.629596 428.174152 441.842731 453.821948 462.918048 472.014148 476.558704 485.654803" y="-0.046875">: 189.2°|16.3°, : 63.9°|63.2°, : 285.5°|20.7°,  R=0.77, =24.9°</tspan>
      </text>
     </g>
    </g>
    <g id="line2d_12">
     <g>
      <use xlink:href="#m26ee32578c" x="27.22" y="362.681441" style="fill-opacity: 0; stroke: #de8f05; stroke-width: 2"/>
     </g>
    </g>
    <g id="text_12">
     <text style="fill: #262626; font: 14.3px 'Arial', 'DejaVu Sans', 'Liberation Sans', 'Bitstream Vera Sans', sans-serif" transform="translate(52.96 357.876865)">Iterative variable shear:</text>
     <!-- $\sigma_{1}$: 188.1°|20.9°, $\sigma_{2}$: 57.8°|59.5°, $\sigma_{3}$: 286.6°|21.2°,  R=0.85, $\beta $=26.0° -->
     <g style="fill: #262626" transform="translate(52.96 374.064018)">
      <text>
       <tspan style="font: oblique 14.3px 'DejaVu Sans'" x="0 126.145087 241.069073 433.468707" y="-0.046875">σσσβ</tspan>
       <tspan style="font: 10.01px 'DejaVu Sans'" x="9.061203 135.20629 250.130276" y="2.296875">123</tspan>
       <tspan style="font: 14.3px 'DejaVu Sans'" x="15.819098 20.635916 25.180472 34.276572 43.372672 52.468771 57.013327 66.109427 73.257864 78.074683 87.170782 96.266882 100.811438 109.907538 117.055975 121.600531 141.964185 146.781003 151.325558 159.421658 168.517758 172.687314 181.783414 188.931851 193.748669 202.094769 211.190869 215.735425 224.831525 231.979962 236.524518 256.888171 261.70499 266.249545 275.345645 284.441745 293.537845 298.082401 307.1785 314.326938 319.143756 328.239856 337.335956 341.130511 350.226611 357.375049 361.919604 366.46416 371.008716 380.942523 392.921741 402.017841 406.187396 415.283496 424.379596 428.924152 442.592731 454.571948 463.668048 472.764148 477.308704 486.404803" y="-0.046875">: 188.1°|20.9°, : 57.8°|59.5°, : 286.6°|21.2°,  R=0.85, =26.0°</tspan>
      </text>
     </g>
    </g>
   </g>
  </g>
  <g id="axes_3">
   <g id="patch_5">
    <path d="M 337.537081 219.479683 
L 509.355263 219.479683 
L 509.355263 88.174419 
L 337.537081 88.174419 
z
" style="fill: #ffffff"/>
   </g>
   <g id="matplotlib.axis_5">
    <g id="xtick_21">
     <g id="line2d_13">
      <defs>
       <path id="md5cd6655a3" d="M 0 0 
L 0 6 
" style="stroke: #262626; stroke-width: 1.25"/>
      </defs>
      <g>
       <use xlink:href="#md5cd6655a3" x="345.346999" y="219.479683" style="fill: #262626; stroke: #262626; stroke-width: 1.25"/>
      </g>
     </g>
     <g id="text_13">
      <text style="fill: #262626; font: 14.3px 'Arial', 'DejaVu Sans', 'Liberation Sans', 'Bitstream Vera Sans', sans-serif; text-anchor: middle" x="345.346999" y="239.845448" transform="rotate(-0 345.346999 239.845448)">0.0</text>
     </g>
    </g>
    <g id="xtick_22">
     <g id="line2d_14">
      <g>
       <use xlink:href="#md5cd6655a3" x="423.446172" y="219.479683" style="fill: #262626; stroke: #262626; stroke-width: 1.25"/>
      </g>
     </g>
     <g id="text_14">
      <text style="fill: #262626; font: 14.3px 'Arial', 'DejaVu Sans', 'Liberation Sans', 'Bitstream Vera Sans', sans-serif; text-anchor: middle" x="423.446172" y="239.845448" transform="rotate(-0 423.446172 239.845448)">0.5</text>
     </g>
    </g>
    <g id="xtick_23">
     <g id="line2d_15">
      <g>
       <use xlink:href="#md5cd6655a3" x="501.545346" y="219.479683" style="fill: #262626; stroke: #262626; stroke-width: 1.25"/>
      </g>
     </g>
     <g id="text_15">
      <text style="fill: #262626; font: 14.3px 'Arial', 'DejaVu Sans', 'Liberation Sans', 'Bitstream Vera Sans', sans-serif; text-anchor: middle" x="501.545346" y="239.845448" transform="rotate(-0 501.545346 239.845448)">1.0</text>
     </g>
    </g>
    <g id="text_16">
     <text style="fill: #262626; font: 15.6px 'Arial', 'DejaVu Sans', 'Liberation Sans', 'Bitstream Vera Sans', sans-serif; text-anchor: middle" x="423.446172" y="258.672964" transform="rotate(-0 423.446172 258.672964)">Shape Ratio</text>
    </g>
   </g>
   <g id="matplotlib.axis_6">
    <g id="ytick_12">
     <g id="line2d_16">
      <defs>
       <path id="mea001031e1" d="M 0 0 
L -6 0 
" style="stroke: #262626; stroke-width: 1.25"/>
      </defs>
      <g>
       <use xlink:href="#mea001031e1" x="337.537081" y="219.479683" style="fill: #262626; stroke: #262626; stroke-width: 1.25"/>
      </g>
     </g>
     <g id="text_17">
      <text style="fill: #262626; font: 14.3px 'Arial', 'DejaVu Sans', 'Liberation Sans', 'Bitstream Vera Sans', sans-serif; text-anchor: end" x="328.037081" y="224.912565" transform="rotate(-0 328.037081 224.912565)">0</text>
     </g>
    </g>
    <g id="ytick_13">
     <g id="line2d_17">
      <g>
       <use xlink:href="#mea001031e1" x="337.537081" y="158.478399" style="fill: #262626; stroke: #262626; stroke-width: 1.25"/>
      </g>
     </g>
     <g id="text_18">
      <text style="fill: #262626; font: 14.3px 'Arial', 'DejaVu Sans', 'Liberation Sans', 'Bitstream Vera Sans', sans-serif; text-anchor: end" x="328.037081" y="163.911282" transform="rotate(-0 328.037081 163.911282)">500</text>
     </g>
    </g>
    <g id="ytick_14">
     <g id="line2d_18">
      <g>
       <use xlink:href="#mea001031e1" x="337.537081" y="97.477115" style="fill: #262626; stroke: #262626; stroke-width: 1.25"/>
      </g>
     </g>
     <g id="text_19">
      <text style="fill: #262626; font: 14.3px 'Arial', 'DejaVu Sans', 'Liberation Sans', 'Bitstream Vera Sans', sans-serif; text-anchor: end" x="328.037081" y="102.909998" transform="rotate(-0 328.037081 102.909998)">1000</text>
     </g>
    </g>
    <g id="text_20">
     <text style="fill: #262626; font: 15.6px 'Arial', 'DejaVu Sans', 'Liberation Sans', 'Bitstream Vera Sans', sans-serif; text-anchor: middle" x="284.399269" y="153.827051" transform="rotate(-90 284.399269 153.827051)">Count</text>
    </g>
   </g>
   <g id="patch_6">
    <path d="M 345.346999 219.479683 
L 345.346999 219.479683 
L 353.156916 219.479683 
L 353.156916 219.479683 
L 360.966834 219.479683 
L 360.966834 219.479683 
L 368.776752 219.479683 
L 368.776752 219.479683 
L 376.586669 219.479683 
L 376.586669 219.479683 
L 384.396585 219.479683 
L 384.396585 219.479683 
L 392.206505 219.479683 
L 392.206505 219.479683 
L 400.016419 219.479683 
L 400.016419 218.86967 
L 407.826338 218.86967 
L 407.826338 208.743457 
L 415.636253 208.743457 
L 415.636253 136.883944 
L 423.446172 136.883944 
L 423.446172 104.553264 
L 431.256091 104.553264 
L 431.256091 187.027 
L 439.066011 187.027 
L 439.066011 216.795626 
L 446.875921 216.795626 
L 446.875921 219.479683 
L 454.68584 219.479683 
L 454.68584 219.479683 
L 462.495759 219.479683 
L 462.495759 219.479683 
L 470.305678 219.479683 
L 470.305678 219.479683 
L 478.115597 219.479683 
L 478.115597 219.479683 
L 485.925507 219.479683 
L 485.925507 219.479683 
L 493.735427 219.479683 
L 493.735427 219.479683 
L 501.545346 219.479683 
L 501.545346 219.479683 
" clip-path="url(#p1a174acec3)" style="fill: none; stroke: #0173b2; stroke-width: 2.5; stroke-linejoin: miter"/>
   </g>
   <g id="patch_7">
    <path d="M 345.346999 219.479683 
L 345.346999 219.479683 
L 353.156916 219.479683 
L 353.156916 219.479683 
L 360.966834 219.479683 
L 360.966834 219.479683 
L 368.776752 219.479683 
L 368.776752 219.479683 
L 376.586669 219.479683 
L 376.586669 219.479683 
L 384.396585 219.479683 
L 384.396585 219.479683 
L 392.206505 219.479683 
L 392.206505 219.479683 
L 400.016419 219.479683 
L 400.016419 219.479683 
L 407.826338 219.479683 
L 407.826338 219.479683 
L 415.636253 219.479683 
L 415.636253 219.479683 
L 423.446172 219.479683 
L 423.446172 219.479683 
L 431.256091 219.479683 
L 431.256091 219.479683 
L 439.066011 219.479683 
L 439.066011 218.015652 
L 446.875921 218.015652 
L 446.875921 194.225151 
L 454.68584 194.225151 
L 454.68584 94.427051 
L 462.495759 94.427051 
L 462.495759 137.981968 
L 470.305678 137.981968 
L 470.305678 208.743457 
L 478.115597 208.743457 
L 478.115597 219.479683 
L 485.925507 219.479683 
L 485.925507 219.479683 
L 493.735427 219.479683 
L 493.735427 219.479683 
L 501.545346 219.479683 
L 501.545346 219.479683 
" clip-path="url(#p1a174acec3)" style="fill: none; stroke: #029e73; stroke-width: 2.5; stroke-linejoin: miter"/>
   </g>
   <g id="patch_8">
    <path d="M 345.346999 219.479683 
L 345.346999 219.479683 
L 353.156916 219.479683 
L 353.156916 219.479683 
L 360.966834 219.479683 
L 360.966834 219.479683 
L 368.776752 219.479683 
L 368.776752 219.479683 
L 376.586669 219.479683 
L 376.586669 219.479683 
L 384.396585 219.479683 
L 384.396585 219.479683 
L 392.206505 219.479683 
L 392.206505 219.479683 
L 400.016419 219.479683 
L 400.016419 219.479683 
L 407.826338 219.479683 
L 407.826338 219.479683 
L 415.636253 219.479683 
L 415.636253 219.479683 
L 423.446172 219.479683 
L 423.446172 219.479683 
L 431.256091 219.479683 
L 431.256091 217.527641 
L 439.066011 217.527641 
L 439.066011 198.983251 
L 446.875921 198.983251 
L 446.875921 143.594086 
L 454.68584 143.594086 
L 454.68584 112.727436 
L 462.495759 112.727436 
L 462.495759 184.464946 
L 470.305678 184.464946 
L 470.305678 215.5756 
L 478.115597 215.5756 
L 478.115597 219.479683 
L 485.925507 219.479683 
L 485.925507 219.479683 
L 493.735427 219.479683 
L 493.735427 219.479683 
L 501.545346 219.479683 
L 501.545346 219.479683 
" clip-path="url(#p1a174acec3)" style="fill: none; stroke: #de8f05; stroke-width: 2.5; stroke-linejoin: miter"/>
   </g>
   <g id="patch_9">
    <path d="M 337.537081 219.479683 
L 337.537081 88.174419 
" style="fill: none; stroke: #262626; stroke-width: 1.25; stroke-linejoin: miter; stroke-linecap: square"/>
   </g>
   <g id="patch_10">
    <path d="M 509.355263 219.479683 
L 509.355263 88.174419 
" style="fill: none; stroke: #262626; stroke-width: 1.25; stroke-linejoin: miter; stroke-linecap: square"/>
   </g>
   <g id="patch_11">
    <path d="M 337.537081 219.479683 
L 509.355263 219.479683 
" style="fill: none; stroke: #262626; stroke-width: 1.25; stroke-linejoin: miter; stroke-linecap: square"/>
   </g>
   <g id="patch_12">
    <path d="M 337.537081 88.174419 
L 509.355263 88.174419 
" style="fill: none; stroke: #262626; stroke-width: 1.25; stroke-linejoin: miter; stroke-linecap: square"/>
   </g>
   <g id="text_21">
    <text style="fill: #262626; font: 20px 'Arial', 'DejaVu Sans', 'Liberation Sans', 'Bitstream Vera Sans', sans-serif; text-anchor: start" x="294.582536" y="77.110242" transform="rotate(-0 294.582536 77.110242)">(b)</text>
   </g>
  </g>
  <g id="axes_4">
   <g id="patch_13">
    <path d="M 629.62799 219.479683 
L 801.446172 219.479683 
L 801.446172 88.174419 
L 629.62799 88.174419 
z
" style="fill: #ffffff"/>
   </g>
   <g id="matplotlib.axis_7">
    <g id="xtick_24">
     <g id="line2d_19">
      <g>
       <use xlink:href="#md5cd6655a3" x="637.437908" y="219.479683" style="fill: #262626; stroke: #262626; stroke-width: 1.25"/>
      </g>
     </g>
     <g id="text_22">
      <text style="fill: #262626; font: 14.3px 'Arial', 'DejaVu Sans', 'Liberation Sans', 'Bitstream Vera Sans', sans-serif; text-anchor: middle" x="637.437908" y="239.845448" transform="rotate(-0 637.437908 239.845448)">0.0</text>
     </g>
    </g>
    <g id="xtick_25">
     <g id="line2d_20">
      <g>
       <use xlink:href="#md5cd6655a3" x="715.537081" y="219.479683" style="fill: #262626; stroke: #262626; stroke-width: 1.25"/>
      </g>
     </g>
     <g id="text_23">
      <text style="fill: #262626; font: 14.3px 'Arial', 'DejaVu Sans', 'Liberation Sans', 'Bitstream Vera Sans', sans-serif; text-anchor: middle" x="715.537081" y="239.845448" transform="rotate(-0 715.537081 239.845448)">0.5</text>
     </g>
    </g>
    <g id="xtick_26">
     <g id="line2d_21">
      <g>
       <use xlink:href="#md5cd6655a3" x="793.636255" y="219.479683" style="fill: #262626; stroke: #262626; stroke-width: 1.25"/>
      </g>
     </g>
     <g id="text_24">
      <text style="fill: #262626; font: 14.3px 'Arial', 'DejaVu Sans', 'Liberation Sans', 'Bitstream Vera Sans', sans-serif; text-anchor: middle" x="793.636255" y="239.845448" transform="rotate(-0 793.636255 239.845448)">1.0</text>
     </g>
    </g>
    <g id="text_25">
     <!-- Shear stress $\vert \tau \vert$ -->
     <g style="fill: #262626" transform="translate(654.619081 258.831401)">
      <text>
       <tspan style="font: 15.6px 'DejaVu Sans'" x="0 9.898376 19.781525 29.375336 38.931076 45.342178 50.298981 58.423264 64.537415 70.948517 80.542328 88.666611 96.790894 101.747696 116.389679" y="-0.078125">Shear stress ||</tspan>
       <tspan style="font: oblique 15.6px 'DejaVu Sans'" x="107.00145" y="-0.078125">τ</tspan>
      </text>
     </g>
    </g>
   </g>
   <g id="matplotlib.axis_8">
    <g id="ytick_15">
     <g id="line2d_22">
      <g>
       <use xlink:href="#mea001031e1" x="629.62799" y="219.479683" style="fill: #262626; stroke: #262626; stroke-width: 1.25"/>
      </g>
     </g>
     <g id="text_26">
      <text style="fill: #262626; font: 14.3px 'Arial', 'DejaVu Sans', 'Liberation Sans', 'Bitstream Vera Sans', sans-serif; text-anchor: end" x="620.12799" y="224.912565" transform="rotate(-0 620.12799 224.912565)">0</text>
     </g>
    </g>
    <g id="ytick_16">
     <g id="line2d_23">
      <g>
       <use xlink:href="#mea001031e1" x="629.62799" y="182.699497" style="fill: #262626; stroke: #262626; stroke-width: 1.25"/>
      </g>
     </g>
     <g id="text_27">
      <text style="fill: #262626; font: 14.3px 'Arial', 'DejaVu Sans', 'Liberation Sans', 'Bitstream Vera Sans', sans-serif; text-anchor: end" x="620.12799" y="188.13238" transform="rotate(-0 620.12799 188.13238)">20</text>
     </g>
    </g>
    <g id="ytick_17">
     <g id="line2d_24">
      <g>
       <use xlink:href="#mea001031e1" x="629.62799" y="145.919311" style="fill: #262626; stroke: #262626; stroke-width: 1.25"/>
      </g>
     </g>
     <g id="text_28">
      <text style="fill: #262626; font: 14.3px 'Arial', 'DejaVu Sans', 'Liberation Sans', 'Bitstream Vera Sans', sans-serif; text-anchor: end" x="620.12799" y="151.352194" transform="rotate(-0 620.12799 151.352194)">40</text>
     </g>
    </g>
    <g id="ytick_18">
     <g id="line2d_25">
      <g>
       <use xlink:href="#mea001031e1" x="629.62799" y="109.139125" style="fill: #262626; stroke: #262626; stroke-width: 1.25"/>
      </g>
     </g>
     <g id="text_29">
      <text style="fill: #262626; font: 14.3px 'Arial', 'DejaVu Sans', 'Liberation Sans', 'Bitstream Vera Sans', sans-serif; text-anchor: end" x="620.12799" y="114.572008" transform="rotate(-0 620.12799 114.572008)">60</text>
     </g>
    </g>
    <g id="text_30">
     <text style="fill: #262626; font: 15.6px 'Arial', 'DejaVu Sans', 'Liberation Sans', 'Bitstream Vera Sans', sans-serif; text-anchor: middle" x="594.686928" y="153.827051" transform="rotate(-90 594.686928 153.827051)">Count</text>
    </g>
   </g>
   <g id="patch_14">
    <path d="M 637.437908 219.479683 
L 645.247825 219.479683 
L 645.247825 217.640673 
L 637.437908 217.640673 
z
" clip-path="url(#pf909736eff)" style="fill: #0173b2; opacity: 0.5; stroke: #ffffff; stroke-linejoin: miter"/>
   </g>
   <g id="patch_15">
    <path d="M 645.247825 219.479683 
L 653.057743 219.479683 
L 653.057743 213.962655 
L 645.247825 213.962655 
z
" clip-path="url(#pf909736eff)" style="fill: #0173b2; opacity: 0.5; stroke: #ffffff; stroke-linejoin: miter"/>
   </g>
   <g id="patch_16">
    <path d="M 653.057743 219.479683 
L 660.867661 219.479683 
L 660.867661 213.962655 
L 653.057743 213.962655 
z
" clip-path="url(#pf909736eff)" style="fill: #0173b2; opacity: 0.5; stroke: #ffffff; stroke-linejoin: miter"/>
   </g>
   <g id="patch_17">
    <path d="M 660.867661 219.479683 
L 668.677578 219.479683 
L 668.677578 213.962655 
L 660.867661 213.962655 
z
" clip-path="url(#pf909736eff)" style="fill: #0173b2; opacity: 0.5; stroke: #ffffff; stroke-linejoin: miter"/>
   </g>
   <g id="patch_18">
    <path d="M 668.677578 219.479683 
L 676.487495 219.479683 
L 676.487495 206.606618 
L 668.677578 206.606618 
z
" clip-path="url(#pf909736eff)" style="fill: #0173b2; opacity: 0.5; stroke: #ffffff; stroke-linejoin: miter"/>
   </g>
   <g id="patch_19">
    <path d="M 676.487495 219.479683 
L 684.297414 219.479683 
L 684.297414 208.445627 
L 676.487495 208.445627 
z
" clip-path="url(#pf909736eff)" style="fill: #0173b2; opacity: 0.5; stroke: #ffffff; stroke-linejoin: miter"/>
   </g>
   <g id="patch_20">
    <path d="M 684.297414 219.479683 
L 692.107328 219.479683 
L 692.107328 184.538506 
L 684.297414 184.538506 
z
" clip-path="url(#pf909736eff)" style="fill: #0173b2; opacity: 0.5; stroke: #ffffff; stroke-linejoin: miter"/>
   </g>
   <g id="patch_21">
    <path d="M 692.107328 219.479683 
L 699.917248 219.479683 
L 699.917248 166.148413 
L 692.107328 166.148413 
z
" clip-path="url(#pf909736eff)" style="fill: #0173b2; opacity: 0.5; stroke: #ffffff; stroke-linejoin: miter"/>
   </g>
   <g id="patch_22">
    <path d="M 699.917248 219.479683 
L 707.727162 219.479683 
L 707.727162 177.182469 
L 699.917248 177.182469 
z
" clip-path="url(#pf909736eff)" style="fill: #0173b2; opacity: 0.5; stroke: #ffffff; stroke-linejoin: miter"/>
   </g>
   <g id="patch_23">
    <path d="M 707.727162 219.479683 
L 715.537081 219.479683 
L 715.537081 179.021478 
L 707.727162 179.021478 
z
" clip-path="url(#pf909736eff)" style="fill: #0173b2; opacity: 0.5; stroke: #ffffff; stroke-linejoin: miter"/>
   </g>
   <g id="patch_24">
    <path d="M 715.537081 219.479683 
L 723.347001 219.479683 
L 723.347001 164.309404 
L 715.537081 164.309404 
z
" clip-path="url(#pf909736eff)" style="fill: #0173b2; opacity: 0.5; stroke: #ffffff; stroke-linejoin: miter"/>
   </g>
   <g id="patch_25">
    <path d="M 723.347001 219.479683 
L 731.15692 219.479683 
L 731.15692 138.563274 
L 723.347001 138.563274 
z
" clip-path="url(#pf909736eff)" style="fill: #0173b2; opacity: 0.5; stroke: #ffffff; stroke-linejoin: miter"/>
   </g>
   <g id="patch_26">
    <path d="M 731.15692 219.479683 
L 738.96683 219.479683 
L 738.96683 136.724265 
L 731.15692 136.724265 
z
" clip-path="url(#pf909736eff)" style="fill: #0173b2; opacity: 0.5; stroke: #ffffff; stroke-linejoin: miter"/>
   </g>
   <g id="patch_27">
    <path d="M 738.96683 219.479683 
L 746.776749 219.479683 
L 746.776749 114.656153 
L 738.96683 114.656153 
z
" clip-path="url(#pf909736eff)" style="fill: #0173b2; opacity: 0.5; stroke: #ffffff; stroke-linejoin: miter"/>
   </g>
   <g id="patch_28">
    <path d="M 746.776749 219.479683 
L 754.586668 219.479683 
L 754.586668 208.445627 
L 746.776749 208.445627 
z
" clip-path="url(#pf909736eff)" style="fill: #0173b2; opacity: 0.5; stroke: #ffffff; stroke-linejoin: miter"/>
   </g>
   <g id="patch_29">
    <path d="M 754.586668 219.479683 
L 762.396587 219.479683 
L 762.396587 219.479683 
L 754.586668 219.479683 
z
" clip-path="url(#pf909736eff)" style="fill: #0173b2; opacity: 0.5; stroke: #ffffff; stroke-linejoin: miter"/>
   </g>
   <g id="patch_30">
    <path d="M 762.396587 219.479683 
L 770.206507 219.479683 
L 770.206507 219.479683 
L 762.396587 219.479683 
z
" clip-path="url(#pf909736eff)" style="fill: #0173b2; opacity: 0.5; stroke: #ffffff; stroke-linejoin: miter"/>
   </g>
   <g id="patch_31">
    <path d="M 770.206507 219.479683 
L 778.016416 219.479683 
L 778.016416 219.479683 
L 770.206507 219.479683 
z
" clip-path="url(#pf909736eff)" style="fill: #0173b2; opacity: 0.5; stroke: #ffffff; stroke-linejoin: miter"/>
   </g>
   <g id="patch_32">
    <path d="M 778.016416 219.479683 
L 785.826336 219.479683 
L 785.826336 219.479683 
L 778.016416 219.479683 
z
" clip-path="url(#pf909736eff)" style="fill: #0173b2; opacity: 0.5; stroke: #ffffff; stroke-linejoin: miter"/>
   </g>
   <g id="patch_33">
    <path d="M 785.826336 219.479683 
L 793.636255 219.479683 
L 793.636255 219.479683 
L 785.826336 219.479683 
z
" clip-path="url(#pf909736eff)" style="fill: #0173b2; opacity: 0.5; stroke: #ffffff; stroke-linejoin: miter"/>
   </g>
   <g id="patch_34">
    <path d="M 637.437908 219.479683 
L 645.247825 219.479683 
L 645.247825 217.640673 
L 637.437908 217.640673 
z
" clip-path="url(#pf909736eff)" style="fill: #029e73; opacity: 0.5; stroke: #ffffff; stroke-linejoin: miter"/>
   </g>
   <g id="patch_35">
    <path d="M 645.247825 219.479683 
L 653.057743 219.479683 
L 653.057743 206.606618 
L 645.247825 206.606618 
z
" clip-path="url(#pf909736eff)" style="fill: #029e73; opacity: 0.5; stroke: #ffffff; stroke-linejoin: miter"/>
   </g>
   <g id="patch_36">
    <path d="M 653.057743 219.479683 
L 660.867661 219.479683 
L 660.867661 210.284636 
L 653.057743 210.284636 
z
" clip-path="url(#pf909736eff)" style="fill: #029e73; opacity: 0.5; stroke: #ffffff; stroke-linejoin: miter"/>
   </g>
   <g id="patch_37">
    <path d="M 660.867661 219.479683 
L 668.677578 219.479683 
L 668.677578 201.08959 
L 660.867661 201.08959 
z
" clip-path="url(#pf909736eff)" style="fill: #029e73; opacity: 0.5; stroke: #ffffff; stroke-linejoin: miter"/>
   </g>
   <g id="patch_38">
    <path d="M 668.677578 219.479683 
L 676.487495 219.479683 
L 676.487495 201.08959 
L 668.677578 201.08959 
z
" clip-path="url(#pf909736eff)" style="fill: #029e73; opacity: 0.5; stroke: #ffffff; stroke-linejoin: miter"/>
   </g>
   <g id="patch_39">
    <path d="M 676.487495 219.479683 
L 684.297414 219.479683 
L 684.297414 184.538506 
L 676.487495 184.538506 
z
" clip-path="url(#pf909736eff)" style="fill: #029e73; opacity: 0.5; stroke: #ffffff; stroke-linejoin: miter"/>
   </g>
   <g id="patch_40">
    <path d="M 684.297414 219.479683 
L 692.107328 219.479683 
L 692.107328 186.377515 
L 684.297414 186.377515 
z
" clip-path="url(#pf909736eff)" style="fill: #029e73; opacity: 0.5; stroke: #ffffff; stroke-linejoin: miter"/>
   </g>
   <g id="patch_41">
    <path d="M 692.107328 219.479683 
L 699.917248 219.479683 
L 699.917248 180.860488 
L 692.107328 180.860488 
z
" clip-path="url(#pf909736eff)" style="fill: #029e73; opacity: 0.5; stroke: #ffffff; stroke-linejoin: miter"/>
   </g>
   <g id="patch_42">
    <path d="M 699.917248 219.479683 
L 707.727162 219.479683 
L 707.727162 184.538506 
L 699.917248 184.538506 
z
" clip-path="url(#pf909736eff)" style="fill: #029e73; opacity: 0.5; stroke: #ffffff; stroke-linejoin: miter"/>
   </g>
   <g id="patch_43">
    <path d="M 707.727162 219.479683 
L 715.537081 219.479683 
L 715.537081 177.182469 
L 707.727162 177.182469 
z
" clip-path="url(#pf909736eff)" style="fill: #029e73; opacity: 0.5; stroke: #ffffff; stroke-linejoin: miter"/>
   </g>
   <g id="patch_44">
    <path d="M 715.537081 219.479683 
L 723.347001 219.479683 
L 723.347001 149.59733 
L 715.537081 149.59733 
z
" clip-path="url(#pf909736eff)" style="fill: #029e73; opacity: 0.5; stroke: #ffffff; stroke-linejoin: miter"/>
   </g>
   <g id="patch_45">
    <path d="M 723.347001 219.479683 
L 731.15692 219.479683 
L 731.15692 134.885255 
L 723.347001 134.885255 
z
" clip-path="url(#pf909736eff)" style="fill: #029e73; opacity: 0.5; stroke: #ffffff; stroke-linejoin: miter"/>
   </g>
   <g id="patch_46">
    <path d="M 731.15692 219.479683 
L 738.96683 219.479683 
L 738.96683 116.495162 
L 731.15692 116.495162 
z
" clip-path="url(#pf909736eff)" style="fill: #029e73; opacity: 0.5; stroke: #ffffff; stroke-linejoin: miter"/>
   </g>
   <g id="patch_47">
    <path d="M 738.96683 219.479683 
L 746.776749 219.479683 
L 746.776749 173.50445 
L 738.96683 173.50445 
z
" clip-path="url(#pf909736eff)" style="fill: #029e73; opacity: 0.5; stroke: #ffffff; stroke-linejoin: miter"/>
   </g>
   <g id="patch_48">
    <path d="M 746.776749 219.479683 
L 754.586668 219.479683 
L 754.586668 219.479683 
L 746.776749 219.479683 
z
" clip-path="url(#pf909736eff)" style="fill: #029e73; opacity: 0.5; stroke: #ffffff; stroke-linejoin: miter"/>
   </g>
   <g id="patch_49">
    <path d="M 754.586668 219.479683 
L 762.396587 219.479683 
L 762.396587 219.479683 
L 754.586668 219.479683 
z
" clip-path="url(#pf909736eff)" style="fill: #029e73; opacity: 0.5; stroke: #ffffff; stroke-linejoin: miter"/>
   </g>
   <g id="patch_50">
    <path d="M 762.396587 219.479683 
L 770.206507 219.479683 
L 770.206507 219.479683 
L 762.396587 219.479683 
z
" clip-path="url(#pf909736eff)" style="fill: #029e73; opacity: 0.5; stroke: #ffffff; stroke-linejoin: miter"/>
   </g>
   <g id="patch_51">
    <path d="M 770.206507 219.479683 
L 778.016416 219.479683 
L 778.016416 219.479683 
L 770.206507 219.479683 
z
" clip-path="url(#pf909736eff)" style="fill: #029e73; opacity: 0.5; stroke: #ffffff; stroke-linejoin: miter"/>
   </g>
   <g id="patch_52">
    <path d="M 778.016416 219.479683 
L 785.826336 219.479683 
L 785.826336 219.479683 
L 778.016416 219.479683 
z
" clip-path="url(#pf909736eff)" style="fill: #029e73; opacity: 0.5; stroke: #ffffff; stroke-linejoin: miter"/>
   </g>
   <g id="patch_53">
    <path d="M 785.826336 219.479683 
L 793.636255 219.479683 
L 793.636255 219.479683 
L 785.826336 219.479683 
z
" clip-path="url(#pf909736eff)" style="fill: #029e73; opacity: 0.5; stroke: #ffffff; stroke-linejoin: miter"/>
   </g>
   <g id="patch_54">
    <path d="M 637.437908 219.479683 
L 645.247825 219.479683 
L 645.247825 219.479683 
L 637.437908 219.479683 
z
" clip-path="url(#pf909736eff)" style="fill: #de8f05; opacity: 0.5; stroke: #ffffff; stroke-linejoin: miter"/>
   </g>
   <g id="patch_55">
    <path d="M 645.247825 219.479683 
L 653.057743 219.479683 
L 653.057743 204.767608 
L 645.247825 204.767608 
z
" clip-path="url(#pf909736eff)" style="fill: #de8f05; opacity: 0.5; stroke: #ffffff; stroke-linejoin: miter"/>
   </g>
   <g id="patch_56">
    <path d="M 653.057743 219.479683 
L 660.867661 219.479683 
L 660.867661 206.606618 
L 653.057743 206.606618 
z
" clip-path="url(#pf909736eff)" style="fill: #de8f05; opacity: 0.5; stroke: #ffffff; stroke-linejoin: miter"/>
   </g>
   <g id="patch_57">
    <path d="M 660.867661 219.479683 
L 668.677578 219.479683 
L 668.677578 206.606618 
L 660.867661 206.606618 
z
" clip-path="url(#pf909736eff)" style="fill: #de8f05; opacity: 0.5; stroke: #ffffff; stroke-linejoin: miter"/>
   </g>
   <g id="patch_58">
    <path d="M 668.677578 219.479683 
L 676.487495 219.479683 
L 676.487495 208.445627 
L 668.677578 208.445627 
z
" clip-path="url(#pf909736eff)" style="fill: #de8f05; opacity: 0.5; stroke: #ffffff; stroke-linejoin: miter"/>
   </g>
   <g id="patch_59">
    <path d="M 676.487495 219.479683 
L 684.297414 219.479683 
L 684.297414 197.411571 
L 676.487495 197.411571 
z
" clip-path="url(#pf909736eff)" style="fill: #de8f05; opacity: 0.5; stroke: #ffffff; stroke-linejoin: miter"/>
   </g>
   <g id="patch_60">
    <path d="M 684.297414 219.479683 
L 692.107328 219.479683 
L 692.107328 180.860488 
L 684.297414 180.860488 
z
" clip-path="url(#pf909736eff)" style="fill: #de8f05; opacity: 0.5; stroke: #ffffff; stroke-linejoin: miter"/>
   </g>
   <g id="patch_61">
    <path d="M 692.107328 219.479683 
L 699.917248 219.479683 
L 699.917248 186.377515 
L 692.107328 186.377515 
z
" clip-path="url(#pf909736eff)" style="fill: #de8f05; opacity: 0.5; stroke: #ffffff; stroke-linejoin: miter"/>
   </g>
   <g id="patch_62">
    <path d="M 699.917248 219.479683 
L 707.727162 219.479683 
L 707.727162 179.021478 
L 699.917248 179.021478 
z
" clip-path="url(#pf909736eff)" style="fill: #de8f05; opacity: 0.5; stroke: #ffffff; stroke-linejoin: miter"/>
   </g>
   <g id="patch_63">
    <path d="M 707.727162 219.479683 
L 715.537081 219.479683 
L 715.537081 169.826432 
L 707.727162 169.826432 
z
" clip-path="url(#pf909736eff)" style="fill: #de8f05; opacity: 0.5; stroke: #ffffff; stroke-linejoin: miter"/>
   </g>
   <g id="patch_64">
    <path d="M 715.537081 219.479683 
L 723.347001 219.479683 
L 723.347001 156.953367 
L 715.537081 156.953367 
z
" clip-path="url(#pf909736eff)" style="fill: #de8f05; opacity: 0.5; stroke: #ffffff; stroke-linejoin: miter"/>
   </g>
   <g id="patch_65">
    <path d="M 723.347001 219.479683 
L 731.15692 219.479683 
L 731.15692 110.978135 
L 723.347001 110.978135 
z
" clip-path="url(#pf909736eff)" style="fill: #de8f05; opacity: 0.5; stroke: #ffffff; stroke-linejoin: miter"/>
   </g>
   <g id="patch_66">
    <path d="M 731.15692 219.479683 
L 738.96683 219.479683 
L 738.96683 94.427051 
L 731.15692 94.427051 
z
" clip-path="url(#pf909736eff)" style="fill: #de8f05; opacity: 0.5; stroke: #ffffff; stroke-linejoin: miter"/>
   </g>
   <g id="patch_67">
    <path d="M 738.96683 219.479683 
L 746.776749 219.479683 
L 746.776749 202.928599 
L 738.96683 202.928599 
z
" clip-path="url(#pf909736eff)" style="fill: #de8f05; opacity: 0.5; stroke: #ffffff; stroke-linejoin: miter"/>
   </g>
   <g id="patch_68">
    <path d="M 746.776749 219.479683 
L 754.586668 219.479683 
L 754.586668 219.479683 
L 746.776749 219.479683 
z
" clip-path="url(#pf909736eff)" style="fill: #de8f05; opacity: 0.5; stroke: #ffffff; stroke-linejoin: miter"/>
   </g>
   <g id="patch_69">
    <path d="M 754.586668 219.479683 
L 762.396587 219.479683 
L 762.396587 219.479683 
L 754.586668 219.479683 
z
" clip-path="url(#pf909736eff)" style="fill: #de8f05; opacity: 0.5; stroke: #ffffff; stroke-linejoin: miter"/>
   </g>
   <g id="patch_70">
    <path d="M 762.396587 219.479683 
L 770.206507 219.479683 
L 770.206507 219.479683 
L 762.396587 219.479683 
z
" clip-path="url(#pf909736eff)" style="fill: #de8f05; opacity: 0.5; stroke: #ffffff; stroke-linejoin: miter"/>
   </g>
   <g id="patch_71">
    <path d="M 770.206507 219.479683 
L 778.016416 219.479683 
L 778.016416 219.479683 
L 770.206507 219.479683 
z
" clip-path="url(#pf909736eff)" style="fill: #de8f05; opacity: 0.5; stroke: #ffffff; stroke-linejoin: miter"/>
   </g>
   <g id="patch_72">
    <path d="M 778.016416 219.479683 
L 785.826336 219.479683 
L 785.826336 219.479683 
L 778.016416 219.479683 
z
" clip-path="url(#pf909736eff)" style="fill: #de8f05; opacity: 0.5; stroke: #ffffff; stroke-linejoin: miter"/>
   </g>
   <g id="patch_73">
    <path d="M 785.826336 219.479683 
L 793.636255 219.479683 
L 793.636255 219.479683 
L 785.826336 219.479683 
z
" clip-path="url(#pf909736eff)" style="fill: #de8f05; opacity: 0.5; stroke: #ffffff; stroke-linejoin: miter"/>
   </g>
   <g id="patch_74">
    <path d="M 629.62799 219.479683 
L 629.62799 88.174419 
" style="fill: none; stroke: #262626; stroke-width: 1.25; stroke-linejoin: miter; stroke-linecap: square"/>
   </g>
   <g id="patch_75">
    <path d="M 801.446172 219.479683 
L 801.446172 88.174419 
" style="fill: none; stroke: #262626; stroke-width: 1.25; stroke-linejoin: miter; stroke-linecap: square"/>
   </g>
   <g id="patch_76">
    <path d="M 629.62799 219.479683 
L 801.446172 219.479683 
" style="fill: none; stroke: #262626; stroke-width: 1.25; stroke-linejoin: miter; stroke-linecap: square"/>
   </g>
   <g id="patch_77">
    <path d="M 629.62799 88.174419 
L 801.446172 88.174419 
" style="fill: none; stroke: #262626; stroke-width: 1.25; stroke-linejoin: miter; stroke-linecap: square"/>
   </g>
   <g id="text_31">
    <text style="fill: #262626; font: 20px 'Arial', 'DejaVu Sans', 'Liberation Sans', 'Bitstream Vera Sans', sans-serif; text-anchor: start" x="586.673445" y="77.110242" transform="rotate(-0 586.673445 77.110242)">(c)</text>
   </g>
   <g id="legend_2">
    <g id="patch_78">
     <path d="M 596.683445 74.459156 
L 813.755211 74.459156 
Q 816.615211 74.459156 816.615211 71.599156 
L 816.615211 10.06 
Q 816.615211 7.2 813.755211 7.2 
L 596.683445 7.2 
Q 593.823445 7.2 593.823445 10.06 
L 593.823445 71.599156 
Q 593.823445 74.459156 596.683445 74.459156 
z
" style="fill: #ffffff; opacity: 0.8; stroke: #cccccc; stroke-linejoin: miter"/>
    </g>
    <g id="patch_79">
     <path d="M 599.543445 23.785766 
L 628.143445 23.785766 
L 628.143445 13.775766 
L 599.543445 13.775766 
z
" style="fill: #0173b2; opacity: 0.5; stroke: #ffffff; stroke-linejoin: miter"/>
    </g>
    <g id="text_32">
     <text style="fill: #262626; font: 14.3px 'Arial', 'DejaVu Sans', 'Liberation Sans', 'Bitstream Vera Sans', sans-serif; text-anchor: start" x="639.583445" y="23.785766" transform="rotate(-0 639.583445 23.785766)">Linear</text>
    </g>
    <g id="patch_80">
     <path d="M 599.543445 44.775484 
L 628.143445 44.775484 
L 628.143445 34.765484 
L 599.543445 34.765484 
z
" style="fill: #029e73; opacity: 0.5; stroke: #ffffff; stroke-linejoin: miter"/>
    </g>
    <g id="text_33">
     <text style="fill: #262626; font: 14.3px 'Arial', 'DejaVu Sans', 'Liberation Sans', 'Bitstream Vera Sans', sans-serif; text-anchor: start" x="639.583445" y="44.775484" transform="rotate(-0 639.583445 44.775484)">Iterative constant shear</text>
    </g>
    <g id="patch_81">
     <path d="M 599.543445 65.765203 
L 628.143445 65.765203 
L 628.143445 55.755203 
L 599.543445 55.755203 
z
" style="fill: #de8f05; opacity: 0.5; stroke: #ffffff; stroke-linejoin: miter"/>
    </g>
    <g id="text_34">
     <text style="fill: #262626; font: 14.3px 'Arial', 'DejaVu Sans', 'Liberation Sans', 'Bitstream Vera Sans', sans-serif; text-anchor: start" x="639.583445" y="65.765203" transform="rotate(-0 639.583445 65.765203)">Iterative variable shear</text>
    </g>
   </g>
  </g>
  <g id="text_35">
   <text style="fill: #262626; font: 18.72px 'Arial', 'DejaVu Sans', 'Liberation Sans', 'Bitstream Vera Sans', sans-serif; text-anchor: middle" x="423.446172" y="37.598694" transform="rotate(-0 423.446172 37.598694)">Southern California data set</text>
  </g>
 </g>
 <defs>
  <clipPath id="p5cb0e094a6">
   <path d="M 131.355263 219.479683 
C 148.766545 219.479683 165.467049 212.562107 177.778684 200.250472 
C 190.090319 187.938837 197.007895 171.238332 197.007895 153.827051 
C 197.007895 136.41577 190.090319 119.715265 177.778684 107.40363 
C 165.467049 95.091995 148.766545 88.174419 131.355263 88.174419 
C 113.943982 88.174419 97.243477 95.091995 84.931842 107.40363 
C 72.620207 119.715265 65.702632 136.41577 65.702632 153.827051 
C 65.702632 171.238332 72.620207 187.938837 84.931842 200.250472 
C 97.243477 212.562107 113.943982 219.479683 131.355263 219.479683 
z
"/>
  </clipPath>
  <clipPath id="p1a174acec3">
   <rect x="337.537081" y="88.174419" width="171.818182" height="131.305263"/>
  </clipPath>
  <clipPath id="pf909736eff">
   <rect x="629.62799" y="88.174419" width="171.818182" height="131.305263"/>
  </clipPath>
 </defs>
</svg>
