<?xml version="1.0" encoding="utf-8" standalone="no"?>
<!DOCTYPE svg PUBLIC "-//W3C//DTD SVG 1.1//EN"
  "http://www.w3.org/Graphics/SVG/1.1/DTD/svg11.dtd">
<svg xmlns:xlink="http://www.w3.org/1999/xlink" width="823.815211pt" height="390.416018pt" viewBox="0 0 823.815211 390.416018" xmlns="http://www.w3.org/2000/svg" version="1.1">
 <metadata>
  <rdf:RDF xmlns:dc="http://purl.org/dc/elements/1.1/" xmlns:cc="http://creativecommons.org/ns#" xmlns:rdf="http://www.w3.org/1999/02/22-rdf-syntax-ns#">
   <cc:Work>
    <dc:type rdf:resource="http://purl.org/dc/dcmitype/StillImage"/>
    <dc:date>2024-02-22T11:38:03.911343</dc:date>
    <dc:format>image/svg+xml</dc:format>
    <dc:creator>
     <cc:Agent>
      <dc:title>Matplotlib v3.7.1, https://matplotlib.org/</dc:title>
     </cc:Agent>
    </dc:creator>
   </cc:Work>
  </rdf:RDF>
 </metadata>
 <defs>
  <style type="text/css">*{stroke-linejoin: round; stroke-linecap: butt}</style>
 </defs>
 <g id="figure_1">
  <g id="patch_1">
   <path d="M 0 390.416018 
L 823.815211 390.416018 
L 823.815211 0 
L 0 0 
z
" style="fill: #ffffff"/>
  </g>
  <g id="axes_1">
   <g id="matplotlib.axis_1">
    <g id="xtick_1">
     <g id="text_1">
      <text style="fill: #262626; font: 14.3px 'Arial', 'DejaVu Sans', 'Liberation Sans', 'Bitstream Vera Sans', sans-serif; text-anchor: middle" x="131.355263" y="75.620326" transform="rotate(-0 131.355263 75.620326)">0°</text>
     </g>
    </g>
    <g id="xtick_2">
     <g id="text_2">
      <text style="fill: #262626; font: 14.3px 'Arial', 'DejaVu Sans', 'Liberation Sans', 'Bitstream Vera Sans', sans-serif; text-anchor: middle" x="189.445946" y="99.682274" transform="rotate(-0 189.445946 99.682274)">45°</text>
     </g>
    </g>
    <g id="xtick_3">
     <g id="text_3">
      <text style="fill: #262626; font: 14.3px 'Arial', 'DejaVu Sans', 'Liberation Sans', 'Bitstream Vera Sans', sans-serif; text-anchor: middle" x="213.507895" y="157.772957" transform="rotate(-0 213.507895 157.772957)">90°</text>
     </g>
    </g>
    <g id="xtick_4">
     <g id="text_4">
      <text style="fill: #262626; font: 14.3px 'Arial', 'DejaVu Sans', 'Liberation Sans', 'Bitstream Vera Sans', sans-serif; text-anchor: middle" x="189.445946" y="215.86364" transform="rotate(-0 189.445946 215.86364)">135°</text>
     </g>
    </g>
    <g id="xtick_5">
     <g id="text_5">
      <text style="fill: #262626; font: 14.3px 'Arial', 'DejaVu Sans', 'Liberation Sans', 'Bitstream Vera Sans', sans-serif; text-anchor: middle" x="131.355263" y="239.925589" transform="rotate(-0 131.355263 239.925589)">180°</text>
     </g>
    </g>
    <g id="xtick_6">
     <g id="text_6">
      <text style="fill: #262626; font: 14.3px 'Arial', 'DejaVu Sans', 'Liberation Sans', 'Bitstream Vera Sans', sans-serif; text-anchor: middle" x="73.26458" y="215.86364" transform="rotate(-0 73.26458 215.86364)">225°</text>
     </g>
    </g>
    <g id="xtick_7">
     <g id="text_7">
      <text style="fill: #262626; font: 14.3px 'Arial', 'DejaVu Sans', 'Liberation Sans', 'Bitstream Vera Sans', sans-serif; text-anchor: middle" x="49.202632" y="157.772957" transform="rotate(-0 49.202632 157.772957)">270°</text>
     </g>
    </g>
    <g id="xtick_8">
     <g id="text_8">
      <text style="fill: #262626; font: 14.3px 'Arial', 'DejaVu Sans', 'Liberation Sans', 'Bitstream Vera Sans', sans-serif; text-anchor: middle" x="73.26458" y="99.682274" transform="rotate(-0 73.26458 99.682274)">315°</text>
     </g>
    </g>
   </g>
   <g id="matplotlib.axis_2"/>
  </g>
  <g id="axes_2">
   <g id="patch_2">
    <path d="M 131.355263 219.479683 
C 148.766545 219.479683 165.467049 212.562107 177.778684 200.250472 
C 190.090319 187.938837 197.007895 171.238332 197.007895 153.827051 
C 197.007895 136.41577 190.090319 119.715265 177.778684 107.40363 
C 165.467049 95.091995 148.766545 88.174419 131.355263 88.174419 
C 113.943982 88.174419 97.243477 95.091995 84.931842 107.40363 
C 72.620207 119.715265 65.702632 136.41577 65.702632 153.827051 
C 65.702632 171.238332 72.620207 187.938837 84.931842 200.250472 
C 97.243477 212.562107 113.943982 219.479683 131.355263 219.479683 
z
" style="fill: #ffffff"/>
   </g>
   <g id="matplotlib.axis_3">
    <g id="xtick_9"/>
    <g id="xtick_10"/>
    <g id="xtick_11"/>
    <g id="xtick_12"/>
    <g id="xtick_13"/>
    <g id="xtick_14"/>
    <g id="xtick_15"/>
    <g id="xtick_16"/>
    <g id="xtick_17"/>
    <g id="xtick_18"/>
    <g id="xtick_19"/>
    <g id="xtick_20"/>
   </g>
   <g id="matplotlib.axis_4">
    <g id="ytick_1"/>
    <g id="ytick_2"/>
    <g id="ytick_3"/>
    <g id="ytick_4"/>
    <g id="ytick_5"/>
    <g id="ytick_6"/>
    <g id="ytick_7"/>
    <g id="ytick_8"/>
    <g id="ytick_9"/>
    <g id="ytick_10"/>
    <g id="ytick_11"/>
   </g>
   <g id="PathCollection_1">
    <path d="M 110.844205 174.283863 
L 110.647022 173.557661 
L 110.495498 172.827466 
L 110.386927 172.093721 
L 110.320755 171.356753 
L 110.298587 170.616798 
L 110.315218 170.089945 
L 110.314113 169.87446 
L 110.344665 169.130971 
L 110.420082 168.385282 
L 110.549977 167.637376 
L 110.674827 167.134183 
L 110.720078 166.888152 
L 110.900798 166.138851 
L 111.160825 165.387527 
L 111.203702 165.280842 
L 111.42082 164.636891 
L 111.766911 163.884813 
L 111.794866 163.830236 
L 112.115896 163.133728 
L 112.421449 162.611461 
L 112.548119 162.382032 
L 113.04066 161.630658 
L 113.073175 161.584918 
L 113.575841 160.880225 
L 113.741132 160.674219 
L 114.199248 160.130337 
L 114.422308 159.884001 
L 114.922088 159.381336 
L 115.113377 159.194256 
L 115.771873 158.633452 
L 115.812211 158.598563 
L 116.516239 158.049679 
L 116.771833 157.887087 
L 117.225143 157.574347 
L 117.938218 157.187419 
L 118.037889 157.142212 
L 118.653681 156.819388 
L 119.371989 156.536679 
L 119.835209 156.398894 
L 120.092222 156.304929 
L 120.813912 156.106672 
L 121.537101 155.975847 
L 122.261471 155.904132 
L 122.986822 155.888794 
L 123.713029 155.932312 
L 124.440016 156.042778 
L 125.167751 156.23515 
L 125.555036 156.383992 
L 125.896088 156.502147 
L 126.624962 156.855822 
L 127.017853 157.111441 
L 127.354375 157.331058 
L 127.959521 157.839194 
L 128.084181 157.951878 
L 128.663105 158.566909 
L 128.814104 158.752696 
L 129.220799 159.294474 
L 129.543794 159.832528 
L 129.657119 160.021841 
L 130.02584 160.748908 
L 130.272427 161.406934 
L 130.300838 161.475658 
L 130.554109 162.201971 
L 130.737372 162.927838 
L 130.865735 163.65319 
L 130.949793 164.377966 
L 130.996742 165.10211 
L 130.998927 165.209796 
L 131.015645 165.825572 
L 131.000604 166.30211 
L 130.995234 166.548314 
L 130.949408 167.270289 
L 130.871942 167.991468 
L 130.75892 168.711828 
L 130.603727 169.431365 
L 130.396253 170.150109 
L 130.314337 170.383654 
L 130.179066 170.867997 
L 129.925992 171.5851 
L 129.641303 172.210262 
L 129.606084 172.301594 
L 129.289398 173.017293 
L 128.979661 173.568623 
L 128.896678 173.732666 
L 128.480107 174.447604 
L 128.32781 174.675935 
L 128.017766 175.162431 
L 127.684563 175.617042 
L 127.494259 175.87758 
L 127.048811 176.432469 
L 126.914632 176.593402 
L 126.420027 177.15704 
L 126.27442 177.310441 
L 125.797563 177.808178 
L 125.558809 178.029582 
L 125.180416 178.391296 
L 124.738409 178.752356 
L 124.566961 178.902296 
L 123.957587 179.36542 
L 123.777216 179.481139 
L 123.352098 179.789856 
L 122.746349 180.140913 
L 122.580024 180.221269 
L 122.144169 180.471937 
L 121.540901 180.745308 
L 120.93443 180.954961 
L 120.797594 180.991451 
L 120.32923 181.147399 
L 119.720348 181.289346 
L 119.105898 181.37597 
L 118.484706 181.407824 
L 117.854844 181.38027 
L 117.213347 181.28269 
L 116.847584 181.184986 
L 116.559406 181.117909 
L 115.890827 180.879689 
L 115.290557 180.562837 
L 115.196833 180.513845 
L 114.478581 180.033795 
L 114.319781 179.904677 
L 113.723199 179.373092 
L 113.581433 179.229654 
L 112.983362 178.543146 
L 112.916809 178.455869 
L 112.466304 177.848923 
L 112.047865 177.14599 
L 112.031936 177.115794 
L 111.657765 176.438967 
L 111.337254 175.725474 
L 111.074457 175.006525 
L 110.957774 174.62344 
L 110.844205 174.283863 
z
" clip-path="url(#pa870de4f17)" style="fill: none; stroke: #0173b2; stroke-width: 0.75"/>
   </g>
   <g id="PathCollection_2">
    <path d="M 141.976414 110.860518 
L 141.749451 110.216245 
L 141.556059 109.571551 
L 141.408106 108.984786 
L 141.392574 108.926644 
L 141.246415 108.282638 
L 141.124451 107.638687 
L 141.028944 106.994332 
L 140.969297 106.407879 
L 140.961286 106.34912 
L 140.898151 105.705423 
L 140.87262 105.078026 
L 140.87123 105.059232 
L 140.848071 104.414051 
L 140.85415 104.084207 
L 140.852326 103.766485 
L 140.874011 103.275829 
L 140.87857 103.116558 
L 140.915491 102.587607 
L 140.923715 102.463943 
L 140.969455 101.983564 
L 140.98856 101.807622 
L 141.032384 101.445435 
L 141.07892 101.145465 
L 141.105268 100.966288 
L 141.186937 100.53672 
L 141.200955 100.474683 
L 141.264824 100.130638 
L 141.361985 99.791408 
L 141.363691 99.783499 
L 141.447587 99.435672 
L 141.555699 99.142878 
L 141.5796 99.088186 
L 141.652756 98.851259 
L 141.762513 98.591977 
L 141.890054 98.36821 
L 141.904423 98.346372 
L 142.001881 98.135634 
L 142.127089 97.929532 
L 142.267109 97.74909 
L 142.419921 97.589778 
L 142.524842 97.49768 
L 142.575363 97.43883 
L 142.728475 97.290349 
L 142.893041 97.158138 
L 143.067267 97.039097 
L 143.249497 96.930583 
L 143.438241 96.830367 
L 143.632386 96.736779 
L 143.831242 96.648682 
L 144.034687 96.565539 
L 144.243261 96.487422 
L 144.45812 96.414914 
L 144.680984 96.349006 
L 144.914045 96.290989 
L 145.159731 96.242244 
L 145.420618 96.204167 
L 145.699265 96.178055 
L 145.998174 96.165097 
L 146.054489 96.164574 
L 146.293828 96.147283 
L 146.603549 96.137326 
L 146.934995 96.140274 
L 147.290988 96.157519 
L 147.66873 96.190336 
L 147.674592 96.190596 
L 148.048013 96.212892 
L 148.457042 96.255915 
L 148.911319 96.325525 
L 148.996621 96.340426 
L 149.382403 96.402001 
L 149.913316 96.513904 
L 150.164048 96.575279 
L 150.50228 96.659617 
L 151.177051 96.857537 
L 151.228337 96.873505 
L 151.944992 97.113018 
L 152.229617 97.215441 
L 152.862983 97.465803 
L 153.180225 97.595665 
L 154.013385 97.976638 
L 154.087184 98.010765 
L 154.963281 98.452521 
L 155.675327 98.85663 
L 155.799506 98.926954 
L 156.611669 99.423005 
L 157.391494 99.945641 
L 158.142618 100.491662 
L 158.866397 101.059338 
L 159.562228 101.648142 
L 160.227605 102.258607 
L 160.857951 102.892292 
L 161.446171 103.55185 
L 161.468018 103.578664 
L 162.002123 104.230061 
L 162.50107 104.938816 
L 162.614427 105.122727 
L 162.950077 105.671823 
L 163.24085 106.251492 
L 163.330564 106.435907 
L 163.625623 107.187162 
L 163.640781 107.228466 
L 163.867821 108.010891 
L 163.877101 108.047629 
L 164.015587 108.763188 
L 164.034113 108.892053 
L 164.092665 109.463344 
L 164.104328 109.760872 
L 164.109867 110.118255 
L 164.075575 110.654451 
L 164.070521 110.726704 
L 164.003369 111.322477 
L 163.954594 111.565721 
L 163.894816 111.884759 
L 163.743804 112.408394 
L 163.711787 112.500265 
L 163.57717 112.929464 
L 163.362927 113.398425 
L 163.332842 113.456662 
L 163.142413 113.875646 
L 162.879699 114.30342 
L 162.783903 114.43793 
L 162.605333 114.728292 
L 162.305182 115.125736 
L 161.996613 115.452968 
L 161.973007 115.482457 
L 161.644051 115.85865 
L 161.283797 116.191998 
L 160.897726 116.489489 
L 160.864249 116.513142 
L 160.51533 116.805681 
L 160.111321 117.091626 
L 159.686879 117.347406 
L 159.244868 117.576765 
L 159.059779 117.662014 
L 158.797647 117.804258 
L 158.339778 118.017843 
L 157.865401 118.203355 
L 157.37584 118.36182 
L 156.872075 118.493649 
L 156.354843 118.598781 
L 155.824765 118.67694 
L 155.282423 118.727786 
L 154.728385 118.750984 
L 154.163268 118.746345 
L 153.587698 118.71374 
L 153.002262 118.652971 
L 152.952133 118.646239 
L 152.419626 118.597406 
L 151.830278 118.520299 
L 151.232776 118.415979 
L 150.626294 118.280126 
L 150.464243 118.238632 
L 150.021269 118.142078 
L 149.409319 117.975632 
L 148.783997 117.758377 
L 148.705499 117.728044 
L 148.15771 117.526648 
L 147.515008 117.228409 
L 147.390372 117.163983 
L 146.864068 116.886394 
L 146.359122 116.570015 
L 146.193861 116.459737 
L 145.524318 115.95784 
L 145.503807 115.940844 
L 144.821592 115.33507 
L 144.787134 115.300139 
L 144.217719 114.705503 
L 144.027224 114.472028 
L 143.699392 114.070729 
L 143.258755 113.431665 
L 143.184169 113.307769 
L 142.862096 112.791495 
L 142.521681 112.149101 
L 142.230264 111.505112 
L 141.999806 110.917669 
L 141.976414 110.860518 
z
" clip-path="url(#pa870de4f17)" style="fill: none; stroke-dasharray: 2.775,1.2; stroke-dashoffset: 0; stroke: #0173b2; stroke-width: 0.75"/>
   </g>
   <g id="PathCollection_3">
    <path d="M 77.437278 116.743004 
L 77.672727 117.15837 
L 77.786164 117.768689 
L 77.784594 117.997996 
L 77.751908 118.629395 
L 77.6772 119.101605 
L 77.506423 119.872925 
L 77.443242 120.114358 
L 77.136163 121.077658 
L 76.780212 122.010208 
L 76.702446 122.185784 
L 76.383458 122.919872 
L 75.946641 123.809982 
L 75.468299 124.682419 
L 75.148917 125.201021 
L 74.943907 125.537518 
L 74.365196 126.374012 
L 73.715374 127.187314 
L 73.685138 127.221007 
L 72.951338 127.962778 
L 72.765121 128.126661 
L 72.026285 128.636569 
L 71.967769 128.661695 
L 71.404515 128.878759 
L 70.877017 128.90013 
" clip-path="url(#pa870de4f17)" style="fill: none; stroke-dasharray: 4.8,1.2,0.75,1.2; stroke-dashoffset: 0; stroke: #0173b2; stroke-width: 0.75"/>
    <path d="M 181.668106 195.694272 
L 181.376636 195.420798 
L 181.099512 195.125215 
L 180.839601 194.803028 
L 180.601592 194.447096 
L 180.392287 194.046979 
L 180.319278 193.862522 
L 180.191237 193.627266 
L 180.005656 193.177119 
L 179.867928 192.650196 
L 179.8307 192.417681 
L 179.744856 192.087911 
L 179.658711 191.455443 
L 179.645512 191.220689 
L 179.594097 190.769933 
L 179.583536 190.126372 
L 179.576734 189.987084 
L 179.589024 189.125183 
L 179.590452 189.090697 
L 179.629026 188.178842 
L 179.634704 188.090561 
L 179.714219 187.119768 
L 179.715738 187.104863 
L 179.804951 186.165094 
L 179.84148 185.899769 
L 179.917479 185.228208 
L 180.043372 184.470752 
L 180.06382 184.310837 
L 180.205511 183.398016 
L 180.34716 182.720555 
L 180.38196 182.501351 
L 180.551569 181.606541 
L 180.759392 180.726002 
L 180.880892 180.269747 
L 180.971926 179.848883 
L 181.190525 178.975023 
L 181.434831 178.108749 
L 181.700397 177.247933 
L 181.985282 176.391275 
L 182.289832 175.538107 
L 182.616745 174.688284 
L 182.971425 173.84215 
L 183.362704 173.000566 
L 183.611184 172.521057 
L 183.781246 172.160798 
L 184.222936 171.321353 
L 184.733087 170.497642 
L 184.737521 170.490036 
L 185.270651 169.656257 
L 185.630678 169.173855 
L 185.888948 168.829911 
L 186.424637 168.197299 
L 186.595156 168.009539 
L 187.158377 167.432338 
L 187.423242 167.198219 
L 187.84942 166.826332 
L 188.462824 166.406268 
L 188.50219 166.377757 
L 189.13835 165.986319 
L 189.743765 165.734772 
L 189.981945 165.667963 
L 190.334622 165.541006 
L 190.909452 165.415531 
L 191.466339 165.370738 
L 192.00791 165.392182 
L 192.535861 165.469528 
L 193.051494 165.594096 
L 193.556214 165.756464 
L 194.052034 165.944125 
L 194.541997 166.1398 
L 195.03018 166.321989 
L 195.520915 166.46917 
" clip-path="url(#pa870de4f17)" style="fill: none; stroke-dasharray: 4.8,1.2,0.75,1.2; stroke-dashoffset: 0; stroke: #0173b2; stroke-width: 0.75"/>
   </g>
   <g id="PathCollection_4">
    <path d="M 110.541462 172.085877 
L 110.399731 171.352911 
L 110.290953 170.617152 
L 110.212362 169.878957 
L 110.163244 169.138575 
L 110.15137 168.698482 
L 110.137185 168.396484 
L 110.125635 167.653182 
L 110.143737 166.908255 
L 110.198104 166.161704 
L 110.29831 165.4135 
L 110.457961 164.663589 
L 110.458081 164.66314 
L 110.615742 163.913999 
L 110.850521 163.16284 
L 111.022567 162.744164 
L 111.142558 162.411071 
L 111.492329 161.659068 
L 111.649512 161.383227 
L 111.906539 160.907089 
L 112.306924 160.312674 
L 112.412456 160.155134 
L 112.982607 159.428229 
L 113.002504 159.403846 
L 113.670086 158.663957 
L 113.68018 158.653646 
L 114.365959 157.98602 
L 114.459976 157.904843 
L 115.068229 157.377989 
L 115.3647 157.157742 
L 115.775637 156.837044 
L 116.42775 156.412679 
L 116.487279 156.370157 
L 117.201558 155.908085 
L 117.658249 155.670159 
L 117.918715 155.512839 
L 118.637902 155.145943 
L 119.178634 154.930384 
L 119.358957 154.843235 
L 120.081335 154.560419 
L 120.804966 154.358662 
L 121.529534 154.226217 
L 121.862162 154.19358 
L 122.254839 154.143318 
L 122.980792 154.128554 
L 123.707333 154.192236 
L 123.710794 154.192901 
L 124.434396 154.303237 
L 125.161985 154.48593 
L 125.890113 154.755694 
L 126.232781 154.922521 
L 126.618721 155.08957 
L 127.347779 155.505912 
L 127.557075 155.651506 
L 128.077175 156.005406 
L 128.523457 156.38018 
L 128.80681 156.629275 
L 129.27815 157.108669 
L 129.536397 157.404166 
L 129.886064 157.837003 
L 130.265457 158.406411 
L 130.370177 158.565174 
L 130.781042 159.293124 
L 130.992911 159.784442 
L 131.103927 160.020819 
L 131.384195 160.748191 
L 131.587883 161.475182 
L 131.715507 162.10679 
L 131.739096 162.201726 
L 131.873195 162.927777 
L 131.955136 163.653261 
L 131.990694 164.378116 
L 131.982218 165.102288 
L 131.928954 165.825726 
L 131.827014 166.548385 
L 131.7086 167.098686 
L 131.679816 167.270241 
L 131.516421 167.991289 
L 131.292965 168.711507 
L 131.006231 169.402894 
L 130.996356 169.430947 
L 130.702837 170.14961 
L 130.317519 170.867648 
L 130.317507 170.867672 
L 129.941679 171.58505 
L 129.639561 172.065095 
L 129.501127 172.302035 
L 129.033299 173.018661 
L 128.971402 173.109466 
L 128.565293 173.734879 
L 128.313527 174.092051 
L 128.066777 174.450989 
L 127.665259 175.001385 
L 127.543854 175.167127 
L 127.026078 175.84365 
L 126.994328 175.88352 
L 126.409021 176.600548 
L 126.395105 176.617328 
L 125.770394 177.30493 
L 125.755743 177.319129 
L 125.150541 177.909316 
L 124.987659 178.040928 
L 124.5332 178.420457 
L 123.996805 178.769988 
L 123.915461 178.826597 
L 123.300329 179.190621 
L 122.682129 179.461205 
L 122.520544 179.517734 
L 122.065175 179.702208 
L 121.446498 179.892225 
L 120.824809 180.029979 
L 120.199966 180.123691 
L 119.571523 180.177223 
L 118.938643 180.190633 
L 118.299985 180.160235 
L 117.653524 180.078136 
L 116.99628 179.931158 
L 116.524527 179.774362 
L 116.326804 179.716742 
L 115.645998 179.445949 
L 115.087096 179.137405 
L 114.943068 179.058669 
L 114.218469 178.563257 
L 114.106322 178.473469 
L 113.462342 177.904981 
L 113.349971 177.794054 
L 112.740248 177.103363 
L 112.659801 176.99572 
L 112.223472 176.404608 
L 111.81568 175.696995 
L 111.777149 175.618487 
L 111.446211 174.984923 
L 111.147146 174.26675 
L 110.906395 173.543472 
L 110.710765 172.816104 
L 110.627283 172.440279 
L 110.541462 172.085877 
z
" clip-path="url(#pa870de4f17)" style="fill: none; stroke: #029e73; stroke-width: 0.75"/>
   </g>
   <g id="PathCollection_5">
    <path d="M 141.779013 110.213395 
L 141.727179 110.010725 
L 141.60867 109.566372 
L 141.489531 108.916854 
L 141.42112 108.264468 
L 141.404099 107.636174 
L 141.402842 107.60872 
L 141.408211 106.95192 
L 141.432598 106.53297 
L 141.446781 106.292471 
L 141.500001 105.644878 
L 141.501284 105.631823 
L 141.556798 104.971444 
L 141.564857 104.837823 
L 141.610108 104.311507 
L 141.621356 104.087359 
L 141.660339 103.651886 
L 141.674502 103.396442 
L 141.720545 102.990242 
L 141.739202 102.786263 
L 141.816778 102.321477 
L 141.825727 102.264792 
L 141.925548 101.805253 
L 141.965737 101.640758 
L 142.025447 101.377759 
L 142.101841 100.957844 
L 142.103905 100.944187 
L 142.120307 100.443773 
L 142.108437 100.296435 
L 142.059247 99.864055 
L 142.015762 99.653946 
L 141.912381 99.206208 
L 141.859623 99.024944 
L 141.709148 98.522305 
L 141.670518 98.403663 
L 141.506753 97.889338 
L 141.475005 97.783981 
L 141.354085 97.35943 
L 141.312566 97.154912 
L 141.27146 96.942925 
L 141.25794 96.625748 
L 141.287617 96.483534 
L 141.303552 96.386951 
L 141.39105 96.201432 
L 141.522365 96.066292 
L 141.684838 95.965161 
L 141.867211 95.884818 
L 142.059204 95.814298 
L 142.251606 95.744641 
L 142.436797 95.66911 
L 142.609219 95.583348 
L 142.765765 95.485464 
L 142.905738 95.375728 
L 143.030388 95.255957 
L 143.142481 95.128996 
L 143.183758 95.077128 
L 143.230478 94.986765 
L 143.305387 94.838444 
L 143.384889 94.697047 
L 143.47679 94.567462 
L 143.589476 94.454478 
L 143.732471 94.363188 
L 143.916306 94.298919 
L 144.154497 94.268548 
L 144.462959 94.280142 
L 144.689484 94.314203 
L 144.840838 94.331287 
L 145.286934 94.419862 
L 145.797413 94.559485 
L 145.844738 94.571413 
L 146.453221 94.748171 
L 146.808696 94.864201 
L 147.140771 94.96749 
L 147.796459 95.187135 
L 147.882881 95.214826 
L 148.623929 95.456527 
L 148.789905 95.510153 
L 149.351612 95.685152 
L 149.803331 95.823327 
L 150.0683 95.902237 
L 150.751785 96.094056 
L 150.849305 96.116807 
L 151.362145 96.235792 
L 151.956394 96.363008 
L 151.961459 96.36367 
L 152.467418 96.434337 
L 153.001487 96.515871 
L 153.160265 96.541587 
L 153.578051 96.619527 
L 154.236626 96.81279 
L 154.385638 96.861747 
L 155.196049 97.18291 
L 155.622833 97.372031 
L 156.1022 97.602704 
L 156.975386 98.055458 
L 157.819267 98.537647 
L 157.964267 98.625982 
L 158.639492 99.043957 
L 159.433963 99.575245 
L 160.201579 100.131366 
L 160.941282 100.711976 
L 161.650985 101.317334 
L 161.813207 101.466394 
L 162.334597 101.943261 
L 162.987923 102.591451 
L 163.603893 103.265144 
L 163.912685 103.635406 
L 164.186696 103.959773 
L 164.738317 104.672553 
L 165.085565 105.168024 
L 165.253804 105.405045 
L 165.748348 106.146989 
L 166.025992 106.590361 
L 166.221935 106.897854 
L 166.692659 107.647629 
L 167.037051 108.199511 
L 167.16209 108.396081 
L 167.651655 109.133266 
L 168.150462 109.865818 
L 168.660798 110.593463 
L 169.180235 111.318052 
L 169.318333 111.507056 
L 169.70549 112.041606 
L 170.225104 112.769422 
L 170.72985 113.50534 
L 171.211408 114.252424 
L 171.662215 115.013066 
L 172.073731 115.789682 
L 172.436316 116.584665 
L 172.492214 116.725611 
L 172.733458 117.402331 
L 172.945368 118.247165 
L 172.968422 118.385038 
L 172.99587 119.14061 
L 172.9803 119.354735 
L 172.760846 119.955239 
L 172.510425 120.187888 
L 172.38757 120.294382 
L 171.89471 120.419846 
L 171.761221 120.405454 
L 171.301009 120.358962 
L 170.619457 120.133146 
L 170.25088 119.956138 
L 169.870625 119.781095 
L 169.148007 119.396901 
L 169.088672 119.367846 
L 168.333907 119.005411 
L 167.973304 118.861008 
L 167.638512 118.751866 
L 167.028928 118.65572 
L 166.498444 118.707026 
L 166.035051 118.888214 
L 165.613246 119.156459 
L 165.205308 119.462085 
L 165.066057 119.570774 
L 164.80285 119.790612 
L 164.385307 120.100647 
L 163.939166 120.361858 
L 163.463796 120.569499 
L 162.961084 120.724379 
L 162.433605 120.829264 
L 161.883713 120.886891 
L 161.313103 120.898875 
L 160.722482 120.864774 
L 160.112027 120.783032 
L 159.491758 120.650864 
L 159.480682 120.649195 
L 158.855185 120.526965 
L 158.210815 120.355175 
L 157.691309 120.181217 
L 157.551941 120.142973 
L 156.898563 119.939473 
L 156.224735 119.678352 
L 156.183688 119.661885 
L 155.56346 119.442675 
L 154.887538 119.162005 
L 154.795016 119.123627 
L 154.224676 118.907457 
L 153.555506 118.627959 
L 153.438011 118.58026 
L 152.900149 118.376408 
L 152.242749 118.110199 
L 152.064608 118.0383 
L 151.594078 117.858154 
L 150.942285 117.587197 
L 150.723124 117.490976 
L 150.292125 117.309618 
L 149.635684 117.001738 
L 149.490843 116.929193 
L 148.980972 116.685196 
L 148.362306 116.35498 
L 148.319316 116.333091 
L 147.666656 115.991493 
L 147.285367 115.775292 
L 147.012542 115.627979 
L 146.360807 115.25275 
L 146.258008 115.190749 
L 145.712718 114.868466 
L 145.301149 114.599586 
L 145.056617 114.435567 
L 144.465063 113.997447 
L 144.388072 113.935404 
L 143.757886 113.384564 
L 143.694577 113.320442 
L 143.170326 112.762646 
L 142.940538 112.461101 
L 142.692074 112.133176 
L 142.308163 111.497796 
L 142.010049 110.857325 
L 141.835434 110.367397 
L 141.779013 110.213395 
z
" clip-path="url(#pa870de4f17)" style="fill: none; stroke-dasharray: 2.775,1.2; stroke-dashoffset: 0; stroke: #029e73; stroke-width: 0.75"/>
   </g>
   <g id="PathCollection_6">
    <path d="M 87.776271 104.953648 
L 87.827176 105.220698 
L 87.850542 105.352629 
L 87.743025 105.928561 
L 87.556763 106.390416 
L 87.396999 106.750931 
L 87.079932 107.322322 
L 86.733806 107.928011 
L 86.563501 108.202574 
L 86.043406 109.06841 
L 85.855855 109.403238 
L 85.545366 109.941909 
L 85.080296 110.830352 
L 85.050694 110.894273 
L 84.655355 111.736938 
L 84.436215 112.251321 
L 84.264313 112.655379 
L 83.892296 113.575127 
L 83.871687 113.627252 
L 83.531489 114.49169 
L 83.244736 115.176115 
L 83.156771 115.391824 
L 82.769509 116.278672 
L 82.352529 117.145416 
L 82.135312 117.561298 
L 81.915853 117.999591 
L 81.458336 118.842342 
L 80.976726 119.673688 
L 80.47367 120.496259 
L 79.950335 121.311735 
L 79.407404 122.118811 
L 79.406087 122.120857 
L 78.8595 122.93218 
L 78.293106 123.739007 
L 77.700333 124.539577 
L 77.46013 124.848179 
L 77.094526 125.339903 
L 76.465314 126.136648 
L 76.122252 126.5465 
L 75.808333 126.928988 
L 75.120652 127.716703 
L 75.017386 127.831999 
L 74.406967 128.502304 
L 74.035273 128.897453 
L 73.653601 129.281801 
L 73.141513 129.79661 
L 72.85713 130.054982 
L 72.316044 130.560738 
L 71.994449 130.815005 
L 71.557284 131.179052 
L 70.988505 131.53704 
L 70.873869 131.614256 
L 70.257129 131.879082 
L 69.722079 131.924531 
" clip-path="url(#pa870de4f17)" style="fill: none; stroke-dasharray: 4.8,1.2,0.75,1.2; stroke-dashoffset: 0; stroke: #029e73; stroke-width: 0.75"/>
    <path d="M 177.648313 200.122673 
L 177.455508 199.795704 
L 177.327403 199.396809 
L 177.287686 199.098307 
L 177.247825 198.939212 
L 177.191265 198.446902 
L 177.193863 197.877551 
L 177.20465 197.741997 
L 177.193856 197.295727 
L 177.237482 196.646581 
L 177.247805 196.556093 
L 177.261886 196.000239 
L 177.31865 195.436448 
L 177.321866 195.289346 
L 177.374817 194.562721 
L 177.397893 194.358254 
L 177.429822 193.807276 
L 177.48249 193.312362 
L 177.503306 192.998108 
L 177.577098 192.295743 
L 177.590013 192.137458 
L 177.68091 191.303382 
L 177.689291 191.221101 
L 177.792933 190.331217 
L 177.804677 190.23764 
L 177.913832 189.376661 
L 177.945736 189.163867 
L 178.045679 188.438136 
L 178.128068 187.961564 
L 178.194046 187.515618 
L 178.366044 186.609567 
L 178.374046 186.571185 
L 178.520763 185.703722 
L 178.689965 184.947092 
L 178.71305 184.816185 
L 178.889738 183.927872 
L 179.105395 183.055317 
L 179.155409 182.871453 
L 179.307669 182.181414 
L 179.530051 181.315527 
L 179.776662 180.457693 
L 180.041321 179.605257 
L 180.138732 179.311036 
L 180.305302 178.752834 
L 180.581345 177.903226 
L 180.874867 177.057117 
L 181.185131 176.213698 
L 181.513249 175.372607 
L 181.802955 174.677277 
L 181.858846 174.533176 
L 182.205039 173.691597 
L 182.57555 172.852105 
L 182.980731 172.015842 
L 183.366213 171.304478 
L 183.426828 171.182973 
L 183.882013 170.347286 
L 184.384346 169.560922 
L 184.41022 169.518442 
L 184.964389 168.687741 
L 185.247776 168.314923 
L 185.595269 167.861763 
L 186.028706 167.351647 
L 186.309544 167.039741 
L 186.758708 166.569802 
L 187.130003 166.222877 
L 187.451972 165.925355 
L 188.10815 165.415525 
L 188.113494 165.411195 
L 188.76068 164.941076 
L 189.342365 164.626882 
L 189.379826 164.603882 
L 189.989866 164.292895 
L 190.578844 164.086575 
L 191.150635 163.965353 
L 191.487158 163.934284 
L 191.709885 163.901441 
L 192.256366 163.896838 
L 192.787755 163.966055 
L 193.304974 164.101251 
L 193.629242 164.222539 
L 193.810867 164.281785 
L 194.310488 164.474318 
L 194.803945 164.677407 
L 195.295486 164.865463 
L 195.789821 165.011958 
" clip-path="url(#pa870de4f17)" style="fill: none; stroke-dasharray: 4.8,1.2,0.75,1.2; stroke-dashoffset: 0; stroke: #029e73; stroke-width: 0.75"/>
   </g>
   <g id="PathCollection_7">
    <path d="M 111.310079 166.868241 
L 111.155137 166.130801 
L 111.040271 165.391081 
L 110.96603 164.649319 
L 110.935135 163.905708 
L 110.952756 163.160408 
L 111.011143 162.558993 
L 111.020521 162.413705 
L 111.114243 161.666406 
L 111.272459 160.918013 
L 111.513861 160.168655 
L 111.585221 159.993999 
L 111.790184 159.419502 
L 112.158743 158.670117 
L 112.241947 158.527348 
L 112.574259 157.921467 
L 112.924506 157.411287 
L 113.08519 157.173442 
L 113.620972 156.496547 
L 113.677714 156.426617 
L 114.325987 155.703168 
L 114.346733 155.681382 
L 115.036892 154.989378 
L 115.093184 154.93803 
L 115.75218 154.335699 
L 115.924325 154.196801 
L 116.470831 153.735717 
L 116.85547 153.457914 
L 117.19202 153.194215 
L 117.914961 152.72501 
L 117.920959 152.721614 
L 118.639451 152.262455 
L 119.207329 151.988306 
L 119.364486 151.900915 
L 120.090159 151.573482 
L 120.815691 151.342443 
L 121.178392 151.259619 
L 121.541347 151.159011 
L 122.267065 151.022048 
L 122.992728 150.942119 
L 123.718457 150.906996 
L 124.444347 150.908704 
L 125.170459 150.943076 
L 125.89683 151.009554 
L 126.623481 151.111211 
L 127.350426 151.255014 
L 127.420656 151.272814 
L 128.077795 151.41212 
L 128.805483 151.621748 
L 129.533505 151.908043 
L 129.732078 152.003846 
L 130.261939 152.243772 
L 130.990738 152.683015 
L 131.062384 152.733245 
L 131.719846 153.20463 
L 132.018269 153.462434 
L 132.449064 153.864691 
L 132.760537 154.191701 
L 133.177953 154.690213 
L 133.361083 154.921107 
L 133.855548 155.650639 
L 133.905585 155.736153 
L 134.292299 156.38027 
L 134.629853 157.109894 
L 134.629907 157.110032 
L 134.945803 157.839512 
L 135.179269 158.56895 
L 135.343853 159.294343 
L 135.344863 159.298108 
L 135.481637 160.026977 
L 135.550497 160.755346 
L 135.554446 161.4831 
L 135.492653 162.210119 
L 135.360453 162.936279 
L 135.304024 163.139955 
L 135.181477 163.661597 
L 134.943776 164.385961 
L 134.623528 165.109228 
L 134.561438 165.22862 
L 134.282462 165.831663 
L 133.870386 166.553067 
L 133.834078 166.611872 
L 133.465737 167.273781 
L 133.115476 167.82268 
L 133.016392 167.993644 
L 132.573933 168.712856 
L 132.404931 168.970163 
L 132.125369 169.431392 
L 131.702933 170.061266 
L 131.647038 170.149266 
L 131.168736 170.866567 
L 131.009833 171.086396 
L 130.653375 171.583377 
L 130.325339 171.999425 
L 130.080383 172.299925 
L 129.648437 172.792055 
L 129.435803 173.016582 
L 128.978014 173.477984 
L 128.691989 173.734 
L 128.312968 174.068839 
L 127.802125 174.453396 
L 127.652057 174.568815 
L 126.995121 175.012784 
L 126.705048 175.176976 
L 126.341214 175.398988 
L 125.689695 175.734028 
L 125.280663 175.909422 
L 125.040146 176.02625 
L 124.393333 176.299984 
L 123.746671 176.522175 
L 123.246497 176.663023 
L 123.100658 176.712153 
L 122.456405 176.89059 
L 121.810519 177.02161 
L 121.16209 177.10513 
L 120.509916 177.138038 
L 119.852368 177.113692 
L 119.187195 177.020823 
L 118.51122 176.84162 
L 118.448688 176.81799 
L 117.826995 176.606667 
L 117.125471 176.249229 
L 116.98578 176.160081 
L 116.408419 175.791707 
L 116.019664 175.480383 
L 115.668645 175.182843 
L 115.264535 174.789471 
L 114.902648 174.397308 
L 114.637379 174.090669 
L 114.111296 173.385142 
L 114.103251 173.373344 
L 113.621217 172.675863 
L 113.264641 172.042814 
L 113.215474 171.960805 
L 112.822004 171.243237 
L 112.496356 170.520936 
L 112.369092 170.197582 
L 112.19077 169.796058 
L 111.910876 169.068493 
L 111.676438 168.337652 
L 111.480473 167.604018 
L 111.357693 167.05229 
L 111.310079 166.868241 
z
" clip-path="url(#pa870de4f17)" style="fill: none; stroke: #de8f05; stroke-width: 0.75"/>
   </g>
   <g id="PathCollection_8">
    <path d="M 153.90342 92.262401 
L 154.129342 92.733173 
L 155.334663 94.28838 
L 157.180424 95.682621 
L 159.231809 97.211558 
L 161.356611 99.152773 
L 162.589451 100.606191 
L 163.64231 102.174926 
L 164.414138 103.812848 
L 164.664478 104.767652 
L 164.738123 105.786272 
L 164.575 107.147531 
L 164.324668 108.769221 
L 164.047454 113.639604 
L 163.598293 114.604655 
L 163.266583 114.938027 
L 162.412586 115.310141 
L 161.36911 115.36761 
L 159.596846 115.077609 
L 155.990207 114.292676 
L 154.097274 113.658059 
L 148.878516 111.360311 
L 147.381687 111.144972 
L 145.327142 110.848417 
L 144.218837 110.437283 
L 141.920334 109.167466 
L 138.735979 107.335842 
L 138.100844 106.621211 
L 137.518257 105.392608 
L 137.331706 104.145584 
L 137.450602 102.821561 
L 137.723764 100.712868 
L 137.620429 99.031224 
L 137.104961 96.080975 
L 136.521416 93.99962 
L 135.974675 92.712502 
L 135.227385 91.080901 
L 135.322301 90.87842 
L 136.174286 90.480642 
L 137.93466 91.001504 
L 140.180654 91.672989 
L 140.843053 91.722234 
L 141.241937 91.571449 
L 141.857724 90.970633 
L 142.844834 91.004384 
L 146.820545 91.524338 
L 146.868525 91.403356 
L 146.491278 91.144051 
L 143.988059 89.861778 
L 144.153338 89.691741 
L 144.450321 89.546184 
L 144.450321 89.546184 
" clip-path="url(#pa870de4f17)" style="fill: none; stroke-dasharray: 2.775,1.2; stroke-dashoffset: 0; stroke: #de8f05; stroke-width: 0.75"/>
   </g>
   <g id="PathCollection_9">
    <path d="M 75.878776 119.129412 
L 76.227916 119.401725 
L 76.316411 119.48839 
L 76.560847 119.707241 
L 76.871734 120.057049 
L 77.147078 120.476143 
L 77.371111 120.995764 
L 77.433806 121.225312 
L 77.541721 121.626626 
L 77.619995 122.400208 
L 77.622477 122.445325 
L 77.588492 123.450153 
L 77.57923 123.538559 
L 77.455195 124.443071 
L 77.294172 125.191253 
L 77.24992 125.398846 
L 77.010572 126.33633 
L 76.732466 127.256425 
L 76.427586 128.165453 
L 76.103835 129.067508 
L 75.766021 129.965182 
L 75.416533 130.860035 
L 75.055784 131.752909 
L 74.68247 132.644132 
L 74.293697 133.533655 
L 73.885043 134.421158 
L 73.450609 135.306136 
L 73.385473 135.432847 
L 73.018737 136.195974 
L 72.561383 137.084848 
L 72.227473 137.693873 
L 72.079027 137.973883 
L 71.583347 138.866366 
L 71.282673 139.377222 
L 71.053256 139.7591 
L 70.482432 140.652312 
L 70.461943 140.684017 
L 69.851524 141.544337 
L 69.721654 141.72034 
L 69.100073 142.42778 
L 69.048635 142.485611 
L 68.421252 143.05136 
L 68.04482 143.278679 
L 67.834889 143.413816 
L 67.277196 143.629912 
L 66.748126 143.69085 
" clip-path="url(#pa870de4f17)" style="fill: none; stroke-dasharray: 4.8,1.2,0.75,1.2; stroke-dashoffset: 0; stroke: #de8f05; stroke-width: 0.75"/>
    <path d="M 181.464122 195.939452 
L 181.18979 195.648 
L 180.943431 195.317495 
L 180.726778 194.944063 
L 180.5438 194.52054 
L 180.401269 194.035349 
L 180.377049 193.900167 
L 180.247886 193.552482 
L 180.12454 193.016828 
L 180.075625 192.558434 
L 180.039985 192.412532 
L 179.951144 191.795655 
L 179.930083 191.369635 
L 179.890821 191.117218 
L 179.834612 190.408782 
L 179.8291 190.24501 
L 179.764236 189.696299 
L 179.733181 189.154815 
L 179.705933 188.937404 
L 179.64685 188.149112 
L 179.643983 188.094457 
L 179.577341 187.345362 
L 179.563512 187.06039 
L 179.52723 186.471345 
L 179.514324 186.057252 
L 179.501449 185.509797 
L 179.498462 185.08127 
L 179.51052 184.428903 
L 179.516257 184.128763 
L 179.56776 183.196577 
L 179.568915 183.181173 
L 179.620304 182.272433 
L 179.675765 181.739874 
L 179.703697 181.363789 
L 179.797243 180.46316 
L 179.860602 179.994494 
L 179.900775 179.569553 
L 180.006031 178.680135 
L 180.13128 177.844657 
L 180.135902 177.799685 
L 180.23534 176.914992 
L 180.357529 176.037778 
L 180.497127 175.165984 
L 180.513725 175.070014 
L 180.613054 174.291108 
L 180.744116 173.420535 
L 180.892914 172.554066 
L 181.057885 171.690782 
L 181.238217 170.829974 
L 181.433834 169.971097 
L 181.645491 169.113745 
L 181.875002 168.257645 
L 182.125627 167.402659 
L 182.402663 166.548797 
L 182.714302 165.696232 
L 182.900249 165.244071 
L 183.046221 164.842664 
L 183.397215 163.987411 
L 183.814645 163.133976 
L 183.815293 163.132756 
L 184.239447 162.276137 
L 184.591164 161.68143 
L 184.743512 161.418682 
L 185.299579 160.588695 
L 185.320124 160.559247 
L 185.969361 159.715372 
L 185.985228 159.696871 
L 186.613691 158.994624 
L 186.788459 158.831689 
L 187.238655 158.404402 
L 187.837993 157.964677 
L 187.846662 157.957776 
L 188.446601 157.544223 
L 189.034755 157.247642 
L 189.425037 157.099719 
L 189.615297 157.011231 
L 190.190257 156.802349 
L 190.758483 156.653024 
L 191.320969 156.54742 
L 191.878359 156.47337 
L 192.431085 156.421515 
L 192.979441 156.384538 
L 193.523624 156.35704 
L 194.063738 156.335598 
L 194.599829 156.318331 
L 194.60281 156.31826 
L 195.132239 156.295262 
L 195.660442 156.279492 
L 196.184322 156.273352 
L 196.703764 156.279159 
" clip-path="url(#pa870de4f17)" style="fill: none; stroke-dasharray: 4.8,1.2,0.75,1.2; stroke-dashoffset: 0; stroke: #de8f05; stroke-width: 0.75"/>
   </g>
   <g id="line2d_1">
    <defs>
     <path id="mca0d749bde" d="M 0 7.5 
C 1.989023 7.5 3.896849 6.709753 5.303301 5.303301 
C 6.709753 3.896849 7.5 1.989023 7.5 0 
C 7.5 -1.989023 6.709753 -3.896849 5.303301 -5.303301 
C 3.896849 -6.709753 1.989023 -7.5 0 -7.5 
C -1.989023 -7.5 -3.896849 -6.709753 -5.303301 -5.303301 
C -6.709753 -3.896849 -7.5 -1.989023 -7.5 0 
C -7.5 1.989023 -6.709753 3.896849 -5.303301 5.303301 
C -3.896849 6.709753 -1.989023 7.5 0 7.5 
z
" style="stroke: #0173b2; stroke-width: 2"/>
    </defs>
    <g clip-path="url(#pa870de4f17)">
     <use xlink:href="#mca0d749bde" x="120.577994" y="168.426881" style="fill-opacity: 0; stroke: #0173b2; stroke-width: 2"/>
    </g>
   </g>
   <g id="line2d_2">
    <defs>
     <path id="m1a46a508ca" d="M -7.5 7.5 
L 7.5 7.5 
L 7.5 -7.5 
L -7.5 -7.5 
z
" style="stroke: #0173b2; stroke-width: 2; stroke-linejoin: miter"/>
    </defs>
    <g clip-path="url(#pa870de4f17)">
     <use xlink:href="#m1a46a508ca" x="151.649401" y="106.027312" style="fill-opacity: 0; stroke: #0173b2; stroke-width: 2; stroke-linejoin: miter"/>
    </g>
   </g>
   <g id="line2d_3">
    <defs>
     <path id="m99bdfba085" d="M -0 7.5 
L 7.5 -7.5 
L -7.5 -7.5 
z
" style="stroke: #0173b2; stroke-width: 2; stroke-linejoin: miter"/>
    </defs>
    <g clip-path="url(#pa870de4f17)">
     <use xlink:href="#m99bdfba085" x="188.384197" y="180.324468" style="fill-opacity: 0; stroke: #0173b2; stroke-width: 2; stroke-linejoin: miter"/>
    </g>
   </g>
   <g id="line2d_4">
    <defs>
     <path id="m05e92179a8" d="M 0 7.5 
C 1.989023 7.5 3.896849 6.709753 5.303301 5.303301 
C 6.709753 3.896849 7.5 1.989023 7.5 0 
C 7.5 -1.989023 6.709753 -3.896849 5.303301 -5.303301 
C 3.896849 -6.709753 1.989023 -7.5 0 -7.5 
C -1.989023 -7.5 -3.896849 -6.709753 -5.303301 -5.303301 
C -6.709753 -3.896849 -7.5 -1.989023 -7.5 0 
C -7.5 1.989023 -6.709753 3.896849 -5.303301 5.303301 
C -3.896849 6.709753 -1.989023 7.5 0 7.5 
z
" style="stroke: #029e73; stroke-width: 2"/>
    </defs>
    <g clip-path="url(#pa870de4f17)">
     <use xlink:href="#m05e92179a8" x="121.114943" y="165.878822" style="fill-opacity: 0; stroke: #029e73; stroke-width: 2"/>
    </g>
   </g>
   <g id="line2d_5">
    <defs>
     <path id="m261dccb405" d="M -7.5 7.5 
L 7.5 7.5 
L 7.5 -7.5 
L -7.5 -7.5 
z
" style="stroke: #029e73; stroke-width: 2; stroke-linejoin: miter"/>
    </defs>
    <g clip-path="url(#pa870de4f17)">
     <use xlink:href="#m261dccb405" x="155.85525" y="105.893633" style="fill-opacity: 0; stroke: #029e73; stroke-width: 2; stroke-linejoin: miter"/>
    </g>
   </g>
   <g id="line2d_6">
    <defs>
     <path id="m406b1a125d" d="M -0 7.5 
L 7.5 -7.5 
L -7.5 -7.5 
z
" style="stroke: #029e73; stroke-width: 2; stroke-linejoin: miter"/>
    </defs>
    <g clip-path="url(#pa870de4f17)">
     <use xlink:href="#m406b1a125d" x="186.897236" y="184.014835" style="fill-opacity: 0; stroke: #029e73; stroke-width: 2; stroke-linejoin: miter"/>
    </g>
   </g>
   <g id="line2d_7">
    <defs>
     <path id="m5db8232eeb" d="M 0 7.5 
C 1.989023 7.5 3.896849 6.709753 5.303301 5.303301 
C 6.709753 3.896849 7.5 1.989023 7.5 0 
C 7.5 -1.989023 6.709753 -3.896849 5.303301 -5.303301 
C 3.896849 -6.709753 1.989023 -7.5 0 -7.5 
C -1.989023 -7.5 -3.896849 -6.709753 -5.303301 -5.303301 
C -6.709753 -3.896849 -7.5 -1.989023 -7.5 0 
C -7.5 1.989023 -6.709753 3.896849 -5.303301 5.303301 
C -3.896849 6.709753 -1.989023 7.5 0 7.5 
z
" style="stroke: #de8f05; stroke-width: 2"/>
    </defs>
    <g clip-path="url(#pa870de4f17)">
     <use xlink:href="#m5db8232eeb" x="120.645641" y="164.785226" style="fill-opacity: 0; stroke: #de8f05; stroke-width: 2"/>
    </g>
   </g>
   <g id="line2d_8">
    <defs>
     <path id="ma897c5ac5f" d="M -7.5 7.5 
L 7.5 7.5 
L 7.5 -7.5 
L -7.5 -7.5 
z
" style="stroke: #de8f05; stroke-width: 2; stroke-linejoin: miter"/>
    </defs>
    <g clip-path="url(#pa870de4f17)">
     <use xlink:href="#ma897c5ac5f" x="154.947093" y="104.659991" style="fill-opacity: 0; stroke: #de8f05; stroke-width: 2; stroke-linejoin: miter"/>
    </g>
   </g>
   <g id="line2d_9">
    <defs>
     <path id="m87a801f08a" d="M -0 7.5 
L 7.5 -7.5 
L -7.5 -7.5 
z
" style="stroke: #de8f05; stroke-width: 2; stroke-linejoin: miter"/>
    </defs>
    <g clip-path="url(#pa870de4f17)">
     <use xlink:href="#m87a801f08a" x="186.624882" y="182.595533" style="fill-opacity: 0; stroke: #de8f05; stroke-width: 2; stroke-linejoin: miter"/>
    </g>
   </g>
   <g id="patch_3">
    <path d="M 131.355263 219.479683 
C 148.766545 219.479683 165.467049 212.562107 177.778684 200.250472 
C 190.090319 187.938837 197.007895 171.238332 197.007895 153.827051 
C 197.007895 136.41577 190.090319 119.715265 177.778684 107.40363 
C 165.467049 95.091995 148.766545 88.174419 131.355263 88.174419 
C 113.943982 88.174419 97.243477 95.091995 84.931842 107.40363 
C 72.620207 119.715265 65.702632 136.41577 65.702632 153.827051 
C 65.702632 171.238332 72.620207 187.938837 84.931842 200.250472 
C 97.243477 212.562107 113.943982 219.479683 131.355263 219.479683 
L 131.355263 219.479683 
z
" style="fill: none; stroke: #262626; stroke-width: 1.25; stroke-linejoin: miter; stroke-linecap: square"/>
   </g>
   <g id="text_9">
    <text style="fill: #262626; font: 20px 'Arial', 'DejaVu Sans', 'Liberation Sans', 'Bitstream Vera Sans', sans-serif; text-anchor: start" x="32.876316" y="77.110242" transform="rotate(-0 32.876316 77.110242)">(a)</text>
   </g>
   <g id="legend_1">
    <g id="patch_4">
     <path d="M 10.06 383.216018 
L 542.878 383.216018 
Q 545.738 383.216018 545.738 380.356018 
L 545.738 268.881262 
Q 545.738 266.021262 542.878 266.021262 
L 10.06 266.021262 
Q 7.2 266.021262 7.2 268.881262 
L 7.2 380.356018 
Q 7.2 383.216018 10.06 383.216018 
z
" style="fill: #ffffff; opacity: 0.8; stroke: #cccccc; stroke-linejoin: miter"/>
    </g>
    <g id="line2d_10">
     <g>
      <use xlink:href="#mca0d749bde" x="27.22" y="287.411604" style="fill-opacity: 0; stroke: #0173b2; stroke-width: 2"/>
     </g>
    </g>
    <g id="text_10">
     <text style="fill: #262626; font: 14.3px 'Arial', 'DejaVu Sans', 'Liberation Sans', 'Bitstream Vera Sans', sans-serif" transform="translate(52.96 282.607027)">Linear:</text>
     <!-- $\sigma_{1}$: 216.4°|67.5°, $\sigma_{2}$: 23.0°|22.0°, $\sigma_{3}$: 114.9°|4.7°,  R=0.44, $\beta$=39.2° -->
     <g style="fill: #262626" transform="translate(52.96 298.79418)">
      <text>
       <tspan style="font: oblique 14.3px 'DejaVu Sans'" x="0 126.145087 243.194073 426.497607" y="-0.046875">σσσβ</tspan>
       <tspan style="font: 10.01px 'DejaVu Sans'" x="9.061203 135.20629 252.255276" y="2.296875">123</tspan>
       <tspan style="font: 14.3px 'DejaVu Sans'" x="15.819098 20.635916 25.180472 34.276572 43.372672 52.468771 57.013327 66.109427 73.257864 78.074683 87.170782 96.266882 100.811438 109.907538 117.055975 121.600531 141.964185 146.781003 151.325558 160.421658 169.517758 174.062314 183.158414 190.306851 195.123669 204.219769 213.315869 217.860425 226.956525 234.104962 238.649518 259.013171 263.82999 268.374545 277.470645 286.566745 295.662845 300.207401 309.3035 316.451938 321.268756 330.364856 333.784412 342.880511 350.028949 354.573505 359.11806 363.662616 373.596423 385.575641 394.671741 399.216296 408.312396 417.408496 421.953052 435.621631 447.600848 456.696948 465.793048 469.587604 478.683704" y="-0.046875">: 216.4°|67.5°, : 23.0°|22.0°, : 114.9°|4.7°,  R=0.44, =39.2°</tspan>
      </text>
     </g>
    </g>
    <g id="line2d_11">
     <g>
      <use xlink:href="#m05e92179a8" x="27.22" y="325.046522" style="fill-opacity: 0; stroke: #029e73; stroke-width: 2"/>
     </g>
    </g>
    <g id="text_11">
     <text style="fill: #262626; font: 14.3px 'Arial', 'DejaVu Sans', 'Liberation Sans', 'Bitstream Vera Sans', sans-serif" transform="translate(52.96 320.241946)">Iterative constant shear:</text>
     <!-- $\sigma_{1}$: 220.4°|70.4°, $\sigma_{2}$: 27.1°|19.1°, $\sigma_{3}$: 118.5°|4.2°,  R=0.63, $\beta$=36.3° -->
     <g style="fill: #262626" transform="translate(52.96 336.429099)">
      <text>
       <tspan style="font: oblique 14.3px 'DejaVu Sans'" x="0 126.145087 243.194073 426.872607" y="-0.046875">σσσβ</tspan>
       <tspan style="font: 10.01px 'DejaVu Sans'" x="9.061203 135.20629 252.255276" y="2.296875">123</tspan>
       <tspan style="font: 14.3px 'DejaVu Sans'" x="15.819098 20.635916 25.180472 34.276572 43.372672 52.468771 57.013327 66.109427 73.257864 78.074683 87.170782 96.266882 100.811438 109.907538 117.055975 121.600531 141.964185 146.781003 151.325558 160.421658 169.517758 174.062314 183.158414 190.306851 195.123669 204.219769 213.315869 217.860425 226.956525 234.104962 238.649518 259.013171 263.82999 268.374545 277.470645 286.566745 295.662845 300.207401 309.3035 316.451938 321.268756 330.364856 334.159412 343.255511 350.403949 354.948505 359.49306 364.037616 373.971423 385.950641 395.046741 399.591296 408.687396 417.783496 422.328052 435.996631 447.975848 457.071948 466.168048 470.712604 479.808704" y="-0.046875">: 220.4°|70.4°, : 27.1°|19.1°, : 118.5°|4.2°,  R=0.63, =36.3°</tspan>
      </text>
     </g>
    </g>
    <g id="line2d_12">
     <g>
      <use xlink:href="#m5db8232eeb" x="27.22" y="362.681441" style="fill-opacity: 0; stroke: #de8f05; stroke-width: 2"/>
     </g>
    </g>
    <g id="text_12">
     <text style="fill: #262626; font: 14.3px 'Arial', 'DejaVu Sans', 'Liberation Sans', 'Bitstream Vera Sans', sans-serif" transform="translate(52.96 357.876865)">Iterative variable shear:</text>
     <!-- $\sigma_{1}$: 224.3°|71.0°, $\sigma_{2}$: 25.6°|18.1°, $\sigma_{3}$: 117.5°|5.7°,  R=0.75, $\beta$=34.9° -->
     <g style="fill: #262626" transform="translate(52.96 374.064018)">
      <text>
       <tspan style="font: oblique 14.3px 'DejaVu Sans'" x="0 126.145087 243.194073 425.372607" y="-0.046875">σσσβ</tspan>
       <tspan style="font: 10.01px 'DejaVu Sans'" x="9.061203 135.20629 252.255276" y="2.296875">123</tspan>
       <tspan style="font: 14.3px 'DejaVu Sans'" x="15.819098 20.635916 25.180472 34.276572 43.372672 52.468771 57.013327 66.109427 73.257864 78.074683 87.170782 96.266882 100.811438 109.907538 117.055975 121.600531 141.964185 146.781003 151.325558 160.421658 169.517758 174.062314 183.158414 190.306851 195.123669 204.219769 213.315869 217.860425 226.956525 234.104962 238.649518 259.013171 263.82999 268.374545 277.470645 286.566745 295.662845 300.207401 309.3035 316.451938 321.268756 330.364856 333.784412 342.880511 350.028949 354.573505 359.11806 363.662616 373.596423 385.575641 394.671741 398.091296 407.187396 416.283496 420.828052 434.496631 446.475848 455.571948 464.668048 469.212604 478.308704" y="-0.046875">: 224.3°|71.0°, : 25.6°|18.1°, : 117.5°|5.7°,  R=0.75, =34.9°</tspan>
      </text>
     </g>
    </g>
   </g>
  </g>
  <g id="axes_3">
   <g id="patch_5">
    <path d="M 337.537081 219.479683 
L 509.355263 219.479683 
L 509.355263 88.174419 
L 337.537081 88.174419 
z
" style="fill: #ffffff"/>
   </g>
   <g id="matplotlib.axis_5">
    <g id="xtick_21">
     <g id="line2d_13">
      <defs>
       <path id="m6efd5bccbb" d="M 0 0 
L 0 6 
" style="stroke: #262626; stroke-width: 1.25"/>
      </defs>
      <g>
       <use xlink:href="#m6efd5bccbb" x="345.346999" y="219.479683" style="fill: #262626; stroke: #262626; stroke-width: 1.25"/>
      </g>
     </g>
     <g id="text_13">
      <text style="fill: #262626; font: 14.3px 'Arial', 'DejaVu Sans', 'Liberation Sans', 'Bitstream Vera Sans', sans-serif; text-anchor: middle" x="345.346999" y="239.845448" transform="rotate(-0 345.346999 239.845448)">0.0</text>
     </g>
    </g>
    <g id="xtick_22">
     <g id="line2d_14">
      <g>
       <use xlink:href="#m6efd5bccbb" x="423.446172" y="219.479683" style="fill: #262626; stroke: #262626; stroke-width: 1.25"/>
      </g>
     </g>
     <g id="text_14">
      <text style="fill: #262626; font: 14.3px 'Arial', 'DejaVu Sans', 'Liberation Sans', 'Bitstream Vera Sans', sans-serif; text-anchor: middle" x="423.446172" y="239.845448" transform="rotate(-0 423.446172 239.845448)">0.5</text>
     </g>
    </g>
    <g id="xtick_23">
     <g id="line2d_15">
      <g>
       <use xlink:href="#m6efd5bccbb" x="501.545346" y="219.479683" style="fill: #262626; stroke: #262626; stroke-width: 1.25"/>
      </g>
     </g>
     <g id="text_15">
      <text style="fill: #262626; font: 14.3px 'Arial', 'DejaVu Sans', 'Liberation Sans', 'Bitstream Vera Sans', sans-serif; text-anchor: middle" x="501.545346" y="239.845448" transform="rotate(-0 501.545346 239.845448)">1.0</text>
     </g>
    </g>
    <g id="text_16">
     <text style="fill: #262626; font: 15.6px 'Arial', 'DejaVu Sans', 'Liberation Sans', 'Bitstream Vera Sans', sans-serif; text-anchor: middle" x="423.446172" y="258.672964" transform="rotate(-0 423.446172 258.672964)">Shape Ratio</text>
    </g>
   </g>
   <g id="matplotlib.axis_6">
    <g id="ytick_12">
     <g id="line2d_16">
      <defs>
       <path id="m516b9aee3e" d="M 0 0 
L -6 0 
" style="stroke: #262626; stroke-width: 1.25"/>
      </defs>
      <g>
       <use xlink:href="#m516b9aee3e" x="337.537081" y="219.479683" style="fill: #262626; stroke: #262626; stroke-width: 1.25"/>
      </g>
     </g>
     <g id="text_17">
      <text style="fill: #262626; font: 14.3px 'Arial', 'DejaVu Sans', 'Liberation Sans', 'Bitstream Vera Sans', sans-serif; text-anchor: end" x="328.037081" y="224.912565" transform="rotate(-0 328.037081 224.912565)">0</text>
     </g>
    </g>
    <g id="ytick_13">
     <g id="line2d_17">
      <g>
       <use xlink:href="#m516b9aee3e" x="337.537081" y="172.818253" style="fill: #262626; stroke: #262626; stroke-width: 1.25"/>
      </g>
     </g>
     <g id="text_18">
      <text style="fill: #262626; font: 14.3px 'Arial', 'DejaVu Sans', 'Liberation Sans', 'Bitstream Vera Sans', sans-serif; text-anchor: end" x="328.037081" y="178.251136" transform="rotate(-0 328.037081 178.251136)">200</text>
     </g>
    </g>
    <g id="ytick_14">
     <g id="line2d_18">
      <g>
       <use xlink:href="#m516b9aee3e" x="337.537081" y="126.156823" style="fill: #262626; stroke: #262626; stroke-width: 1.25"/>
      </g>
     </g>
     <g id="text_19">
      <text style="fill: #262626; font: 14.3px 'Arial', 'DejaVu Sans', 'Liberation Sans', 'Bitstream Vera Sans', sans-serif; text-anchor: end" x="328.037081" y="131.589706" transform="rotate(-0 328.037081 131.589706)">400</text>
     </g>
    </g>
    <g id="text_20">
     <text style="fill: #262626; font: 15.6px 'Arial', 'DejaVu Sans', 'Liberation Sans', 'Bitstream Vera Sans', sans-serif; text-anchor: middle" x="293.497644" y="153.827051" transform="rotate(-90 293.497644 153.827051)">Count</text>
    </g>
   </g>
   <g id="patch_6">
    <path d="M 345.346999 219.479683 
L 345.346999 219.479683 
L 353.156916 219.479683 
L 353.156916 219.479683 
L 360.966834 219.479683 
L 360.966834 219.246375 
L 368.776752 219.246375 
L 368.776752 219.013068 
L 376.586669 219.013068 
L 376.586669 217.146611 
L 384.396585 217.146611 
L 384.396585 206.414482 
L 392.206505 206.414482 
L 392.206505 183.317075 
L 400.016419 183.317075 
L 400.016419 126.39013 
L 407.826338 126.39013 
L 407.826338 94.427051 
L 415.636253 94.427051 
L 415.636253 104.225951 
L 423.446172 104.225951 
L 423.446172 158.586517 
L 431.256091 158.586517 
L 431.256091 203.148182 
L 439.066011 203.148182 
L 439.066011 216.44669 
L 446.875921 216.44669 
L 446.875921 218.779761 
L 454.68584 218.779761 
L 454.68584 219.479683 
L 462.495759 219.479683 
L 462.495759 219.479683 
L 470.305678 219.479683 
L 470.305678 219.479683 
L 478.115597 219.479683 
L 478.115597 219.479683 
L 485.925507 219.479683 
L 485.925507 219.479683 
L 493.735427 219.479683 
L 493.735427 219.479683 
L 501.545346 219.479683 
L 501.545346 219.479683 
" clip-path="url(#pab4307b3b6)" style="fill: none; stroke: #0173b2; stroke-width: 2.5; stroke-linejoin: miter"/>
   </g>
   <g id="patch_7">
    <path d="M 345.346999 219.479683 
L 345.346999 219.479683 
L 353.156916 219.479683 
L 353.156916 219.479683 
L 360.966834 219.479683 
L 360.966834 219.479683 
L 368.776752 219.479683 
L 368.776752 219.479683 
L 376.586669 219.479683 
L 376.586669 219.479683 
L 384.396585 219.479683 
L 384.396585 219.479683 
L 392.206505 219.479683 
L 392.206505 212.013854 
L 400.016419 212.013854 
L 400.016419 219.479683 
L 407.826338 219.479683 
L 407.826338 209.447475 
L 415.636253 209.447475 
L 415.636253 171.885024 
L 423.446172 171.885024 
L 423.446172 156.72006 
L 431.256091 156.72006 
L 431.256091 131.522888 
L 439.066011 131.522888 
L 439.066011 126.623437 
L 446.875921 126.623437 
L 446.875921 131.522888 
L 454.68584 131.522888 
L 454.68584 165.819038 
L 462.495759 165.819038 
L 462.495759 206.881097 
L 470.305678 206.881097 
L 470.305678 215.746768 
L 478.115597 215.746768 
L 478.115597 219.479683 
L 485.925507 219.479683 
L 485.925507 219.479683 
L 493.735427 219.479683 
L 493.735427 219.479683 
L 501.545346 219.479683 
L 501.545346 219.479683 
" clip-path="url(#pab4307b3b6)" style="fill: none; stroke: #029e73; stroke-width: 2.5; stroke-linejoin: miter"/>
   </g>
   <g id="patch_8">
    <path d="M 345.346999 219.479683 
L 345.346999 219.479683 
L 353.156916 219.479683 
L 353.156916 219.479683 
L 360.966834 219.479683 
L 360.966834 219.479683 
L 368.776752 219.479683 
L 368.776752 219.479683 
L 376.586669 219.479683 
L 376.586669 219.479683 
L 384.396585 219.479683 
L 384.396585 219.479683 
L 392.206505 219.479683 
L 392.206505 219.479683 
L 400.016419 219.479683 
L 400.016419 215.980075 
L 407.826338 215.980075 
L 407.826338 212.013854 
L 415.636253 212.013854 
L 415.636253 204.548025 
L 423.446172 204.548025 
L 423.446172 177.017782 
L 431.256091 177.017782 
L 431.256091 156.020138 
L 439.066011 156.020138 
L 439.066011 131.756195 
L 446.875921 131.756195 
L 446.875921 120.324144 
L 454.68584 120.324144 
L 454.68584 156.72006 
L 462.495759 156.72006 
L 462.495759 166.51896 
L 470.305678 166.51896 
L 470.305678 198.015425 
L 478.115597 198.015425 
L 478.115597 216.213382 
L 485.925507 216.213382 
L 485.925507 215.746768 
L 493.735427 215.746768 
L 493.735427 215.746768 
L 501.545346 215.746768 
L 501.545346 219.479683 
" clip-path="url(#pab4307b3b6)" style="fill: none; stroke: #de8f05; stroke-width: 2.5; stroke-linejoin: miter"/>
   </g>
   <g id="patch_9">
    <path d="M 337.537081 219.479683 
L 337.537081 88.174419 
" style="fill: none; stroke: #262626; stroke-width: 1.25; stroke-linejoin: miter; stroke-linecap: square"/>
   </g>
   <g id="patch_10">
    <path d="M 509.355263 219.479683 
L 509.355263 88.174419 
" style="fill: none; stroke: #262626; stroke-width: 1.25; stroke-linejoin: miter; stroke-linecap: square"/>
   </g>
   <g id="patch_11">
    <path d="M 337.537081 219.479683 
L 509.355263 219.479683 
" style="fill: none; stroke: #262626; stroke-width: 1.25; stroke-linejoin: miter; stroke-linecap: square"/>
   </g>
   <g id="patch_12">
    <path d="M 337.537081 88.174419 
L 509.355263 88.174419 
" style="fill: none; stroke: #262626; stroke-width: 1.25; stroke-linejoin: miter; stroke-linecap: square"/>
   </g>
   <g id="text_21">
    <text style="fill: #262626; font: 20px 'Arial', 'DejaVu Sans', 'Liberation Sans', 'Bitstream Vera Sans', sans-serif; text-anchor: start" x="294.582536" y="77.110242" transform="rotate(-0 294.582536 77.110242)">(b)</text>
   </g>
  </g>
  <g id="axes_4">
   <g id="patch_13">
    <path d="M 629.62799 219.479683 
L 801.446172 219.479683 
L 801.446172 88.174419 
L 629.62799 88.174419 
z
" style="fill: #ffffff"/>
   </g>
   <g id="matplotlib.axis_7">
    <g id="xtick_24">
     <g id="line2d_19">
      <g>
       <use xlink:href="#m6efd5bccbb" x="637.437908" y="219.479683" style="fill: #262626; stroke: #262626; stroke-width: 1.25"/>
      </g>
     </g>
     <g id="text_22">
      <text style="fill: #262626; font: 14.3px 'Arial', 'DejaVu Sans', 'Liberation Sans', 'Bitstream Vera Sans', sans-serif; text-anchor: middle" x="637.437908" y="239.845448" transform="rotate(-0 637.437908 239.845448)">0.0</text>
     </g>
    </g>
    <g id="xtick_25">
     <g id="line2d_20">
      <g>
       <use xlink:href="#m6efd5bccbb" x="715.537081" y="219.479683" style="fill: #262626; stroke: #262626; stroke-width: 1.25"/>
      </g>
     </g>
     <g id="text_23">
      <text style="fill: #262626; font: 14.3px 'Arial', 'DejaVu Sans', 'Liberation Sans', 'Bitstream Vera Sans', sans-serif; text-anchor: middle" x="715.537081" y="239.845448" transform="rotate(-0 715.537081 239.845448)">0.5</text>
     </g>
    </g>
    <g id="xtick_26">
     <g id="line2d_21">
      <g>
       <use xlink:href="#m6efd5bccbb" x="793.636255" y="219.479683" style="fill: #262626; stroke: #262626; stroke-width: 1.25"/>
      </g>
     </g>
     <g id="text_24">
      <text style="fill: #262626; font: 14.3px 'Arial', 'DejaVu Sans', 'Liberation Sans', 'Bitstream Vera Sans', sans-serif; text-anchor: middle" x="793.636255" y="239.845448" transform="rotate(-0 793.636255 239.845448)">1.0</text>
     </g>
    </g>
    <g id="text_25">
     <!-- Shear stress $\vert \tau \vert$ -->
     <g style="fill: #262626" transform="translate(654.619081 258.831401)">
      <text>
       <tspan style="font: 15.6px 'DejaVu Sans'" x="0 9.898376 19.781525 29.375336 38.931076 45.342178 50.298981 58.423264 64.537415 70.948517 80.542328 88.666611 96.790894 101.747696 116.389679" y="-0.078125">Shear stress ||</tspan>
       <tspan style="font: oblique 15.6px 'DejaVu Sans'" x="107.00145" y="-0.078125">τ</tspan>
      </text>
     </g>
    </g>
   </g>
   <g id="matplotlib.axis_8">
    <g id="ytick_15">
     <g id="line2d_22">
      <g>
       <use xlink:href="#m516b9aee3e" x="629.62799" y="219.479683" style="fill: #262626; stroke: #262626; stroke-width: 1.25"/>
      </g>
     </g>
     <g id="text_26">
      <text style="fill: #262626; font: 14.3px 'Arial', 'DejaVu Sans', 'Liberation Sans', 'Bitstream Vera Sans', sans-serif; text-anchor: end" x="620.12799" y="224.912565" transform="rotate(-0 620.12799 224.912565)">0</text>
     </g>
    </g>
    <g id="ytick_16">
     <g id="line2d_23">
      <g>
       <use xlink:href="#m516b9aee3e" x="629.62799" y="169.45863" style="fill: #262626; stroke: #262626; stroke-width: 1.25"/>
      </g>
     </g>
     <g id="text_27">
      <text style="fill: #262626; font: 14.3px 'Arial', 'DejaVu Sans', 'Liberation Sans', 'Bitstream Vera Sans', sans-serif; text-anchor: end" x="620.12799" y="174.891513" transform="rotate(-0 620.12799 174.891513)">10</text>
     </g>
    </g>
    <g id="ytick_17">
     <g id="line2d_24">
      <g>
       <use xlink:href="#m516b9aee3e" x="629.62799" y="119.437577" style="fill: #262626; stroke: #262626; stroke-width: 1.25"/>
      </g>
     </g>
     <g id="text_28">
      <text style="fill: #262626; font: 14.3px 'Arial', 'DejaVu Sans', 'Liberation Sans', 'Bitstream Vera Sans', sans-serif; text-anchor: end" x="620.12799" y="124.87046" transform="rotate(-0 620.12799 124.87046)">20</text>
     </g>
    </g>
    <g id="text_29">
     <text style="fill: #262626; font: 15.6px 'Arial', 'DejaVu Sans', 'Liberation Sans', 'Bitstream Vera Sans', sans-serif; text-anchor: middle" x="594.686928" y="153.827051" transform="rotate(-90 594.686928 153.827051)">Count</text>
    </g>
   </g>
   <g id="patch_14">
    <path d="M 637.437908 219.479683 
L 645.247825 219.479683 
L 645.247825 219.479683 
L 637.437908 219.479683 
z
" clip-path="url(#p430399284e)" style="fill: #0173b2; opacity: 0.5; stroke: #ffffff; stroke-linejoin: miter"/>
   </g>
   <g id="patch_15">
    <path d="M 645.247825 219.479683 
L 653.057743 219.479683 
L 653.057743 219.479683 
L 645.247825 219.479683 
z
" clip-path="url(#p430399284e)" style="fill: #0173b2; opacity: 0.5; stroke: #ffffff; stroke-linejoin: miter"/>
   </g>
   <g id="patch_16">
    <path d="M 653.057743 219.479683 
L 660.867661 219.479683 
L 660.867661 214.477577 
L 653.057743 214.477577 
z
" clip-path="url(#p430399284e)" style="fill: #0173b2; opacity: 0.5; stroke: #ffffff; stroke-linejoin: miter"/>
   </g>
   <g id="patch_17">
    <path d="M 660.867661 219.479683 
L 668.677578 219.479683 
L 668.677578 209.475472 
L 660.867661 209.475472 
z
" clip-path="url(#p430399284e)" style="fill: #0173b2; opacity: 0.5; stroke: #ffffff; stroke-linejoin: miter"/>
   </g>
   <g id="patch_18">
    <path d="M 668.677578 219.479683 
L 676.487495 219.479683 
L 676.487495 199.471262 
L 668.677578 199.471262 
z
" clip-path="url(#p430399284e)" style="fill: #0173b2; opacity: 0.5; stroke: #ffffff; stroke-linejoin: miter"/>
   </g>
   <g id="patch_19">
    <path d="M 676.487495 219.479683 
L 684.297414 219.479683 
L 684.297414 204.473367 
L 676.487495 204.473367 
z
" clip-path="url(#p430399284e)" style="fill: #0173b2; opacity: 0.5; stroke: #ffffff; stroke-linejoin: miter"/>
   </g>
   <g id="patch_20">
    <path d="M 684.297414 219.479683 
L 692.107328 219.479683 
L 692.107328 174.460735 
L 684.297414 174.460735 
z
" clip-path="url(#p430399284e)" style="fill: #0173b2; opacity: 0.5; stroke: #ffffff; stroke-linejoin: miter"/>
   </g>
   <g id="patch_21">
    <path d="M 692.107328 219.479683 
L 699.917248 219.479683 
L 699.917248 174.460735 
L 692.107328 174.460735 
z
" clip-path="url(#p430399284e)" style="fill: #0173b2; opacity: 0.5; stroke: #ffffff; stroke-linejoin: miter"/>
   </g>
   <g id="patch_22">
    <path d="M 699.917248 219.479683 
L 707.727162 219.479683 
L 707.727162 164.456525 
L 699.917248 164.456525 
z
" clip-path="url(#p430399284e)" style="fill: #0173b2; opacity: 0.5; stroke: #ffffff; stroke-linejoin: miter"/>
   </g>
   <g id="patch_23">
    <path d="M 707.727162 219.479683 
L 715.537081 219.479683 
L 715.537081 149.450209 
L 707.727162 149.450209 
z
" clip-path="url(#p430399284e)" style="fill: #0173b2; opacity: 0.5; stroke: #ffffff; stroke-linejoin: miter"/>
   </g>
   <g id="patch_24">
    <path d="M 715.537081 219.479683 
L 723.347001 219.479683 
L 723.347001 189.467051 
L 715.537081 189.467051 
z
" clip-path="url(#p430399284e)" style="fill: #0173b2; opacity: 0.5; stroke: #ffffff; stroke-linejoin: miter"/>
   </g>
   <g id="patch_25">
    <path d="M 723.347001 219.479683 
L 731.15692 219.479683 
L 731.15692 159.454419 
L 723.347001 159.454419 
z
" clip-path="url(#p430399284e)" style="fill: #0173b2; opacity: 0.5; stroke: #ffffff; stroke-linejoin: miter"/>
   </g>
   <g id="patch_26">
    <path d="M 731.15692 219.479683 
L 738.96683 219.479683 
L 738.96683 104.431262 
L 731.15692 104.431262 
z
" clip-path="url(#p430399284e)" style="fill: #0173b2; opacity: 0.5; stroke: #ffffff; stroke-linejoin: miter"/>
   </g>
   <g id="patch_27">
    <path d="M 738.96683 219.479683 
L 746.776749 219.479683 
L 746.776749 129.441788 
L 738.96683 129.441788 
z
" clip-path="url(#p430399284e)" style="fill: #0173b2; opacity: 0.5; stroke: #ffffff; stroke-linejoin: miter"/>
   </g>
   <g id="patch_28">
    <path d="M 746.776749 219.479683 
L 754.586668 219.479683 
L 754.586668 199.471262 
L 746.776749 199.471262 
z
" clip-path="url(#p430399284e)" style="fill: #0173b2; opacity: 0.5; stroke: #ffffff; stroke-linejoin: miter"/>
   </g>
   <g id="patch_29">
    <path d="M 754.586668 219.479683 
L 762.396587 219.479683 
L 762.396587 219.479683 
L 754.586668 219.479683 
z
" clip-path="url(#p430399284e)" style="fill: #0173b2; opacity: 0.5; stroke: #ffffff; stroke-linejoin: miter"/>
   </g>
   <g id="patch_30">
    <path d="M 762.396587 219.479683 
L 770.206507 219.479683 
L 770.206507 219.479683 
L 762.396587 219.479683 
z
" clip-path="url(#p430399284e)" style="fill: #0173b2; opacity: 0.5; stroke: #ffffff; stroke-linejoin: miter"/>
   </g>
   <g id="patch_31">
    <path d="M 770.206507 219.479683 
L 778.016416 219.479683 
L 778.016416 219.479683 
L 770.206507 219.479683 
z
" clip-path="url(#p430399284e)" style="fill: #0173b2; opacity: 0.5; stroke: #ffffff; stroke-linejoin: miter"/>
   </g>
   <g id="patch_32">
    <path d="M 778.016416 219.479683 
L 785.826336 219.479683 
L 785.826336 219.479683 
L 778.016416 219.479683 
z
" clip-path="url(#p430399284e)" style="fill: #0173b2; opacity: 0.5; stroke: #ffffff; stroke-linejoin: miter"/>
   </g>
   <g id="patch_33">
    <path d="M 785.826336 219.479683 
L 793.636255 219.479683 
L 793.636255 219.479683 
L 785.826336 219.479683 
z
" clip-path="url(#p430399284e)" style="fill: #0173b2; opacity: 0.5; stroke: #ffffff; stroke-linejoin: miter"/>
   </g>
   <g id="patch_34">
    <path d="M 637.437908 219.479683 
L 645.247825 219.479683 
L 645.247825 219.479683 
L 637.437908 219.479683 
z
" clip-path="url(#p430399284e)" style="fill: #029e73; opacity: 0.5; stroke: #ffffff; stroke-linejoin: miter"/>
   </g>
   <g id="patch_35">
    <path d="M 645.247825 219.479683 
L 653.057743 219.479683 
L 653.057743 214.477577 
L 645.247825 214.477577 
z
" clip-path="url(#p430399284e)" style="fill: #029e73; opacity: 0.5; stroke: #ffffff; stroke-linejoin: miter"/>
   </g>
   <g id="patch_36">
    <path d="M 653.057743 219.479683 
L 660.867661 219.479683 
L 660.867661 209.475472 
L 653.057743 209.475472 
z
" clip-path="url(#p430399284e)" style="fill: #029e73; opacity: 0.5; stroke: #ffffff; stroke-linejoin: miter"/>
   </g>
   <g id="patch_37">
    <path d="M 660.867661 219.479683 
L 668.677578 219.479683 
L 668.677578 199.471262 
L 660.867661 199.471262 
z
" clip-path="url(#p430399284e)" style="fill: #029e73; opacity: 0.5; stroke: #ffffff; stroke-linejoin: miter"/>
   </g>
   <g id="patch_38">
    <path d="M 668.677578 219.479683 
L 676.487495 219.479683 
L 676.487495 179.46284 
L 668.677578 179.46284 
z
" clip-path="url(#p430399284e)" style="fill: #029e73; opacity: 0.5; stroke: #ffffff; stroke-linejoin: miter"/>
   </g>
   <g id="patch_39">
    <path d="M 676.487495 219.479683 
L 684.297414 219.479683 
L 684.297414 189.467051 
L 676.487495 189.467051 
z
" clip-path="url(#p430399284e)" style="fill: #029e73; opacity: 0.5; stroke: #ffffff; stroke-linejoin: miter"/>
   </g>
   <g id="patch_40">
    <path d="M 684.297414 219.479683 
L 692.107328 219.479683 
L 692.107328 194.469156 
L 684.297414 194.469156 
z
" clip-path="url(#p430399284e)" style="fill: #029e73; opacity: 0.5; stroke: #ffffff; stroke-linejoin: miter"/>
   </g>
   <g id="patch_41">
    <path d="M 692.107328 219.479683 
L 699.917248 219.479683 
L 699.917248 184.464946 
L 692.107328 184.464946 
z
" clip-path="url(#p430399284e)" style="fill: #029e73; opacity: 0.5; stroke: #ffffff; stroke-linejoin: miter"/>
   </g>
   <g id="patch_42">
    <path d="M 699.917248 219.479683 
L 707.727162 219.479683 
L 707.727162 174.460735 
L 699.917248 174.460735 
z
" clip-path="url(#p430399284e)" style="fill: #029e73; opacity: 0.5; stroke: #ffffff; stroke-linejoin: miter"/>
   </g>
   <g id="patch_43">
    <path d="M 707.727162 219.479683 
L 715.537081 219.479683 
L 715.537081 184.464946 
L 707.727162 184.464946 
z
" clip-path="url(#p430399284e)" style="fill: #029e73; opacity: 0.5; stroke: #ffffff; stroke-linejoin: miter"/>
   </g>
   <g id="patch_44">
    <path d="M 715.537081 219.479683 
L 723.347001 219.479683 
L 723.347001 159.454419 
L 715.537081 159.454419 
z
" clip-path="url(#p430399284e)" style="fill: #029e73; opacity: 0.5; stroke: #ffffff; stroke-linejoin: miter"/>
   </g>
   <g id="patch_45">
    <path d="M 723.347001 219.479683 
L 731.15692 219.479683 
L 731.15692 129.441788 
L 723.347001 129.441788 
z
" clip-path="url(#p430399284e)" style="fill: #029e73; opacity: 0.5; stroke: #ffffff; stroke-linejoin: miter"/>
   </g>
   <g id="patch_46">
    <path d="M 731.15692 219.479683 
L 738.96683 219.479683 
L 738.96683 104.431262 
L 731.15692 104.431262 
z
" clip-path="url(#p430399284e)" style="fill: #029e73; opacity: 0.5; stroke: #ffffff; stroke-linejoin: miter"/>
   </g>
   <g id="patch_47">
    <path d="M 738.96683 219.479683 
L 746.776749 219.479683 
L 746.776749 149.450209 
L 738.96683 149.450209 
z
" clip-path="url(#p430399284e)" style="fill: #029e73; opacity: 0.5; stroke: #ffffff; stroke-linejoin: miter"/>
   </g>
   <g id="patch_48">
    <path d="M 746.776749 219.479683 
L 754.586668 219.479683 
L 754.586668 219.479683 
L 746.776749 219.479683 
z
" clip-path="url(#p430399284e)" style="fill: #029e73; opacity: 0.5; stroke: #ffffff; stroke-linejoin: miter"/>
   </g>
   <g id="patch_49">
    <path d="M 754.586668 219.479683 
L 762.396587 219.479683 
L 762.396587 219.479683 
L 754.586668 219.479683 
z
" clip-path="url(#p430399284e)" style="fill: #029e73; opacity: 0.5; stroke: #ffffff; stroke-linejoin: miter"/>
   </g>
   <g id="patch_50">
    <path d="M 762.396587 219.479683 
L 770.206507 219.479683 
L 770.206507 219.479683 
L 762.396587 219.479683 
z
" clip-path="url(#p430399284e)" style="fill: #029e73; opacity: 0.5; stroke: #ffffff; stroke-linejoin: miter"/>
   </g>
   <g id="patch_51">
    <path d="M 770.206507 219.479683 
L 778.016416 219.479683 
L 778.016416 219.479683 
L 770.206507 219.479683 
z
" clip-path="url(#p430399284e)" style="fill: #029e73; opacity: 0.5; stroke: #ffffff; stroke-linejoin: miter"/>
   </g>
   <g id="patch_52">
    <path d="M 778.016416 219.479683 
L 785.826336 219.479683 
L 785.826336 219.479683 
L 778.016416 219.479683 
z
" clip-path="url(#p430399284e)" style="fill: #029e73; opacity: 0.5; stroke: #ffffff; stroke-linejoin: miter"/>
   </g>
   <g id="patch_53">
    <path d="M 785.826336 219.479683 
L 793.636255 219.479683 
L 793.636255 219.479683 
L 785.826336 219.479683 
z
" clip-path="url(#p430399284e)" style="fill: #029e73; opacity: 0.5; stroke: #ffffff; stroke-linejoin: miter"/>
   </g>
   <g id="patch_54">
    <path d="M 637.437908 219.479683 
L 645.247825 219.479683 
L 645.247825 219.479683 
L 637.437908 219.479683 
z
" clip-path="url(#p430399284e)" style="fill: #de8f05; opacity: 0.5; stroke: #ffffff; stroke-linejoin: miter"/>
   </g>
   <g id="patch_55">
    <path d="M 645.247825 219.479683 
L 653.057743 219.479683 
L 653.057743 204.473367 
L 645.247825 204.473367 
z
" clip-path="url(#p430399284e)" style="fill: #de8f05; opacity: 0.5; stroke: #ffffff; stroke-linejoin: miter"/>
   </g>
   <g id="patch_56">
    <path d="M 653.057743 219.479683 
L 660.867661 219.479683 
L 660.867661 194.469156 
L 653.057743 194.469156 
z
" clip-path="url(#p430399284e)" style="fill: #de8f05; opacity: 0.5; stroke: #ffffff; stroke-linejoin: miter"/>
   </g>
   <g id="patch_57">
    <path d="M 660.867661 219.479683 
L 668.677578 219.479683 
L 668.677578 184.464946 
L 660.867661 184.464946 
z
" clip-path="url(#p430399284e)" style="fill: #de8f05; opacity: 0.5; stroke: #ffffff; stroke-linejoin: miter"/>
   </g>
   <g id="patch_58">
    <path d="M 668.677578 219.479683 
L 676.487495 219.479683 
L 676.487495 184.464946 
L 668.677578 184.464946 
z
" clip-path="url(#p430399284e)" style="fill: #de8f05; opacity: 0.5; stroke: #ffffff; stroke-linejoin: miter"/>
   </g>
   <g id="patch_59">
    <path d="M 676.487495 219.479683 
L 684.297414 219.479683 
L 684.297414 194.469156 
L 676.487495 194.469156 
z
" clip-path="url(#p430399284e)" style="fill: #de8f05; opacity: 0.5; stroke: #ffffff; stroke-linejoin: miter"/>
   </g>
   <g id="patch_60">
    <path d="M 684.297414 219.479683 
L 692.107328 219.479683 
L 692.107328 204.473367 
L 684.297414 204.473367 
z
" clip-path="url(#p430399284e)" style="fill: #de8f05; opacity: 0.5; stroke: #ffffff; stroke-linejoin: miter"/>
   </g>
   <g id="patch_61">
    <path d="M 692.107328 219.479683 
L 699.917248 219.479683 
L 699.917248 179.46284 
L 692.107328 179.46284 
z
" clip-path="url(#p430399284e)" style="fill: #de8f05; opacity: 0.5; stroke: #ffffff; stroke-linejoin: miter"/>
   </g>
   <g id="patch_62">
    <path d="M 699.917248 219.479683 
L 707.727162 219.479683 
L 707.727162 189.467051 
L 699.917248 189.467051 
z
" clip-path="url(#p430399284e)" style="fill: #de8f05; opacity: 0.5; stroke: #ffffff; stroke-linejoin: miter"/>
   </g>
   <g id="patch_63">
    <path d="M 707.727162 219.479683 
L 715.537081 219.479683 
L 715.537081 174.460735 
L 707.727162 174.460735 
z
" clip-path="url(#p430399284e)" style="fill: #de8f05; opacity: 0.5; stroke: #ffffff; stroke-linejoin: miter"/>
   </g>
   <g id="patch_64">
    <path d="M 715.537081 219.479683 
L 723.347001 219.479683 
L 723.347001 134.443893 
L 715.537081 134.443893 
z
" clip-path="url(#p430399284e)" style="fill: #de8f05; opacity: 0.5; stroke: #ffffff; stroke-linejoin: miter"/>
   </g>
   <g id="patch_65">
    <path d="M 723.347001 219.479683 
L 731.15692 219.479683 
L 731.15692 159.454419 
L 723.347001 159.454419 
z
" clip-path="url(#p430399284e)" style="fill: #de8f05; opacity: 0.5; stroke: #ffffff; stroke-linejoin: miter"/>
   </g>
   <g id="patch_66">
    <path d="M 731.15692 219.479683 
L 738.96683 219.479683 
L 738.96683 94.427051 
L 731.15692 94.427051 
z
" clip-path="url(#p430399284e)" style="fill: #de8f05; opacity: 0.5; stroke: #ffffff; stroke-linejoin: miter"/>
   </g>
   <g id="patch_67">
    <path d="M 738.96683 219.479683 
L 746.776749 219.479683 
L 746.776749 174.460735 
L 738.96683 174.460735 
z
" clip-path="url(#p430399284e)" style="fill: #de8f05; opacity: 0.5; stroke: #ffffff; stroke-linejoin: miter"/>
   </g>
   <g id="patch_68">
    <path d="M 746.776749 219.479683 
L 754.586668 219.479683 
L 754.586668 219.479683 
L 746.776749 219.479683 
z
" clip-path="url(#p430399284e)" style="fill: #de8f05; opacity: 0.5; stroke: #ffffff; stroke-linejoin: miter"/>
   </g>
   <g id="patch_69">
    <path d="M 754.586668 219.479683 
L 762.396587 219.479683 
L 762.396587 219.479683 
L 754.586668 219.479683 
z
" clip-path="url(#p430399284e)" style="fill: #de8f05; opacity: 0.5; stroke: #ffffff; stroke-linejoin: miter"/>
   </g>
   <g id="patch_70">
    <path d="M 762.396587 219.479683 
L 770.206507 219.479683 
L 770.206507 219.479683 
L 762.396587 219.479683 
z
" clip-path="url(#p430399284e)" style="fill: #de8f05; opacity: 0.5; stroke: #ffffff; stroke-linejoin: miter"/>
   </g>
   <g id="patch_71">
    <path d="M 770.206507 219.479683 
L 778.016416 219.479683 
L 778.016416 219.479683 
L 770.206507 219.479683 
z
" clip-path="url(#p430399284e)" style="fill: #de8f05; opacity: 0.5; stroke: #ffffff; stroke-linejoin: miter"/>
   </g>
   <g id="patch_72">
    <path d="M 778.016416 219.479683 
L 785.826336 219.479683 
L 785.826336 219.479683 
L 778.016416 219.479683 
z
" clip-path="url(#p430399284e)" style="fill: #de8f05; opacity: 0.5; stroke: #ffffff; stroke-linejoin: miter"/>
   </g>
   <g id="patch_73">
    <path d="M 785.826336 219.479683 
L 793.636255 219.479683 
L 793.636255 219.479683 
L 785.826336 219.479683 
z
" clip-path="url(#p430399284e)" style="fill: #de8f05; opacity: 0.5; stroke: #ffffff; stroke-linejoin: miter"/>
   </g>
   <g id="patch_74">
    <path d="M 629.62799 219.479683 
L 629.62799 88.174419 
" style="fill: none; stroke: #262626; stroke-width: 1.25; stroke-linejoin: miter; stroke-linecap: square"/>
   </g>
   <g id="patch_75">
    <path d="M 801.446172 219.479683 
L 801.446172 88.174419 
" style="fill: none; stroke: #262626; stroke-width: 1.25; stroke-linejoin: miter; stroke-linecap: square"/>
   </g>
   <g id="patch_76">
    <path d="M 629.62799 219.479683 
L 801.446172 219.479683 
" style="fill: none; stroke: #262626; stroke-width: 1.25; stroke-linejoin: miter; stroke-linecap: square"/>
   </g>
   <g id="patch_77">
    <path d="M 629.62799 88.174419 
L 801.446172 88.174419 
" style="fill: none; stroke: #262626; stroke-width: 1.25; stroke-linejoin: miter; stroke-linecap: square"/>
   </g>
   <g id="text_30">
    <text style="fill: #262626; font: 20px 'Arial', 'DejaVu Sans', 'Liberation Sans', 'Bitstream Vera Sans', sans-serif; text-anchor: start" x="586.673445" y="77.110242" transform="rotate(-0 586.673445 77.110242)">(c)</text>
   </g>
   <g id="legend_2">
    <g id="patch_78">
     <path d="M 596.683445 74.459156 
L 813.755211 74.459156 
Q 816.615211 74.459156 816.615211 71.599156 
L 816.615211 10.06 
Q 816.615211 7.2 813.755211 7.2 
L 596.683445 7.2 
Q 593.823445 7.2 593.823445 10.06 
L 593.823445 71.599156 
Q 593.823445 74.459156 596.683445 74.459156 
z
" style="fill: #ffffff; opacity: 0.8; stroke: #cccccc; stroke-linejoin: miter"/>
    </g>
    <g id="patch_79">
     <path d="M 599.543445 23.785766 
L 628.143445 23.785766 
L 628.143445 13.775766 
L 599.543445 13.775766 
z
" style="fill: #0173b2; opacity: 0.5; stroke: #ffffff; stroke-linejoin: miter"/>
    </g>
    <g id="text_31">
     <text style="fill: #262626; font: 14.3px 'Arial', 'DejaVu Sans', 'Liberation Sans', 'Bitstream Vera Sans', sans-serif; text-anchor: start" x="639.583445" y="23.785766" transform="rotate(-0 639.583445 23.785766)">Linear</text>
    </g>
    <g id="patch_80">
     <path d="M 599.543445 44.775484 
L 628.143445 44.775484 
L 628.143445 34.765484 
L 599.543445 34.765484 
z
" style="fill: #029e73; opacity: 0.5; stroke: #ffffff; stroke-linejoin: miter"/>
    </g>
    <g id="text_32">
     <text style="fill: #262626; font: 14.3px 'Arial', 'DejaVu Sans', 'Liberation Sans', 'Bitstream Vera Sans', sans-serif; text-anchor: start" x="639.583445" y="44.775484" transform="rotate(-0 639.583445 44.775484)">Iterative constant shear</text>
    </g>
    <g id="patch_81">
     <path d="M 599.543445 65.765203 
L 628.143445 65.765203 
L 628.143445 55.755203 
L 599.543445 55.755203 
z
" style="fill: #de8f05; opacity: 0.5; stroke: #ffffff; stroke-linejoin: miter"/>
    </g>
    <g id="text_33">
     <text style="fill: #262626; font: 14.3px 'Arial', 'DejaVu Sans', 'Liberation Sans', 'Bitstream Vera Sans', sans-serif; text-anchor: start" x="639.583445" y="65.765203" transform="rotate(-0 639.583445 65.765203)">Iterative variable shear</text>
    </g>
   </g>
  </g>
  <g id="text_34">
   <text style="fill: #262626; font: 18.72px 'Arial', 'DejaVu Sans', 'Liberation Sans', 'Bitstream Vera Sans', sans-serif; text-anchor: middle" x="423.446172" y="37.598694" transform="rotate(-0 423.446172 37.598694)">Geysers data set</text>
  </g>
 </g>
 <defs>
  <clipPath id="pa870de4f17">
   <path d="M 131.355263 219.479683 
C 148.766545 219.479683 165.467049 212.562107 177.778684 200.250472 
C 190.090319 187.938837 197.007895 171.238332 197.007895 153.827051 
C 197.007895 136.41577 190.090319 119.715265 177.778684 107.40363 
C 165.467049 95.091995 148.766545 88.174419 131.355263 88.174419 
C 113.943982 88.174419 97.243477 95.091995 84.931842 107.40363 
C 72.620207 119.715265 65.702632 136.41577 65.702632 153.827051 
C 65.702632 171.238332 72.620207 187.938837 84.931842 200.250472 
C 97.243477 212.562107 113.943982 219.479683 131.355263 219.479683 
z
"/>
  </clipPath>
  <clipPath id="pab4307b3b6">
   <rect x="337.537081" y="88.174419" width="171.818182" height="131.305263"/>
  </clipPath>
  <clipPath id="p430399284e">
   <rect x="629.62799" y="88.174419" width="171.818182" height="131.305263"/>
  </clipPath>
 </defs>
</svg>
